<svg width="261" height="65" viewBox="0 0 261 65" fill="none" xmlns="http://www.w3.org/2000/svg">
<path d="M260.5 0.5H20C9.23044 0.5 0.5 9.23045 0.5 20V45C0.5 55.7696 9.23044 64.5 20 64.5H241C251.77 64.5 260.5 55.7696 260.5 45V0.5Z" fill="#FCF5DB"/>
<path d="M260.5 0.5H20C9.23044 0.5 0.5 9.23045 0.5 20V45C0.5 55.7696 9.23044 64.5 20 64.5H241C251.77 64.5 260.5 55.7696 260.5 45V0.5Z" fill="#727272" fill-opacity="0.2"/>
<path d="M260.5 0.5H20C9.23044 0.5 0.5 9.23045 0.5 20V45C0.5 55.7696 9.23044 64.5 20 64.5H241C251.77 64.5 260.5 55.7696 260.5 45V0.5Z" stroke="#CAC4AF"/>
<path d="M157 27V38.5" stroke="#999483" stroke-width="2" stroke-linecap="round"/>
<path d="M169 24V42.5" stroke="#999483" stroke-width="2" stroke-linecap="round"/>
<path d="M165 29V37.5" stroke="#999483" stroke-width="2" stroke-linecap="round"/>
<path d="M161 22V44" stroke="#999483" stroke-width="2" stroke-linecap="round"/>
<path d="M153 24V41" stroke="#999483" stroke-width="2" stroke-linecap="round"/>
<path d="M149 22V43.5" stroke="#999483" stroke-width="2" stroke-linecap="round"/>
<path d="M145 23V42" stroke="#999483" stroke-width="2" stroke-linecap="round"/>
<path d="M141 27V38.5" stroke="#999483" stroke-width="2" stroke-linecap="round"/>
<path d="M101 27V38.5" stroke="#999483" stroke-width="2" stroke-linecap="round"/>
<path d="M57 27V38" stroke="#999483" stroke-width="2" stroke-linecap="round"/>
<path d="M129 17V48.5" stroke="#999483" stroke-width="2" stroke-linecap="round"/>
<path d="M125 29V36" stroke="#999483" stroke-width="2" stroke-linecap="round"/>
<path d="M121 28V37.5" stroke="#999483" stroke-width="2" stroke-linecap="round"/>
<path d="M117 31V35" stroke="#999483" stroke-width="2" stroke-linecap="round"/>
<path d="M113 24V42.5" stroke="#999483" stroke-width="2" stroke-linecap="round"/>
<path d="M109 29V37.5" stroke="#999483" stroke-width="2" stroke-linecap="round"/>
<path d="M105 22V44" stroke="#999483" stroke-width="2" stroke-linecap="round"/>
<path d="M97 24V41" stroke="#999483" stroke-width="2" stroke-linecap="round"/>
<path d="M93 22V43.5" stroke="#999483" stroke-width="2" stroke-linecap="round"/>
<path d="M89 23V42" stroke="#999483" stroke-width="2" stroke-linecap="round"/>
<path d="M85 27V38.5" stroke="#999483" stroke-width="2" stroke-linecap="round"/>
<path d="M81 26V40.5" stroke="#999483" stroke-width="2" stroke-linecap="round"/>
<path d="M77 23V42.5" stroke="#999483" stroke-width="2" stroke-linecap="round"/>
<path d="M73 29V37" stroke="#999483" stroke-width="2" stroke-linecap="round"/>
<path d="M69 19V46" stroke="#999483" stroke-width="2" stroke-linecap="round"/>
<path d="M65 29V36" stroke="#999483" stroke-width="2" stroke-linecap="round"/>
<path d="M61 21V45.5" stroke="#999483" stroke-width="2" stroke-linecap="round"/>
<path d="M233 27V38" stroke="#999483" stroke-width="2" stroke-linecap="round"/>
<path d="M209 26V40.5" stroke="#999483" stroke-width="2" stroke-linecap="round"/>
<path d="M213 23V42.5" stroke="#999483" stroke-width="2" stroke-linecap="round"/>
<path d="M217 29V37" stroke="#999483" stroke-width="2" stroke-linecap="round"/>
<path d="M221 19V46" stroke="#999483" stroke-width="2" stroke-linecap="round"/>
<path d="M225 29V36" stroke="#999483" stroke-width="2" stroke-linecap="round"/>
<path d="M229 21V45.5" stroke="#999483" stroke-width="2" stroke-linecap="round"/>
<path d="M137 27V39.5" stroke="#999483" stroke-width="2" stroke-linecap="round"/>
<path d="M133 22V43.5" stroke="#999483" stroke-width="2" stroke-linecap="round"/>
<path d="M205 27V38.5" stroke="#999483" stroke-width="2" stroke-linecap="round"/>
<path d="M181 29V36" stroke="#999483" stroke-width="2" stroke-linecap="round"/>
<path d="M185 28V37.5" stroke="#999483" stroke-width="2" stroke-linecap="round"/>
<path d="M189 31V35" stroke="#999483" stroke-width="2" stroke-linecap="round"/>
<path d="M193 24V42.5" stroke="#999483" stroke-width="2" stroke-linecap="round"/>
<path d="M197 29V37.5" stroke="#999483" stroke-width="2" stroke-linecap="round"/>
<path d="M201 22V44" stroke="#999483" stroke-width="2" stroke-linecap="round"/>
<path d="M173 27V39.5" stroke="#999483" stroke-width="2" stroke-linecap="round"/>
<path d="M177 22V43.5" stroke="#999483" stroke-width="2" stroke-linecap="round"/>
<path fill-rule="evenodd" clip-rule="evenodd" d="M26.6759 26.019C26.3802 26.019 26.0893 26.0944 25.8309 26.238C25.5678 26.3721 25.3457 26.5749 25.1882 26.8249C25.0284 27.0785 24.9412 27.3711 24.936 27.6708L24.9359 27.6795V38.3395L24.936 38.3481C24.9412 38.6478 25.0284 38.9404 25.1882 39.194C25.3457 39.4441 25.5678 39.6468 25.8309 39.781C26.0893 39.9245 26.3802 39.9999 26.6759 39.9999C26.9759 39.9999 27.2707 39.9224 27.5319 39.7748C27.5376 39.7716 27.5433 39.7682 27.5489 39.7647L36.1787 34.4272C36.4404 34.2953 36.6613 34.0944 36.8175 33.8459C36.9786 33.5893 37.0642 33.2925 37.0642 32.9895C37.0642 32.6864 36.9786 32.3896 36.8175 32.133C36.6612 31.8843 36.4399 31.6832 36.1779 31.5513L27.5475 26.2533C27.5423 26.2502 27.5371 26.2471 27.5319 26.2441C27.2707 26.0966 26.9759 26.019 26.6759 26.019Z" fill="#565348"/>
</svg>
