<svg width="627" height="624" viewBox="0 0 627 624" fill="none" xmlns="http://www.w3.org/2000/svg">
<g clip-path="url(#clip0_534_1504)">
<path d="M-1.83528 377.006C-1.37713 370.505 4.01219 365.137 10.149 362.947C16.2858 360.758 23.0315 361.174 29.4818 362.121C70.8602 368.17 107.193 394.509 133.235 427.242C140.373 436.217 146.883 445.722 154.732 454.088C169.996 470.354 190.227 481.899 211.995 486.76C258.292 497.104 308.309 477.652 353.407 492.375C366.344 496.597 378.328 503.539 388.824 512.2C421.714 539.366 438.847 584.414 432.312 626.586C370.299 619.493 308.116 639.541 245.742 637.243C218.09 636.224 190.812 630.826 163.31 627.762C103.286 621.085 42.6416 625.585 -17.5873 630.096C-14.7479 628.818 -14.133 625.126 -13.9281 622.014C-10.6065 572.623 -12.0292 522.912 -18.1841 473.792C-20.2156 457.58 -22.7656 441.301 -21.8011 424.992C-20.8365 408.683 -16.0078 392.043 -5.03631 379.944" fill="#9C9C6D"/>
<path d="M235.222 -8.97938C265.026 44.2538 316.08 85.1829 374.506 102.68C410.972 113.603 450.047 115.768 484.987 130.877C516.883 144.665 544.035 169.176 561.022 199.496C581.404 235.89 586.787 278.586 601.123 317.754C604.432 326.801 608.755 336.288 617.104 341.096C625.453 345.903 638.655 342.887 640.705 333.472C641.669 329.051 640.029 324.533 638.794 320.179C635.339 307.983 634.984 295.16 634.652 282.488C632.163 187.349 629.673 92.2095 627.183 -2.93591C583.188 -1.42203 539.164 -0.589693 495.145 -0.450971C409.567 -0.179558 323.899 -2.50768 238.743 -11.012" fill="#7C7B67"/>
</g>
<defs>
<clipPath id="clip0_534_1504">
<rect width="627" height="624" fill="white"/>
</clipPath>
</defs>
</svg>
