<svg width="1373" height="581" viewBox="0 0 1373 581" fill="none" xmlns="http://www.w3.org/2000/svg">
<path d="M1177.61 469C1166.81 513.8 1303.11 562.333 1372.61 581V243C1361.94 267.167 1323.36 342.725 1270.61 323C1213.11 301.5 1217.11 355.5 1261.61 410.5C1301.42 459.706 1191.11 413 1177.61 469Z" fill="#D0C9B3"/>
<path d="M198.197 67C201.397 15.4 68.5303 0.833344 1.697 0V356.507C-0.85911 363.952 -0.251948 369.34 1.697 372.5V356.507C7.22868 340.395 27.575 314.651 81.197 281C179.197 219.5 111.197 213 90.197 145C69.197 77 194.197 131.5 198.197 67Z" fill="#DDD6BF"/>
</svg>
