<svg width="21" height="21" viewBox="0 0 21 21" fill="none" xmlns="http://www.w3.org/2000/svg">
<path d="M19.4472 0.00014682H1.55282C1.35167 -0.00262999 1.15194 0.0340062 0.965034 0.107963C0.778131 0.18192 0.607715 0.291749 0.463518 0.431178C0.319322 0.570607 0.204171 0.736905 0.124639 0.920574C0.0451082 1.10424 0.00275535 1.30169 0 1.50163V19.4984C0.00275535 19.6983 0.0451082 19.8958 0.124639 20.0794C0.204171 20.2631 0.319322 20.4294 0.463518 20.5688C0.607715 20.7082 0.778131 20.8181 0.965034 20.892C1.15194 20.966 1.35167 21.0026 1.55282 20.9999H19.4472C19.6483 21.0026 19.8481 20.966 20.035 20.892C20.2219 20.8181 20.3923 20.7082 20.5365 20.5688C20.6807 20.4294 20.7958 20.2631 20.8754 20.0794C20.9549 19.8958 20.9972 19.6983 21 19.4984V1.50163C20.9972 1.30169 20.9549 1.10424 20.8754 0.920574C20.7958 0.736905 20.6807 0.570607 20.5365 0.431178C20.3923 0.291749 20.2219 0.18192 20.035 0.107963C19.8481 0.0340062 19.6483 -0.00262999 19.4472 0.00014682V0.00014682ZM6.36972 17.5769H3.2007V8.12703H6.36972V17.5769ZM4.78521 6.80405C4.34816 6.80405 3.92902 6.63148 3.61998 6.3243C3.31094 6.01712 3.13732 5.60049 3.13732 5.16607C3.13732 4.73166 3.31094 4.31503 3.61998 4.00785C3.92902 3.70067 4.34816 3.5281 4.78521 3.5281C5.01728 3.50194 5.2523 3.52479 5.47487 3.59517C5.69744 3.66555 5.90254 3.78187 6.07675 3.9365C6.25096 4.09113 6.39034 4.2806 6.48578 4.49249C6.58121 4.70438 6.63055 4.93392 6.63055 5.16607C6.63055 5.39823 6.58121 5.62777 6.48578 5.83966C6.39034 6.05155 6.25096 6.24101 6.07675 6.39565C5.90254 6.55028 5.69744 6.6666 5.47487 6.73697C5.2523 6.80735 5.01728 6.83021 4.78521 6.80405V6.80405ZM17.7993 17.5769H14.6303V12.5055C14.6303 11.235 14.1761 10.4055 13.0246 10.4055C12.6683 10.4081 12.3213 10.5192 12.0305 10.7238C11.7396 10.9285 11.5188 11.2168 11.3979 11.55C11.3152 11.7968 11.2794 12.0567 11.2923 12.3165V17.5664H8.12324C8.12324 17.5664 8.12324 8.97752 8.12324 8.11653H11.2923V9.45001C11.5801 8.95348 11.9988 8.54442 12.5033 8.26689C13.0077 7.98936 13.5788 7.85388 14.1549 7.87504C16.2676 7.87504 17.7993 9.22952 17.7993 12.138V17.5769Z" fill="#565348" fill-opacity="0.8"/>
</svg>
