<svg width="434" height="197" viewBox="0 0 434 197" fill="none" xmlns="http://www.w3.org/2000/svg">
<g clip-path="url(#clip0_542_1529)">
<path d="M2.03977 155.14H25.2798C25.5898 155.14 25.8498 155.34 25.9398 155.64C29.1998 166.83 40.1298 174.38 53.6398 174.38C72.2698 174.38 82.7098 163.32 82.7098 143.87C82.7098 143.27 81.9898 142.96 81.5498 143.37C73.8998 150.51 62.0898 155.13 51.3898 155.13C20.4698 155.13 0.00976562 134.04 0.00976562 102.51C0.00976562 70.9797 20.4798 49.8896 51.3898 49.8896C62.0898 49.8896 73.8998 54.5197 81.5498 61.6497C81.9898 62.0597 82.7098 61.7497 82.7098 61.1497V53.4496C82.7098 53.0696 83.0198 52.7596 83.3998 52.7596H106.58C106.96 52.7596 107.27 53.0696 107.27 53.4496V143.86C107.27 177.23 88.0298 196.07 53.6298 196.07C25.8898 196.07 5.14977 180.05 1.33977 155.92C1.26977 155.5 1.59977 155.12 2.01977 155.12H2.02977L2.03977 155.14ZM82.7098 102.53C82.7098 83.8996 71.2498 71.6096 53.8398 71.6096C36.4298 71.6096 24.5598 83.8896 24.5598 102.53C24.5598 121.17 36.2298 133.45 53.8398 133.45C71.4498 133.45 82.7098 121.17 82.7098 102.53Z" fill="#565348"/>
<path d="M126.81 52.7697H149.99C150.37 52.7697 150.68 53.0797 150.68 53.4597V62.6397C150.68 63.2997 151.52 63.5897 151.92 63.0497C157.47 55.6397 166.72 50.7197 175.45 50.7197C178.96 50.7197 183.02 51.4597 185.87 52.5897C186.13 52.6897 186.3 52.9497 186.3 53.2297V70.9097C186.3 71.2897 185.99 71.5997 185.61 71.5997H177.91C161.53 71.5997 150.68 80.8197 150.68 94.5297V154.44C150.68 154.82 150.37 155.13 149.99 155.13H126.81C126.43 155.13 126.12 154.82 126.12 154.44V53.4597C126.12 53.0797 126.43 52.7697 126.81 52.7697Z" fill="#565348"/>
<path d="M187.12 103.96C187.12 71.6102 209.23 49.9102 242.6 49.9102C275.97 49.9102 298.08 71.6102 298.08 103.96C298.08 136.31 275.97 158.01 242.6 158.01C209.23 158.01 187.12 136.31 187.12 103.96ZM273.52 103.96C273.52 84.5102 261.24 71.6102 242.6 71.6102C223.96 71.6102 211.68 84.5102 211.68 103.96C211.68 123.41 223.97 136.31 242.6 136.31C261.23 136.31 273.52 123.41 273.52 103.96Z" fill="#565348"/>
<path d="M411.22 155.14H388.04C387.66 155.14 387.35 154.83 387.35 154.45V149.1C387.35 148.51 386.67 148.2 386.22 148.57C379.4 154.33 369 158 359.51 158C331.46 158 312.83 141.42 312.83 116.44C313.15 98.8105 313.84 75.9605 295.89 58.6705C295.25 58.0605 293.27 56.2105 291.62 54.7005C290.86 54.0105 291.35 52.7405 292.38 52.7405C299.22 52.7305 305.94 52.8005 312.83 52.7605L317.03 52.7305C326.69 55.2405 337.7 71.5905 336.81 89.7805C336.81 89.8105 336.81 89.8405 336.81 89.8805L337.39 113.49C337.39 113.49 337.39 113.58 337.41 113.62C340.21 126.87 347.45 136.28 362.37 136.28C377.29 136.28 387.35 127.27 387.35 113.56V53.4505C387.35 53.0705 387.66 52.7605 388.04 52.7605H411.22C411.6 52.7605 411.91 53.0705 411.91 53.4505V154.43C411.91 154.81 411.6 155.12 411.22 155.12V155.14Z" fill="#565348"/>
<path d="M374.76 114.12C374.76 128.29 350.19 128.74 350.19 114.8V90.5905C349.34 73.8605 345.39 60.9605 335.01 49.0505C329.11 42.2805 340.42 29.8305 337.56 28.4505C332.94 26.2305 341.65 56.2505 274.88 33.5205C274.2 33.2905 273.97 32.4505 274.43 31.9005C275.68 30.4405 278.07 27.7105 280.91 24.4805C294.42 9.11047 314.45 0.960471 334.83 2.83047C335.72 2.91047 336.43 3.00047 336.95 3.07047C360.48 6.30047 374.74 21.5605 374.74 42.3605V114.11L374.76 114.12Z" fill="url(#paint0_linear_542_1529)"/>
<path d="M359.89 2.89045C358.94 3.12045 358.69 4.17045 359.47 4.66045C364.75 8.00045 378.89 18.6305 380.54 37.4705L380.58 37.9605C380.81 41.0605 383.96 43.3505 387.61 43.0805L398.14 42.2905C410.67 41.3505 423.03 45.4205 430.86 53.6005C431.1 53.8505 431.34 54.1105 431.58 54.3705C432.28 55.1505 433.77 54.6505 433.7 53.6605C432.97 43.8905 429.01 16.3505 407.37 5.22045C406.76 4.91045 405.94 5.15045 405.66 5.73045L401.22 14.7705C400.63 15.9705 398.5 15.3305 399.01 14.1105C399.89 11.9805 400.21 8.29045 400.21 8.29045C400.21 8.29045 400.77 2.28045 392.95 0.830452C382.48 -1.10955 366.09 1.39045 359.9 2.89045H359.89Z" fill="#00A86B" stroke="#00A86B" stroke-width="0.25" stroke-miterlimit="10"/>
</g>
<defs>
<linearGradient id="paint0_linear_542_1529" x1="327.91" y1="93.6505" x2="329.52" y2="120.32" gradientUnits="userSpaceOnUse">
<stop stop-color="#00A86B"/>
<stop offset="1" stop-color="#00A86B"/>
</linearGradient>
<clipPath id="clip0_542_1529">
<rect width="433.82" height="196.08" fill="white"/>
</clipPath>
</defs>
</svg>
