<svg width="1027" height="495" viewBox="0 0 1027 495" fill="none" xmlns="http://www.w3.org/2000/svg">
<path d="M4.85736 397.488H60.2117C60.9422 397.488 61.5752 397.975 61.7821 398.681C69.5369 425.329 95.5767 443.322 127.764 443.322C172.138 443.322 197.009 416.99 197.009 370.656C197.009 369.22 195.292 368.477 194.245 369.463C176.033 386.47 147.888 397.475 122.396 397.475C48.7562 397.475 0 347.246 0 272.146C0 197.046 48.7683 146.816 122.396 146.816C147.888 146.816 176.021 157.834 194.245 174.828C195.305 175.814 197.009 175.072 197.009 173.635V155.289C197.009 154.376 197.752 153.646 198.652 153.646H253.873C254.786 153.646 255.516 154.389 255.516 155.289V370.644C255.516 450.127 209.682 495 127.752 495C61.6726 495 12.2834 456.835 3.20171 399.375C3.04346 398.376 3.82258 397.475 4.83301 397.475L4.85736 397.488ZM197.021 272.158C197.021 227.785 169.715 198.519 128.263 198.519C86.8115 198.519 58.5317 227.772 58.5317 272.158C58.5317 316.544 86.3246 345.798 128.263 345.798C170.202 345.798 197.021 316.544 197.021 272.158Z" fill="#565348"/>
<path d="M302.044 153.657H357.265C358.178 153.657 358.908 154.4 358.908 155.301V177.165C358.908 178.747 360.917 179.417 361.867 178.151C375.075 160.511 397.122 148.775 417.915 148.775C426.266 148.775 435.944 150.541 442.737 153.231C443.358 153.475 443.76 154.083 443.76 154.753V196.862C443.76 197.775 443.017 198.506 442.116 198.506H423.77C384.753 198.506 358.908 220.455 358.908 253.117V395.819C358.908 396.732 358.166 397.462 357.265 397.462H302.044C301.131 397.462 300.401 396.72 300.401 395.819V155.289C300.401 154.375 301.143 153.645 302.044 153.645V153.657Z" fill="#565348"/>
<path d="M445.72 275.579C445.72 198.531 498.384 146.841 577.879 146.841C657.374 146.841 710.038 198.531 710.038 275.579C710.038 352.627 657.374 404.317 577.879 404.317C498.384 404.317 445.72 352.627 445.72 275.579ZM651.519 275.579C651.519 229.258 622.265 198.531 577.879 198.531C533.493 198.531 504.24 229.258 504.24 275.579C504.24 321.9 533.506 352.627 577.879 352.627C622.253 352.627 651.519 321.9 651.519 275.579Z" fill="#565348"/>
<path d="M803.691 298.648C804.811 325.711 827.613 352.615 863.148 352.615C898.684 352.615 922.642 331.165 922.642 298.49V155.301C922.642 154.388 923.384 153.658 924.285 153.658H979.506C980.419 153.658 981.149 154.4 981.149 155.301V395.832C981.149 396.745 980.407 397.475 979.506 397.475H924.285C923.372 397.475 922.642 396.733 922.642 395.832V383.098C922.642 381.698 921.01 380.943 919.939 381.844C903.699 395.576 878.926 404.305 856.319 404.305C789.509 404.305 745.135 364.801 745.135 305.307C745.902 263.308 747.533 208.891 704.791 167.707C703.269 166.246 698.546 161.839 694.614 158.26C692.8 156.616 693.969 153.597 696.416 153.597C712.716 153.573 728.725 153.743 745.123 153.646L755.118 153.585C778.138 159.562 804.349 198.506 802.243 241.845C802.243 241.918 802.255 241.991 802.267 242.076" fill="#565348"/>
<path d="M754.789 107.666C754.789 107.07 598.136 33.6979 690.109 4.23723C756.554 -8.47224 842.416 17.0684 851.546 20.3675C895.64 37.4109 892.67 79.3254 892.67 128.861V299.769C892.67 333.527 834.15 334.598 834.15 301.388V243.721C834.15 186.674 808.536 134.388 765.076 113.351" fill="url(#paint0_linear_402_40)"/>
<path d="M921.675 117.001C926.625 44.6907 913.262 24.8277 889.835 11.0251C887.972 9.92719 888.832 6.91674 890.991 7.04795C927.773 9.28349 933.428 11.1856 960 16.5C965 17.5 1029.27 28.6685 1026.26 53.637C1023.65 75.2091 978.575 72.2966 932.862 116.001C928.589 120.079 921.541 122.905 921.675 117.001Z" fill="#00A86B" stroke="#00A86B" stroke-width="0.5"/>
<defs>
<linearGradient id="paint0_linear_402_40" x1="787.634" y1="240.775" x2="791.943" y2="312.162" gradientUnits="userSpaceOnUse">
<stop stop-color="#00A86B"/>
<stop offset="1" stop-color="#00A86B"/>
</linearGradient>
</defs>
</svg>
