<svg width="445" height="236" viewBox="0 0 445 236" fill="none" xmlns="http://www.w3.org/2000/svg">
<path d="M53.9281 236C26.5281 236 6.12813 220 2.72813 196H26.7281C29.7281 207.2 40.5281 214.8 53.9281 214.8C72.1281 214.8 82.3281 204 82.3281 185V183.4C74.9281 191 62.7281 196 51.7281 196C21.5281 196 1.52813 175.4 1.52813 144.6C1.52813 113.8 21.5281 93.2 51.7281 93.2C62.7281 93.2 74.9281 98.2 82.3281 105.8V96H106.328V185C106.328 217.6 87.5281 236 53.9281 236ZM54.1281 174.8C71.1281 174.8 82.3281 162.8 82.3281 144.6C82.3281 126.4 71.1281 114.4 54.1281 114.4C36.9281 114.4 25.5281 126.4 25.5281 144.6C25.5281 162.8 36.9281 174.8 54.1281 174.8ZM124.669 196V96H148.669V107.8C153.869 99.6 163.669 94 172.869 94C176.469 94 180.669 94.8 183.469 96V114.4H175.269C159.269 114.4 148.669 123.4 148.669 136.8V196H124.669ZM238.541 198.8C205.941 198.8 184.341 177.6 184.341 146C184.341 114.4 205.941 93.2 238.541 93.2C271.141 93.2 292.741 114.4 292.741 146C292.741 177.6 271.141 198.8 238.541 198.8ZM238.541 177.6C256.741 177.6 268.741 165 268.741 146C268.741 127 256.741 114.4 238.541 114.4C220.341 114.4 208.341 127 208.341 146C208.341 165 220.341 177.6 238.541 177.6ZM326.93 196L292.33 96H317.53L338.53 168.8L357.13 96H379.53L398.13 168.8L419.13 96H444.33L409.93 196H385.53L368.33 131.4L351.33 196H326.93Z" fill="#565348"/>
<path d="M249 93.7059C249 96.6176 231.462 93.7059 231.462 93.7059V76.2353C219.769 76.2353 209.051 72.3529 205.154 70.4118C179.431 58.7647 173 30.6176 173 18H187.615C196.969 18 205.154 19.9412 208.077 20.9118C240.815 30.2294 249 61.6765 249 76.2353V93.7059Z" fill="url(#paint0_linear_98_43)"/>
<path d="M254.565 59C254.565 47.4 244.855 36.7667 240 32.9C249.322 7.38 276.899 1 289.522 1H307C304.67 45.08 271.072 58.0333 254.565 59Z" fill="#00A86B" stroke="#00A86B" stroke-width="0.5"/>
<defs>
<linearGradient id="paint0_linear_98_43" x1="231.462" y1="76.2353" x2="231.462" y2="90.7941" gradientUnits="userSpaceOnUse">
<stop stop-color="#00A86B"/>
<stop offset="0.085" stop-color="#07A168"/>
<stop offset="1" stop-color="#565348"/>
</linearGradient>
</defs>
</svg>
