<svg width="473" height="535" viewBox="0 0 473 535" fill="none" xmlns="http://www.w3.org/2000/svg">
<path d="M171.32 89.9102L171.94 91.0302L172.4 90.7802L172.79 86.9001C173.48 91.2601 174.84 101.29 172.18 105.07C169.97 102.03 172.07 94.0202 171.32 89.9202V89.9102Z" fill="#565449"/>
<path d="M408.75 166.31C412.57 167.66 416.05 168.27 420.07 168.55C421.61 168.66 423.39 168.52 424.86 168.96C423.98 172.31 423 175.01 421.09 177.95L421.37 178.38C440.23 181.59 443.26 179.55 459.95 190.58C462.22 192.08 465.22 193.28 467.05 195.27C467.38 197.07 466.8 198.17 465.79 199.66C464.41 201.69 462.67 203.62 460.82 205.23C462.08 206.86 463.21 208.4 464.12 210.26C462.04 215.6 460.22 221.08 456.78 225.72C456.64 225.61 456.5 225.5 456.36 225.38C451.33 221.19 442.94 210.06 436.2 208.74L435.88 208.94C435.88 208.94 435.83 208.87 435.82 208.82C435.7 208.34 435.75 208.17 435.55 207.68C434.93 206.15 433.97 206.13 432.55 205.58C430.67 204.79 428.61 202.63 426.7 201.57L426.66 203.78L425.86 203.75C424.07 198.11 423.46 192.01 422.14 186.25C419.97 176.81 409.81 170.63 403.39 163.81L403.85 163.36C405.89 163.73 407.83 164.18 409.82 164.79L408.76 166.3L408.75 166.31Z" fill="#5B5D4B"/>
<path d="M408.75 166.31C412.57 167.66 416.05 168.27 420.07 168.55C421.61 168.66 423.39 168.52 424.86 168.96C423.98 172.31 423 175.01 421.09 177.95L421.37 178.38C421.92 180.07 422.47 181.76 422.96 183.46C428.88 184.72 439.71 186.87 443.78 191.52C437.31 188.71 431.73 186.06 424.66 184.91C424.24 184.84 423.82 184.76 423.4 184.68L424.23 188.73C425.02 189.18 425.79 189.57 426.63 189.92C425.33 190.52 425.08 190.47 424.46 191.73C424.65 194.72 425.82 197.68 427.07 200.37C427.22 200.69 427.35 201.01 427.48 201.33L426.71 201.56L426.67 203.77L425.87 203.74C424.08 198.1 423.47 192 422.15 186.24C419.98 176.8 409.82 170.62 403.4 163.8L403.86 163.35C405.9 163.72 407.84 164.17 409.83 164.78L408.77 166.29L408.75 166.31Z" fill="#413E36"/>
<path d="M420.07 168.55C421.61 168.66 423.39 168.52 424.86 168.96C423.98 172.31 423 175.01 421.09 177.95L420.67 177.19C419.44 176.64 418.34 175.82 417.31 174.96C415.27 173.26 408.99 168.6 408.76 166.31C412.58 167.66 416.06 168.27 420.08 168.55H420.07Z" fill="#5B5D4B"/>
<path d="M209.43 456.96C192.63 460.07 175.74 462.63 158.76 464.63C150.47 465.54 142.15 465.97 133.84 466.59C89.39 469.95 45.25 470.09 0.71998 469.03C0.15998 461.33 0.36998 453.43 0.22998 445.7C11.74 446.1 23.22 447.06 34.73 447.31C45.48 447.55 56.19 447.12 66.93 447.22L159.45 448.7C175.21 449 190.96 449.48 206.71 450.12C215.57 450.42 225.71 450.25 234.4 451.61C229.17 454.59 215.79 455.8 209.43 456.94V456.96Z" fill="#D4CD9E"/>
<path d="M435.55 207.69C435.75 208.18 435.7 208.35 435.82 208.83C435.83 208.87 435.86 208.91 435.88 208.95C441.22 218.38 445.95 226.61 449.02 237.13C452.07 247.75 454.57 258.49 456.54 269.37C460.92 293.04 463.54 317.17 466.82 341.02C468.39 352.43 471.13 363.77 472.01 375.27C472.23 378.18 472.01 380.81 471.23 383.63C469.83 388.59 468.26 394.11 465.68 398.58L459.65 357.95C458.4 349.35 457.43 340.53 455.52 332.05C453.46 383.76 439.75 433.92 432.09 484.89C430.66 494.42 429.93 504.5 429.76 514.13C429.65 520.31 430.13 527.25 429.49 533.39L428.49 533.89L427.99 533.39C427.01 531.04 427.69 529.35 427.75 526.87C418.01 527.89 408.57 531.74 398.88 533.38C389.31 535 380.49 531.87 370.99 533.38C370.92 534.96 370.57 532.1 369.49 533.38L368.49 533.89C366.84 523.29 368.09 517.91 367.51 507.16C366.97 496.97 365.63 486.78 364.87 476.6C363.8 462.39 363.24 448.13 362.12 433.94C359.96 434.02 357.89 433.97 355.85 434.76C354.39 436.74 354.32 454.05 354.02 457.73C352.76 473.19 351.05 488.79 348.9 504.15C348.34 508.17 347.2 512.07 346.71 516.1C346.2 520.25 347.22 532.01 344.49 533.38C344.49 533.38 343.94 534.36 343.99 533.38C344.01 532.92 343.41 533.82 343.49 533.38C332.87 536.13 323.43 533.35 312.49 533.38C310.49 533.89 309.63 531.24 308.99 533.38C308.06 533.98 308.96 533.53 307.99 533.38C307.99 532.89 306.02 535.11 305.99 532.89C297.61 532.56 289.87 533.9 281.49 533.89L278.99 533.39C276.62 532.38 271.63 533.4 268.99 533.39C261.19 533.38 254.79 533.13 246.99 533.39C241.26 533.58 236.19 533.78 230.49 533.39C229.04 533.29 226.36 533.35 224.99 532.89C225.02 535.12 225.46 531.32 224.49 533.39H223.49C222.46 532.2 220.46 534.9 220.49 533.39C217.09 533.51 196.18 532.98 194.99 533.39C194.84 534.55 193.73 532.24 193.49 533.39H192.58C191.74 531.99 190.05 535 189.99 533.39C188.86 533.78 187.67 533.21 186.49 533.39C180.51 534.27 164.49 533.39 161.49 533.39C160.34 532.99 153.46 534.1 152.49 533.39H151.99C144.95 535.11 104.49 531.89 94.49 532.89L92.99 533.39C91.09 531.25 91.71 496.88 91.79 490.87L86.05 491.05C86.11 498.32 87.33 524.02 85.39 528.97C83.67 524.29 84.71 498.26 84.7 491C75.35 491.75 3.51002 492.98 0.35002 490.92L0.0200195 489.15C6.37002 488.35 13.53 489.21 19.93 489.37L52.94 489.86C77.93 490.15 103.09 488.79 128 486.83C184.97 482.37 251.87 473.37 303.88 449.49C314.99 444.39 327.72 437.93 335.73 428.54L336.22 429.18C336.32 430.75 334.98 431.5 334.55 433.07C335.95 433.86 341.04 433.14 342.9 433.11C347.98 433.03 353.09 433.22 358.16 432.91C381.15 431.52 410.6 427.04 432.85 421.3C433.4 414.77 433.16 408.01 433.22 401.46L433.39 363.96L433.13 321.96C433.11 315.1 433.51 308.23 433.33 301.38C433.18 295.75 432.34 290.16 432.1 284.53C431.9 279.73 432.1 274.91 431.83 270.11C431.61 266.15 430.91 262.24 430.64 258.29C430.28 253.02 430.32 247.74 429.89 242.46C429.2 233.93 427.95 225.51 427.05 217C426.58 212.61 426.46 208.2 425.87 203.81L426.67 203.84L426.71 201.63C428.63 202.69 430.69 204.85 432.56 205.64C433.98 206.19 434.94 206.21 435.56 207.74V207.69H435.55Z" fill="#444137"/>
<path d="M439.54 230.84C438.89 232.1 437.47 232.52 436.25 233.1L430.55 236.03C429.8 231.52 426.49 210.79 427.67 207.71C431.41 214.86 436.86 223.44 439.54 230.84Z" fill="#9C9D6D"/>
<path d="M446.63 234.09C449.03 241.16 450.44 248.52 452.01 255.81C457.5 281.28 460.07 307.06 463.8 332.82L468.25 361.68C468.99 366.61 470.04 371.71 470.21 376.68C470.33 380.29 469.64 385.2 467.93 388.43C467.43 389.37 467.43 389.56 466.38 389.87C465.21 388.13 463.68 373.7 463.32 370.81C462.34 362.95 461.41 354.97 460.06 347.16C458.86 340.21 457.14 333.31 456.5 326.28C455.87 319.32 456.31 312.26 456.08 305.28C455.89 298.38 455.39 291.5 454.6 284.64C453.8 277.78 452.71 270.97 451.32 264.21C448.98 253.22 445.3 239.13 440.19 229.16C435.92 220.82 430.07 212.44 426.65 203.78L426.69 201.57C428.61 202.63 430.67 204.79 432.54 205.58C437.67 214.75 443.24 224.11 446.62 234.09H446.63Z" fill="#9C9D6D"/>
<path d="M221.99 533.39C218.59 533.51 221.73 532.89 220.99 533.39C220.84 534.55 194.23 532.24 193.99 533.39C193.8 522.09 193.71 520.77 193.29 509.49C192.93 500.06 193.04 490.6 193.06 481.16C201.8 480.71 214.5 478.34 222.84 475.81C223.07 496.85 222.81 512.35 223.49 533.39H221.99Z" fill="#D4CD9E"/>
<path d="M306.14 514C306.34 524.68 307.78 522.79 306.99 533.39C306.49 531.89 305.49 534.39 305.49 533.39C297.11 533.06 289.87 533.4 281.49 533.39C281.55 514.59 280.86 500.74 280.8 481.94C280.78 475.31 279.94 467.81 280.81 461.29C289.3 457.46 298.18 454.82 306.43 450.31C305.91 471.54 305.81 492.78 306.14 514.01V514Z" fill="#D4CD9E"/>
<path d="M191.57 509.98C191.57 519.5 190.5 523.94 191.99 533.39C190.86 533.78 187.67 533.21 186.49 533.39C180.51 534.27 165.49 533.39 162.49 533.39C161.34 532.99 157.46 534.2 156.49 533.49C157.37 532.74 153.12 534.75 153.22 533.49C153.68 527.71 152.86 521.41 152.74 515.59C152.54 505.86 152.69 496.1 152.69 486.37C165.85 485.94 178.46 482.69 191.46 481.28C191.4 490.86 191.56 500.42 191.57 509.99V509.98Z" fill="#FCF5DB"/>
<path d="M151.49 533.39C144.45 535.11 103.49 532.39 93.9901 532.89C93.2401 519.36 92.9801 504.25 93.0001 490.7C112.46 490.4 132.04 488.66 151.39 486.52C151.27 502.65 150.85 517.28 151.99 533.39H151.49Z" fill="#FCF5DB"/>
<path d="M279.31 484.92C279.26 496.24 279.29 507.56 279.38 518.88C279.41 525.3 278.52 527 278.99 533.39C276.62 532.38 272.13 533.4 269.49 533.39C261.69 533.38 253.79 533.63 245.99 533.89C240.49 533.89 239.19 533.78 233.49 533.39C232.04 533.29 226.67 533.85 225.3 533.39C224.77 512.78 224.93 496.19 224 475.6C239.66 473.61 264.27 466.92 279.17 461.37C279.82 469.16 279.4 477.11 279.31 484.91V484.92Z" fill="#FCF5DB"/>
<path d="M352.44 457.34C351.02 471.58 349.29 485.93 347.22 500.09C346.26 506.65 344.98 513.18 344.13 519.74C343.4 525.39 343.58 527.71 342.99 533.39C332.37 536.14 319.07 533.36 308.13 533.39C308.25 525.41 308.51 523.57 307.98 515.62C313.04 515.87 317.92 515.82 322.93 514.97L323.09 513.73C323.36 513.88 323.94 514.07 324.04 514.36L320.82 514.38L320.54 514.79C319.62 514.4 319.99 514.44 319.05 514.48C315.39 514.65 311.85 514.46 308.2 514.24V508.5C313.94 509.74 319.08 509.29 324.86 508.57L324.67 508.25C325.03 508.25 325.6 508.37 325.86 508.13C320.23 507.69 314.2 508.7 308.72 507.46C308.52 507.42 308.33 507.36 308.13 507.31C308.37 501.22 307.98 495.09 307.92 489L307.43 450.02C316.02 447.17 325.33 440.13 331.88 433.87C338.55 436.1 346.99 433.57 354.15 434.3C354.25 441.96 353.23 449.73 352.47 457.35H352.44V457.34Z" fill="#9C9D6D"/>
<path d="M439.54 432.04C435.92 451.33 431.51 470.4 429.3 489.95C427.9 502.32 427.89 519.95 427.99 532.39C418.25 533.41 408.56 531.73 398.87 533.37C389.3 534.99 379.49 531.86 369.99 533.37C369.89 525.05 369.6 519.6 369 511.3C380.98 513.31 402.17 511.3 413.34 506.76C407.35 507.33 401.48 508.83 395.52 509.67C387.11 510.85 377.57 510.73 369.11 510.19C367.8 499.22 367.63 487.91 366.91 476.87C365.96 462.43 364.56 447.97 363.78 433.53C369.97 433.19 376.22 433.09 382.39 432.45C393.21 431.32 403.99 429.29 414.68 427.26C421.27 426.01 428.21 424.97 434.46 422.47C435.56 416.93 435.08 411.01 435.04 405.39C434.97 397.86 434.95 390.34 434.97 382.81C435.08 349.19 435.5 315.45 434.06 281.85C433.41 266.82 431.82 251.82 430.79 236.82C433.87 235.22 436.98 233.69 440.12 232.23C465.51 295.21 451.66 367.52 439.55 432.03H439.54V432.04Z" fill="#9C9D6D"/>
<path d="M451.61 88.8702C450.36 80.2602 446.96 71.3802 444.43 63.0402C439.09 45.4202 431.9 21.4001 422.49 1.39014C404.66 0.140137 386.38 1.73023 369.68 8.54023C352.48 15.5502 337.46 26.8202 320.04 33.4802C310.72 37.0402 301 39.4202 291.33 41.8302C282.1 44.1402 272.99 46.2502 263.53 47.4302C251.52 48.9302 239.59 48.3301 227.49 48.3901C227.21 57.1101 227.34 66.8802 226.95 75.1802C226.38 87.3302 224.99 99.4202 224.41 111.54C215.73 116.44 205.88 122.81 199.75 130.84C198.53 131.8 197.52 133.41 196.54 134.63C196.2 130.26 195.81 125.9 195.38 121.54C195.33 114.45 196.52 109.12 198.89 102.5C191.06 102.93 181.47 102.7 174.05 105.14L172.79 105.37L172.18 105.04C169.97 102 172.07 93.9902 171.32 89.8902L171.94 91.0102L172.4 90.7602L172.79 86.8802C171.92 72.7002 158.01 65.1802 154.66 52.2602C153.51 47.8402 153.12 48.2502 152.69 43.7402L111.64 110.31C104.49 142.8 92.05 113.3 84.63 112.09C73.6 106.02 62.29 103.77 50.65 99.5102C46.72 98.0702 43 96.1602 39.25 94.3102C42.6 99.3802 45.78 104.32 47.25 110.3C48.7 116.24 48.13 122.15 47.56 128.16C45.36 151.5 45.85 163.39 64.51 179.64C55.53 180.9 48.32 183.35 40.82 188.5C37.87 190.52 35.04 192.74 31.82 194.33C29.3 195.57 26.46 196.34 23.79 197.19L24.58 197.36C36.27 199.91 45.19 212.25 57.47 212.71C67.02 213.07 76.66 209.45 86.27 209.17C86.08 214.06 86.02 219 85.59 223.87C81.46 223.64 76.92 223.04 72.81 223.49C63.29 224.53 53.15 231.1 46.16 237.31C36.94 245.5 28.46 255.52 24.85 267.48C28.69 263.04 32.27 258.44 38.61 258.01C48.44 257.35 51.74 258.78 60.83 253.1C58.43 263.09 56.8 273.21 54.83 283.29L55.3 282.77C57.43 280.41 58.81 277.42 60.95 275.2C66.3 269.67 79.33 265.16 86.74 262.72L86.69 263.33C85.39 278.53 76.76 277.38 84.88 295.6C79.58 313.29 76.11 329.85 76.24 348.45C66.75 349.1 6.38002 349.26 2.99002 353.07L3.66002 354.09C7.71002 354.45 12.5 353.4 16.58 353.04C24.12 352.42 31.67 351.91 39.22 351.49C51.52 350.84 64.08 351.83 76.28 350.46C78.1 363.43 81.02 375.28 87.65 386.74C88.77 388.67 96.99 399.45 96.99 400.36C96.99 400.59 96.74 400.74 96.62 400.93C95.13 401.08 94.58 401.02 93.34 401.91C92.57 403.98 93.23 405.8 94.1 407.74C95.9 411.75 98.36 414.76 102.6 416.19C105.08 417.02 107.8 417.39 110.4 417.51C116.26 417.79 122.14 417.22 128 417.22C137.55 417.22 147.15 417.13 156.7 417.24C165.72 417.34 182.7 418.94 190.88 416.34C219.79 416.23 248.59 417.69 277.47 418.64L307.67 419.6C312.7 419.77 318.09 419.58 323.07 420.21C324.06 420.33 324.88 420.54 325.72 421.11C308.74 433.63 274.5 443.46 253.92 448.21C249.34 449.27 237.73 450.25 234.44 451.59C229.21 454.57 215.83 455.78 209.47 456.92C192.66 460.03 175.77 462.59 158.8 464.59C150.51 465.5 142.19 465.92 133.88 466.55C89.43 469.9 45.29 470.05 0.76002 468.99L0.58002 471.21C0.55002 476.7 1.31002 483.72 0.0200195 489.05C6.37002 488.26 13.53 489.12 19.93 489.27L52.94 489.76C77.93 490.04 103.08 488.68 128 486.73C184.97 482.28 251.87 473.28 303.88 449.39C314.99 444.29 327.71 437.83 335.73 428.44L336.22 429.08C336.32 430.65 334.97 431.4 334.55 432.97C335.95 433.77 341.04 433.04 342.9 433.01C347.98 432.93 353.09 433.12 358.16 432.81C381.15 431.41 410.6 426.93 432.85 421.2C433.41 414.67 433.16 407.91 433.22 401.36L433.39 363.86L433.13 321.86C433.12 315 433.52 308.14 433.33 301.28C433.17 295.64 432.33 290.06 432.1 284.43C431.9 279.63 432.1 274.81 431.83 270.01C431.6 266.05 430.91 262.14 430.64 258.19C430.28 252.92 430.32 247.64 429.89 242.36C429.2 233.82 427.95 225.4 427.05 216.9C426.58 212.5 426.45 208.09 425.87 203.71C424.08 198.07 423.47 191.97 422.15 186.21C419.99 176.76 409.82 170.59 403.4 163.77L403.86 163.32C405.9 163.69 407.85 164.15 409.83 164.75L408.77 166.26C412.59 167.6 416.07 168.22 420.09 168.5C421.63 168.61 423.41 168.48 424.88 168.91C428.84 169.35 432.65 169.18 436.53 168.23C442.24 166.83 447.26 163.97 450.24 158.74C458.83 143.68 452.96 109.97 448.58 93.0902L451.6 88.8602L451.61 88.8702Z" fill="#444137"/>
<path d="M161.23 216C162.06 217.12 162.86 218.26 163.68 219.39C163.53 219.65 163.43 219.94 163.21 220.13C159.18 217.61 156.01 212.68 155.02 208.03C154.74 206.7 154.68 205.69 155.31 204.45C158.12 207.78 158.62 212.47 161.23 216Z" fill="#FCF5DB"/>
<path d="M92.41 225.33L87.52 224.32C85.82 221.89 87.16 212.32 87.15 209.01L92.87 208.75C92.66 214.28 92.51 219.8 92.4 225.33H92.41Z" fill="#FCF5DB"/>
<path d="M449.6 89.4202C446.42 90.1302 443.16 91.0502 439.9 91.1902C439.73 88.6602 438.94 81.1802 437.14 79.3802C440.28 78.8402 443.47 78.4002 446.53 77.4802C447.51 81.4702 448.44 85.4702 449.6 89.4102V89.4202Z" fill="#9C9D6D"/>
<path d="M239.59 276.69C237.18 279.49 235.39 281.8 231.72 282.89C225.99 279.49 220.57 275 215.1 271.14C220.19 271.43 226.7 271.12 231.38 273.27L239.59 276.69Z" fill="#A2AAA4"/>
<path d="M83.15 205.23C82.96 206.04 82.9499 206.81 82.9399 207.64C81.4399 207.85 80.04 208.01 78.53 207.99C71.85 207.91 65.06 210.79 58.45 210.7C65.01 205.55 71.1899 201.96 78.6199 198.24C80.1999 198.05 81.3799 198.59 82.7999 198.53C84.1499 201.18 83.78 202.47 83.15 205.23Z" fill="#818370"/>
<path d="M168.16 207.27C169.51 210.33 170.91 215.52 169.6 218.78C169.25 219.64 168.92 219.75 168.21 220.3C167.77 220.28 167.18 220.31 166.75 220.21C162.65 216.52 157.74 209.27 157.4 203.58C157.32 202.26 157.55 201.69 158.31 200.64C159.15 200.36 159.91 200.09 160.78 199.94C164.7 201.46 166.45 203.41 168.14 207.26H168.16V207.27Z" fill="#FCF5DB"/>
<path d="M136.44 308.27C131.45 319.18 135.08 339.76 117.71 340.68H117.28C124.41 331.16 126.57 320.76 125.37 309.05C127.5 307.27 129.43 305.4 131.36 303.41C134 303.92 136.67 304.13 139.34 304.39C138.31 305.57 137.09 306.84 136.43 308.27H136.44Z" fill="#9C9D6D"/>
<path d="M208.98 239.47C198.78 242.14 189.25 245.09 181.06 252.08C174.43 257.74 172.4 262.76 163.54 265.98L162.7 266.41L162.32 265.74C164.74 257.31 172.83 247.39 180.53 243.11C187.15 239.43 193.82 237.22 201.44 237.49C202.46 237.53 202 237.54 203.08 237.38L208.98 239.48V239.47Z" fill="#A2AAA4"/>
<path d="M351.18 96.8202C350.16 91.6402 348.45 84.3502 347.02 79.2902L347.77 78.7202C349.43 78.7202 352.37 76.4802 354.38 75.9802C361.13 85.7302 367.95 96.2402 378.28 102.59C369.55 100.82 359.39 100.25 351.18 96.8202Z" fill="#5B5D4B"/>
<path d="M308.67 140.68C309.62 144.79 312.44 161.72 310.16 164.91C310.06 165.04 309.93 165.15 309.82 165.26C308.54 164.49 307.5 163.59 306.38 162.6C304.94 160.59 303.52 158.6 302.24 156.49C302.99 144.27 300.5 133.91 294.14 123.38C293.16 121.76 291.19 119.71 292.77 118.09C294.8 117.52 296.66 117.58 298.74 117.6C303.19 120.37 307.48 135.52 308.66 140.67L308.67 140.68Z" fill="#FCF5DB"/>
<path d="M136.24 240.07H136.58C136.53 238.88 136.41 237.63 136.53 236.44C136.64 235.34 136.74 235.31 137.54 234.63L138.56 234.99C140.79 240.15 142.32 245.62 144.61 250.71L144.36 249.91L144.79 250.66C144.86 250.46 144.92 250.26 144.99 250.06C145.25 249.38 145.42 249.12 145.93 248.64L146.47 248.84C147.36 254.03 147.43 259.38 148.17 264.61C148.72 259.08 146.42 248.56 148.94 243.94C150.66 249.22 149.05 266.58 149.06 273.23C149.06 278.11 149.55 282.99 149.36 287.87C149.3 289.58 149.27 292.3 148.44 293.78C148.11 294.37 148.07 294.36 147.66 294.76C146.53 294.67 146.22 294.45 145.4 293.57C144.44 292.54 144.71 290.45 144.71 289.13C144.97 282.09 144.1 274.92 144.28 267.82L143.75 268.02L144.15 266.27L143.72 271.17C143.03 267.97 138.74 256.72 138.9 254.82C140.29 246.16 131.95 236.92 129.98 229.36C133.01 231.99 134.03 233.97 135.25 237.66C135.46 238.58 135.82 239.24 136.24 240.09V240.07Z" fill="url(#paint0_linear_519_756)"/>
<path d="M193.59 299.2C178.05 303.1 148.97 304.22 132.96 301.77L136.1 297.24C140.81 296.67 145.5 296.01 150.25 295.98C157.83 295.66 176.33 295.88 182.27 291.63C184.79 293.42 192.08 296.99 193.6 299.19L193.59 299.2Z" fill="#FCF5DB"/>
<path d="M161.28 197.73L161.05 198.18L160.46 198.35C156.85 199.41 155.22 200.4 153.42 203.71C153.19 204.14 152.96 204.58 152.73 205.02C154.29 210.59 156.72 218.31 162.14 221.29C164.36 222.52 168.12 221.58 168.84 223.44C167.67 228.77 159.07 234.59 154.69 237.4C153.76 237.99 152.82 238.58 151.89 239.16C150.35 240.31 148.77 241.43 147.27 242.65C147.45 235.66 148.01 228.66 148.12 221.67C149.66 220.37 152.74 218.13 153.26 216.17C151.19 217.04 149.54 218.79 147.88 220.27C148.75 214.17 149.99 207.98 149.55 201.79C152.16 199.81 156.21 196.51 159.48 196.09L161.29 197.72H161.28V197.73Z" fill="#A2AAA4"/>
<path d="M263.53 47.4403C261.29 47.7203 259.04 47.9603 256.79 48.1603C256.82 50.0303 256.91 51.8203 257.07 53.4803C259.37 54.0003 261.63 54.5303 263.98 54.7903C264.18 52.3003 264.35 49.8003 264.51 47.3003C264.18 47.3403 263.86 47.3903 263.53 47.4303V47.4403Z" fill="#FCF5DB"/>
<path d="M190.66 414.1C183.16 417.86 168.81 415.45 160.37 415.34C161.59 415.02 161.94 415.01 162.8 414.12C163.21 412.36 162.86 411.33 161.94 409.84C160.41 407.36 156.85 403.64 153.93 402.94C161.56 402.53 169.26 403.17 176.9 403.19C184.21 403.2 191.51 402.61 198.81 402.73C197.17 407.61 195.56 411.63 190.65 414.09L190.66 414.1Z" fill="#9C9D6D"/>
<path d="M290.08 119.57C295.87 127.84 302.73 143.88 301.21 154.06C301.15 154.45 301.07 154.69 300.96 155.08L300.49 155.2L299.91 154.3L299.87 154.63C290.47 144.81 281.49 134.41 271.71 124.99L268.82 122.01C270.23 121.06 271.38 120.17 272.55 118.93C274.28 118.98 275.16 119.67 276.56 120.63C281.35 122.18 285.41 120.81 290.07 119.56H290.08V119.57Z" fill="#FCF5DB"/>
<path d="M176.88 285.7C182.44 290.43 189.67 293.23 194.75 297.52L194.48 298.7L194.31 299.46L193.58 299.19C192.06 296.99 184.77 293.42 182.25 291.63C176.32 295.88 157.81 295.66 150.23 295.98L150.56 293.99L150.38 291.41C150.21 288.14 149.99 285.05 150.97 281.88C151.53 282.19 151.74 282.08 152.36 282.04C153.6 279.54 154.95 276.88 157.73 275.82C161.77 274.29 165.82 276.76 169.35 278.5C171.02 281.84 174.18 283.34 176.88 285.69V285.7Z" fill="#444137"/>
<path d="M150.39 291.41C150.57 289.89 150.75 288.41 151.12 286.92C152.58 288.06 154.5 289.34 154.89 291.28C155.04 292.01 154.68 292.44 154.39 293.09C153.33 293.96 151.87 293.87 150.56 293.98L150.38 291.4L150.39 291.41Z" fill="#9C9D6D"/>
<path d="M176.88 285.7C175.43 285.78 175.21 285.61 173.92 284.91C169.73 284.94 157.03 283.7 153.52 282.35L152.37 282.05C153.61 279.55 154.96 276.89 157.74 275.83C161.78 274.3 165.83 276.77 169.36 278.51C171.03 281.85 174.19 283.35 176.89 285.7H176.88Z" fill="#FCF5DB"/>
<path d="M176.88 285.7C175.43 285.78 175.21 285.61 173.92 284.91C170.29 282.51 163.95 277.05 159.56 277.52C156.67 277.83 155.18 280.25 153.52 282.34L152.37 282.04C153.61 279.54 154.96 276.88 157.74 275.82C161.78 274.29 165.83 276.76 169.36 278.5C171.03 281.84 174.19 283.34 176.89 285.69L176.88 285.7Z" fill="#444137"/>
<path d="M98.9701 229.96C94.0801 230.97 88.7201 231.43 84.0001 232.99C77.6101 235.1 71.6401 238.38 65.1601 240.24C59.9401 241.73 54.4301 241.88 49.3201 243.68C44.0101 245.56 39.1701 248.75 34.3701 251.66C43.3001 241.71 58.8201 225.9 73.1601 225.12C74.8001 225.03 76.5201 225.22 78.1601 225.34C85.8401 225.84 91.8501 227.01 98.9901 229.96H98.9701Z" fill="#A2AAA4"/>
<path d="M237.88 258.73L237.49 259.4L235.54 259.37C225.32 251.94 201.74 252.03 190.23 256.22C181.41 259.43 182.07 262.91 171.1 263.55C173.93 260.41 177.01 257.46 179.98 254.46C189.88 245.29 197.57 244.32 209.52 239.74C215.9 242.1 234.85 252.47 237.88 258.74V258.73Z" fill="#A2AAA4"/>
<path d="M88.4199 242.22C83.7299 243.06 77.0999 241.22 72.8799 243.2C65.6399 245.22 60.8299 252.23 53.8199 254.92C44.5399 258.48 39.0399 254.31 28.8999 260.56C29.4999 259.46 30.1199 258.36 30.7599 257.28C36.6999 247.33 51.1099 244.01 61.4999 241.4C54.6999 245.85 48.9399 247.93 42.6699 253.64C46.7799 251.96 49.9099 248.54 53.8199 246.49C62.6999 241.84 76.1199 237.29 85.7899 233.92C97.4399 229.85 101.79 230.75 112.66 236C104.24 236.94 96.7099 240.72 88.4099 242.21H88.4199V242.22Z" fill="#A2AAA4"/>
<path d="M120.47 240.93C121.59 241.86 122.47 243.19 123.33 244.35C117.02 243.89 109.88 242.95 103.66 244.35C97.5601 245.71 91.4101 250.24 85.7901 252.98C81.0501 255.29 76.0301 257.18 71.4201 259.73C69.9001 260.56 68.4801 261.55 67.1701 262.68C64.4301 265.03 62.4401 267.63 60.8601 270.87C60.3101 273 59.6201 274.24 58.3101 275.99L58.1001 275.42C59.6601 266.88 60.1301 255.35 66.1201 248.47C67.8401 246.49 71.2501 245.65 72.6701 243.59C72.7501 243.47 72.8001 243.34 72.8701 243.21C77.0901 241.24 83.7201 243.08 88.4101 242.23C96.7101 240.73 104.24 236.96 112.66 236.02L114.46 236.62C115.22 238.59 118.77 239.54 120.47 240.94V240.93Z" fill="#818370"/>
<path d="M198.49 151.23C197.17 154.08 195.64 157.43 195.63 160.61C195.6 167.22 205.78 174.26 209.73 179.34C201.73 182.21 193.76 184.86 185.6 187.22C187.13 181.52 190.01 174.39 189.98 168.47C193.17 153.48 191.37 145.38 200.96 132.25C208.75 123.47 217.46 116.83 227.99 111.63C227.45 113.29 226.84 114.96 226.48 116.67C215.46 127.22 205.04 137.13 198.49 151.23Z" fill="#FCF5DB"/>
<path d="M439.9 91.1901C428.78 92.6001 417.46 95.0801 406.65 98.0601C400.62 99.7201 394.51 102.12 388.33 103.13C386.48 103.43 384.63 103.19 382.79 102.95C381.93 100.65 380.78 98.4601 379.69 96.2601C396.16 85.7001 418.27 83.2501 437.13 79.3701C438.93 81.1701 439.73 88.6501 439.89 91.1801H439.9V91.1901Z" fill="#FCF5DB"/>
<path d="M343.61 47.4803C341.56 40.0203 339.99 32.3503 338.71 24.5903C336.59 25.7503 334.45 26.8803 332.3 27.9703C335.17 45.4703 340.14 62.7803 347.77 78.7203C349.43 78.7103 352.37 76.4803 354.38 75.9803C349.86 66.7003 346.03 57.5503 343.62 47.4703H343.61V47.4803Z" fill="#FCF5DB"/>
<path d="M243.52 266.03L243.73 266.74C242.83 269.88 241.83 272.88 240.56 275.89C237.73 274.84 234.92 273.75 232.13 272.62C225.33 269.92 220.09 271.24 213.32 269.94C207.91 268.9 202.81 266.66 197.54 265.13C191.71 263.45 185.68 263.36 179.66 263.25C181.72 261.95 183.79 260.64 185.92 259.44C196.49 253.5 210.67 253.3 222.27 255.68C226.77 256.6 231.11 258.15 235.55 259.36C238.96 261.32 241.25 262.72 243.53 266.02L243.52 266.03Z" fill="#A2AAA4"/>
<path d="M161.94 409.84C162.86 411.33 163.2 412.35 162.8 414.12C161.94 415.01 161.59 415.02 160.37 415.34C149.34 415.35 108.38 417.83 100.97 413.67C96.93 411.41 95.67 406.9 94.48 402.75C114.28 403.85 134.13 402.14 153.94 402.95C156.86 403.64 160.42 407.37 161.95 409.85H161.94V409.84Z" fill="#FCF5DB"/>
<path d="M229.61 284.73C224.87 285.79 195.78 284.22 191.38 281.77C186.18 278.87 182.4 273.18 177.48 269.63L176.86 269.74L176.4 269.04L176.87 269.24H176.46C179.55 273.71 184.8 277.9 188.73 281.7C182.04 281.35 175.76 280.44 169.35 278.52C165.83 276.77 161.77 274.3 157.73 275.84C154.95 276.89 153.61 279.56 152.36 282.06C151.74 282.1 151.53 282.21 150.97 281.9C156.11 274.58 159.87 269.78 168.15 265.68L173.12 267.06C172.66 266.56 172.2 266.06 171.72 265.58C173.41 264.78 175.92 264.92 177.77 264.83C186.87 264.38 194.99 265.35 203.59 268.41C213.88 272.07 222.7 277.01 230.88 284.27C230.34 284.54 230.29 284.59 229.61 284.74V284.73Z" fill="#A2AAA4"/>
<path d="M323.18 91.5801C322.87 94.1101 324.08 96.7901 324.07 99.3501C324.05 104.9 316.43 113.17 313.29 117.56C308.54 116.6 303.51 116.38 298.68 115.83C296.04 110.64 293.23 105.6 291.1 100.17L293.78 94.3201C287.23 88.8001 277.49 78.3601 275.99 69.6401C285.51 73.6301 294.28 78.9101 303.64 83.1801C310.05 86.1001 316.96 87.9801 323.3 91.0101C323.26 91.2001 323.2 91.3901 323.18 91.5801Z" fill="#BCBC83"/>
<path d="M195.37 121.56C195.8 125.92 196.19 130.28 196.53 134.65C197.51 133.43 198.52 131.82 199.74 130.86L200.95 132.26C191.36 145.39 193.16 153.49 189.97 168.48C189.72 166.65 189.79 164.81 189.81 162.96C189.76 163.09 189.67 163.22 189.65 163.36C189.52 164.4 189.81 164.52 189.32 165.59L188.12 166.04C186.75 159.72 185.44 151.8 180.97 146.8C179.74 145.43 178.38 144.25 176.46 144.18C169.92 141.37 164.29 143.47 158.07 145.95L157.39 146.22C161.26 136.51 165.25 127.13 172 119.01C172.02 115.2 171.64 108.13 174.04 105.15C181.46 102.71 191.05 102.94 198.88 102.51C196.51 109.13 195.32 114.46 195.37 121.55V121.56Z" fill="#818370"/>
<path d="M195.37 121.56C195.8 125.92 196.19 130.28 196.53 134.65C197.51 133.43 198.52 131.82 199.74 130.86L200.95 132.26C191.36 145.39 193.16 153.49 189.97 168.48C189.72 166.65 189.79 164.81 189.81 162.96C189.76 163.09 189.67 163.22 189.65 163.36C189.52 164.4 189.81 164.52 189.32 165.59L188.12 166.04C189.86 160.37 190.26 154.07 191.35 148.24C192.46 142.28 194.25 136.36 194.54 130.29C194.66 127.85 194.24 125.35 193.91 122.94C193.16 120.53 193.6 116.42 193.99 113.97C194.59 110.26 195.72 104.84 198.88 102.53C196.51 109.15 195.32 114.48 195.37 121.57V121.56Z" fill="#565449"/>
<path d="M448.16 158.61C448.04 158.82 447.92 159.02 447.8 159.23C447.76 159.3 447.73 159.37 447.69 159.44C444.98 151.06 439.75 129.08 431.53 124.74C430.83 124.37 431.17 124.7 430.6 124.11C430.5 124.01 430.41 123.9 430.32 123.79C429.16 119 423.11 114.47 419.08 112.04C411 107.17 402.51 106.03 393.5 104.06C410.89 98.3803 428.53 95.1403 446.54 92.0703C451.08 108.77 456.98 143.27 448.16 158.62V158.61Z" fill="#BCBC85"/>
<path d="M248 106.96C249.02 107.79 249.93 108.87 250.8 109.86C251.4 112.51 251.37 114.77 251.01 117.45C250.41 121.96 249.15 126.08 246.73 129.97C239.55 141.48 216.12 159.99 202.84 162.68C201.01 163.05 199.41 163.07 197.82 161.96C197.26 160.67 197.4 159.6 197.74 158.27C201.46 143.48 223.75 117.7 237.51 109.9L234.97 109.21C236.82 107.42 238.2 105.15 239.67 103.04C240.3 104.09 239.93 105.42 240.76 105.87C242.07 105.31 242.34 105.03 243.77 105.37L244.53 106.36C245.84 106.18 246.9 106.05 248 106.96Z" fill="#8A8677"/>
<path d="M237.51 109.9L234.97 109.21C236.82 107.42 238.2 105.15 239.67 103.04C240.3 104.09 239.93 105.42 240.76 105.87C242.07 105.31 242.34 105.03 243.77 105.37L244.53 106.36C242.13 107.46 239.82 108.62 237.51 109.9Z" fill="#565449"/>
<path d="M186.89 172.87C186.82 177.84 185.89 182.8 183.9 187.37C177.9 192.28 170.35 196.01 162.66 197.01L158.88 194.52C155.87 196.38 152.81 198.17 149.72 199.89C151.04 186.21 151.81 171.68 154.72 158.26C155.41 154.29 155.95 149.99 157.4 146.24L158.08 145.97C164.3 143.49 169.93 141.39 176.47 144.2C184.15 152.03 187.05 161.96 186.89 172.88V172.87Z" fill="#A2AAA4"/>
<path d="M154.14 157.47C149.63 180.12 148.19 203.65 146.52 226.64C142.2 220.79 139.33 214.78 136.18 208.28C135.77 209.15 136.35 210.12 136.67 211.01C138.91 217.25 142.79 223.01 146.54 228.43C146.39 231.61 147.1 243.09 145.08 245.13C142.47 243.81 140.42 237.56 139.16 234.83C137.62 231.04 136.13 227.33 135.07 223.37C134.01 219.45 134.04 214.81 133.71 210.75C132.49 195.98 132.04 181.27 131.65 166.46C131.63 160.13 131.39 153.55 132.72 147.33C133.79 142.32 136.47 135.38 141.02 132.66C143.08 131.43 145.69 131.17 147.98 131.87C152.14 133.14 153.82 137.35 155.6 140.92C156.9 146.88 155.48 151.65 154.14 157.47Z" fill="#A2AAA4"/>
<path d="M286 382.63C275.24 383.56 209.4 390.86 203.25 388.97C203.03 388.9 202.83 388.77 202.62 388.67C207.5 378.87 210.43 370.15 211.8 359.26C220.35 361.18 229.51 361.45 238.2 362.81C247.87 364.32 257.31 366.27 266.88 368.28C271.2 369.19 275.67 369.76 279.93 370.9C284.57 372.14 289.12 373.75 293.73 375.1C299.51 376.8 305.42 377.8 310.86 380.5C306.38 382.17 291.78 382.14 285.99 382.64H286V382.63Z" fill="#FCF5DB"/>
<path d="M257 297.73C259.66 304.45 263.32 310.74 267.4 316.68C262.42 315.16 257.61 312.47 252.47 311.73C243.75 310.47 234.69 312.12 226.05 309.65C221.17 308.25 215.57 306.65 211.2 304.07C209.19 302.88 206.09 299.42 204.05 298.97C204.7 300.01 205.43 301.01 205.72 302.21C203.38 302.8 197.09 298.77 194.73 297.53C189.66 293.24 182.42 290.44 176.86 285.71C174.16 283.36 171.01 281.85 169.33 278.52C175.75 280.44 182.02 281.36 188.71 281.7C184.78 277.91 179.53 273.71 176.44 269.25H176.85L176.38 269.04L176.84 269.74L177.46 269.63C182.38 273.18 186.15 278.87 191.36 281.77C195.76 284.22 224.85 285.8 229.59 284.73C230.27 284.58 230.32 284.52 230.86 284.26C236.53 288.03 251.76 307.35 255.55 308.46C254.56 305.27 235.26 286.59 231.68 282.89C235.35 281.8 237.15 279.49 239.55 276.69L231.34 273.27L232.1 272.62C234.89 273.75 237.7 274.84 240.53 275.89C241.8 272.88 242.8 269.88 243.7 266.74C250.6 276 252.8 287.25 256.96 297.74H257V297.73Z" fill="#818370"/>
<path d="M293.78 94.3202L291.1 100.17C293.23 105.6 296.04 110.65 298.68 115.83C295.85 115.47 293.28 115.05 290.54 114.22C290.44 114.19 290.35 114.16 290.25 114.14C286.82 117.13 282.41 119.19 277.75 118.84C277.55 118.83 277.35 118.79 277.16 118.77L276.56 120.65C275.17 119.69 274.28 119 272.55 118.95C271.38 120.18 270.23 121.08 268.82 122.03L271.71 125.01L270.22 126.56C265.2 122.02 260.28 117.21 254.7 113.36L253.53 113.15C252.67 114.34 252.8 116.21 252.67 117.69L251.01 117.47C251.37 114.79 251.39 112.53 250.8 109.88C249.93 108.89 249.02 107.81 248 106.98C246.9 106.08 245.84 106.21 244.53 106.38L243.77 105.39C242.34 105.05 242.08 105.33 240.76 105.89C239.93 105.45 240.3 104.11 239.67 103.06C238.2 105.16 236.81 107.43 234.97 109.23C232.66 111.12 230.45 113.15 228.23 115.14C231.86 103.29 238.58 90.3102 248.35 82.3802C253.93 77.8502 269.09 68.9002 276 69.6702C277.5 78.3902 287.24 88.8302 293.79 94.3502V94.3202H293.78Z" fill="#FCF5DB"/>
<path d="M253.69 97.9203L254.34 96.9003C256.58 96.7003 270.33 84.1603 272.6 81.8203C268.74 89.3003 260.04 92.2403 257.52 100.37C255.97 99.9803 254.69 99.1603 253.7 97.9303H253.69V97.9203Z" fill="#565449"/>
<path d="M281.44 108.93C279.84 110.59 274.76 114.19 274.18 116.11C275.01 116.87 276.54 117.89 277.17 118.76L276.57 120.64C275.18 119.68 274.29 118.99 272.56 118.94C271.93 116.74 271.02 114.68 270.04 112.61C272.53 113.21 273.6 113.06 275.78 111.72C279.27 109.59 281.89 106.24 285.21 103.84C284.05 105.58 282.89 107.42 281.44 108.93Z" fill="#565449"/>
<path d="M254.34 96.9003L253.69 97.9203C254.68 99.1503 255.97 99.9703 257.51 100.36C259.02 102.26 260.52 103.82 262.33 105.43C268.39 102.18 272.54 97.8903 277.17 92.8603C273.91 98.6503 269.48 102.73 264.45 106.99C266.02 109.53 267.39 111.17 270.03 112.6C271.01 114.67 271.91 116.73 272.55 118.93C271.38 120.16 270.23 121.06 268.82 122.01L271.71 124.99L270.22 126.54C265.2 122 260.28 117.19 254.7 113.34L253.53 113.13C252.67 114.32 252.8 116.19 252.67 117.67L251.01 117.45C251.37 114.77 251.39 112.51 250.8 109.86C249.93 108.87 249.02 107.79 248 106.96C246.9 106.06 245.84 106.19 244.53 106.36L243.77 105.37C242.34 105.03 242.08 105.31 240.76 105.87C239.93 105.43 240.3 104.09 239.67 103.04C243.01 95.0803 257.89 81.9403 264.91 77.1003L265.11 77.2703C259.86 83.5603 253.04 88.0403 247.96 94.6203L254.33 96.9003H254.34Z" fill="#5B5D4B"/>
<path d="M253.53 113.14C252.67 114.33 252.8 116.2 252.67 117.68L251.01 117.46C251.37 114.78 251.39 112.52 250.8 109.87L251.52 109.04C253.08 109.33 254.41 110.38 255.26 111.69C255.43 111.95 255.59 112.22 255.75 112.48C255.31 113.27 255.64 112.95 254.7 113.35L253.53 113.14Z" fill="#565449"/>
<path d="M248.34 48.7903C241.95 49.1603 235.54 49.3103 229.13 49.3603C229.01 56.9703 229.26 64.5903 228.96 72.2103C228.68 79.5303 228.27 86.9403 227.55 94.2303C227.09 98.8803 226.1 103.79 226.21 108.46C226.23 109.09 226.35 109.64 226.48 110.25L227.18 110.31C229.64 107.69 230.67 103.71 232.24 100.52C236.69 91.4403 243.37 82.7903 251.96 77.3603C248.34 67.3003 246.43 58.4803 248.33 48.7903H248.34Z" fill="#FCF5DB"/>
<path d="M254.93 51.6803C254.89 50.6103 254.88 49.4903 254.88 48.3203C253.17 48.4603 251.45 48.5903 249.73 48.7003C249.25 58.2703 250.36 67.0503 253.45 76.6703C254.96 75.8103 256.51 75.0003 257.87 73.9203C256.42 66.5603 255.2 59.1803 254.94 51.6603V51.6803H254.93Z" fill="#FCF5DB"/>
<path d="M154.81 64.3201C154.9 64.2201 154.99 64.1201 155.07 64.0201L155.42 64.2501L155.68 64.0101L155.71 64.3101C153.89 65.8001 152.08 67.3201 150.3 68.8601C148.74 70.2401 147.31 71.6701 146.27 73.4901C142.8 79.5201 139.05 93.0401 138.65 99.9101C138.57 101.21 138.49 102.2 137.99 103.41C134.48 112.01 134.36 122.91 133.4 132.09C137.12 128.72 140.57 125.05 144.32 121.71C151.96 114.91 159.72 110.36 162.86 99.9801C165.14 92.4201 166.01 84.4601 168.09 76.8301C170.43 81.1601 171.37 85.0001 171.31 89.9001C172.06 94.0001 169.96 102.01 172.17 105.05L172.78 105.38L174.04 105.15C171.63 108.12 172.02 115.19 172 119.01C165.25 127.13 161.26 136.51 157.39 146.22C155.95 149.98 155.41 154.28 154.71 158.24L154.13 157.45C155.47 151.63 156.9 146.86 155.59 140.9C153.82 137.33 152.13 133.12 147.97 131.85C145.68 131.15 143.07 131.4 141.01 132.64C136.45 135.37 133.78 142.3 132.71 147.31C131.38 153.53 131.62 160.11 131.64 166.44C132.02 181.25 132.47 195.96 133.7 210.73C134.04 214.79 134 219.42 135.06 223.35C136.13 227.31 137.61 231.02 139.15 234.81L138.55 234.98L137.53 234.62C136.72 235.3 136.63 235.33 136.52 236.43C136.4 237.62 136.52 238.87 136.57 240.07H136.23C135.81 239.22 135.44 238.56 135.24 237.64C134.02 233.95 133 231.97 129.97 229.34C129.87 228.68 129.41 227.93 129.13 227.31C125.8 220.85 123.39 213.31 119.34 207.31C118.12 204.88 116.02 201.58 115.57 198.91C116.5 199.92 117.22 200.81 117.93 201.98C117.93 196.26 115.75 190.54 115.35 184.8C115.05 180.57 115.97 176.29 116.03 172.05C116.18 161.85 111.86 152.08 107.65 143.01C108.21 141.92 108.16 141.77 109.27 141.31C109.87 141.48 109.93 141.46 110.53 141.84C117.1 145.93 126.27 177.81 127.35 185.75C128.13 191.45 127.82 197.11 128.07 202.84C128.29 207.72 129.15 212.45 130.11 217.23C130.58 213.53 129.21 208.62 129.08 204.72C128.88 198.75 129.24 192.7 128.62 186.75C127.33 174.26 121.74 159.21 116.11 147.97C113.51 142.77 108.56 139.42 108.71 133.13C108.71 132.95 108.72 132.77 108.73 132.6C111.79 135.75 115.76 139.89 119.58 142.02C121.46 143.07 123.55 143.76 125.68 143.09C129.23 141.98 130.53 138.77 132.17 135.75C131.81 128.09 135.2 112.21 136.51 103.76C133.07 97.4201 130.99 90.4801 129.62 83.4401C132.03 86.8801 134.27 97.3801 136.6 102.07L136.89 102.64C137.68 95.8101 147.31 60.4701 152.08 56.3901L151.67 57.8501L151.51 57.4001L151.88 57.8501C150.26 59.5001 147.97 67.7501 147 70.3901C149.5 68.4401 152.64 66.5801 154.82 64.3201H154.81Z" fill="#818370"/>
<path d="M172 119.02C165.25 127.14 161.26 136.52 157.39 146.23C155.95 149.99 155.41 154.29 154.71 158.25L154.13 157.46C155.47 151.64 156.9 146.87 155.59 140.91C156.89 134.6 155.64 128.5 157.62 122.09L158.21 122.13C158.37 123.21 158.4 122.84 158.25 123.79C157.29 129.9 157.11 135.75 158 141.88C161.66 133.92 165.07 126.13 170.7 119.32C171.08 115.61 171.62 111.85 171.57 108.12L170.38 107.8L170.63 106.9C171.39 106.49 172.08 105.89 172.77 105.38L174.03 105.15C171.62 108.12 172.01 115.19 171.99 119.01L172 119.02Z" fill="#5B5D4B"/>
<path d="M131.33 227.9C131.14 225.41 130.75 222.74 130.8 220.25C131.25 219.48 131.55 218.96 132.22 218.36C132.95 220.03 132.71 222.45 133.17 224.33L135.08 223.36C136.15 227.32 137.63 231.03 139.17 234.82L138.57 234.99L137.55 234.63C136.74 235.31 136.65 235.34 136.54 236.44C136.42 237.63 136.54 238.88 136.59 240.08H136.25C135.83 239.23 135.46 238.57 135.26 237.65C134.04 233.96 133.02 231.98 129.99 229.35C129.89 228.69 129.43 227.94 129.15 227.32C125.82 220.86 123.41 213.32 119.36 207.32C118.14 204.89 116.04 201.59 115.59 198.92C116.52 199.93 117.24 200.82 117.95 201.99C123.77 209.81 126.32 219.54 131.35 227.91H131.33V227.9Z" fill="#444137"/>
<path d="M139.16 234.82L138.56 234.99L137.54 234.63C136.73 235.31 136.64 235.34 136.53 236.44C136.41 237.63 136.53 238.88 136.58 240.08H136.24C135.82 239.23 135.45 238.57 135.25 237.65C136.12 235.3 134.09 226.85 133.16 224.34L135.07 223.37C136.14 227.33 137.62 231.04 139.16 234.83V234.82Z" fill="#5B5D4B"/>
<path d="M133.7 210.75C134.04 214.81 134 219.44 135.06 223.37L133.15 224.34C132.69 222.46 132.93 220.04 132.2 218.37C131.53 218.97 131.23 219.49 130.78 220.26C131.53 215.3 130.68 209.43 130.39 204.38C129.53 189.4 128.23 176.41 130.79 161.38C131.12 163.06 131.37 164.76 131.64 166.46C132.02 181.27 132.47 195.98 133.7 210.75Z" fill="#565449"/>
<path d="M340.95 68.0503C342.67 71.7803 345.18 75.0903 346.83 78.8503C346.89 78.9903 346.95 79.1403 347.02 79.2803C348.45 84.3303 350.16 91.6303 351.18 96.8103C347.42 95.8903 343.77 94.6003 340.06 93.5203C329.69 90.5203 319.66 87.6203 309.64 83.5203C303.95 81.1903 298.31 78.4703 292.86 75.6203C288.29 73.2303 283.59 70.2803 278.67 68.6803C276.86 68.0903 274.9 67.9203 273.02 67.7003C270.45 68.8703 268.01 70.4003 265.37 71.4303C263.47 72.1703 261.73 72.7803 259.76 71.9103C256.95 68.8603 257.07 59.3003 256.81 55.1203C263.17 56.7603 269.39 58.1303 276 57.7803C288.5 57.1103 319.69 44.8603 332.91 40.0903C334.94 49.2403 337.02 59.5003 340.95 68.0303V68.0503Z" fill="#FCF5DB"/>
<path d="M358.66 146.14C361.54 153.43 362.75 171.68 359.66 179.07C358.1 182.81 355.1 185.4 351.34 186.79C344.75 189.21 331.5 190.38 324.58 189.39C323.63 175.91 317.79 176.83 311.44 167.42C311.35 167.28 311.26 167.14 311.17 167.01C315.43 150.56 309.14 132.44 301.68 117.9C305.32 118.07 308.89 118.18 312.38 119.37C319.74 121.87 326.68 127.12 333.27 131.23C339.51 135.15 345.84 138.91 352.26 142.51C354.37 143.67 356.73 144.73 358.66 146.15V146.14Z" fill="#FCF5DB"/>
<path d="M157.3 62.0503L156.52 63.2003C157.3 63.1203 157.03 63.1703 157.73 63.0403L158.18 62.9503C162.14 66.3203 165.8 72.2203 168.1 76.8503C166.03 84.4803 165.16 92.4403 162.87 100C159.73 110.38 151.97 114.93 144.33 121.73C140.58 125.07 137.13 128.75 133.41 132.11C134.37 122.93 134.48 112.03 138 103.43C138.49 102.22 138.58 101.23 138.66 99.9303C139.06 93.0503 142.81 79.5403 146.28 73.5103C147.33 71.6903 148.75 70.2603 150.31 68.8803C152.09 67.3403 153.9 65.8203 155.72 64.3303L155.69 64.0303L155.43 64.2703L155.08 64.0403C154.99 64.1403 154.91 64.2503 154.82 64.3403C152.64 66.5903 149.51 68.4603 147 70.4103C147.98 67.7703 150.26 59.5203 151.88 57.8703L151.51 57.4203L151.67 57.8703L152.08 56.4103C147.31 60.4903 137.68 95.8303 136.89 102.66L136.6 102.09C134.27 97.4003 132.03 86.9003 129.62 83.4603C130.98 90.5103 133.07 97.4403 136.51 103.78C135.2 112.23 131.82 128.11 132.17 135.77C130.53 138.79 129.23 142 125.68 143.11C123.55 143.78 121.46 143.09 119.58 142.04C115.75 139.9 111.79 135.77 108.73 132.62C109.41 110.8 116.08 88.4503 131 72.0803C138.49 63.8603 146.21 56.6703 152.06 47.0803C153.08 52.9803 154.78 56.7303 157.31 62.0803V62.0503H157.3Z" fill="#A2AAA4"/>
<path d="M320.04 33.4801C310.72 37.0401 301 39.4202 291.33 41.8302C282.95 43.9202 274.66 45.8602 266.12 47.0802C265.98 49.7702 265.85 52.4502 265.74 55.1102C270.7 55.6302 275.48 56.0402 280.43 55.3102C288.55 54.1102 296.82 50.5802 304.58 47.9402C313.86 44.7902 323.26 41.9302 332.33 38.2202C331.6 35.1402 330.97 32.0301 330.42 28.9001C327.03 30.5601 323.59 32.1201 320.04 33.4801Z" fill="#FCF5DB"/>
<path d="M206.08 303.44C206.85 306.47 207.53 309.52 208.12 312.59C208.71 315.66 209.21 318.74 209.61 321.84C210.02 324.94 210.33 328.05 210.56 331.16C210.79 334.27 210.92 337.4 210.95 340.52C210.99 345.53 210.42 350.66 210.58 355.63C208.8 372.05 204.03 388.94 191.21 400.3C185.06 401.29 153.31 401.85 148.33 400.71C153.02 394.95 157.23 388.35 160.24 381.56C170.57 358.26 171.42 327.95 162.14 304.17C169.92 303.51 177.7 303.61 185.45 302.59C188.63 302.17 192.26 302.17 194.32 299.47L194.49 298.71C198.31 300.51 202.01 302.24 206.09 303.44H206.08Z" fill="#9C9D6D"/>
<path d="M330.26 418.27C328.81 419.31 327.28 420.36 325.68 421.16C324.84 420.59 324.02 420.38 323.03 420.26C318.05 419.63 312.66 419.82 307.63 419.65L277.43 418.69C248.55 417.74 219.75 416.28 190.84 416.39C191.62 415.87 192.37 415.32 193.11 414.74C195.82 412.55 199.98 408.15 200.07 404.47C200.1 403.39 199.71 402.38 198.9 401.66C197.71 400.61 195.12 400.84 193.59 400.8C197.28 397.13 199.87 393.04 202.64 388.67C202.85 388.77 203.05 388.9 203.27 388.97C209.42 390.87 275.25 383.56 286.02 382.63C291.81 382.13 306.42 382.16 310.89 380.49C320.49 384.84 335.16 391.11 339.17 401.71C339.29 402.03 339.4 402.35 339.51 402.67C338.43 409.17 335.78 414.33 330.27 418.27H330.26Z" fill="#D4CD9E"/>
<path d="M116.03 172.06C115.97 176.3 115.05 180.58 115.35 184.81C115.76 190.55 117.95 196.27 117.93 201.99C117.22 200.82 116.5 199.92 115.57 198.92C116.02 201.58 118.12 204.88 119.34 207.32C116.92 208.19 100.67 202.75 97.08 201.7C89.36 197.86 81.95 191.34 75.08 186.14C55.15 171.36 46.21 160.6 48.67 134.82C49.35 127.74 50.59 120.31 49.33 113.24C48.49 108.52 46.59 104.2 44.78 99.8003C54.02 102.21 63.66 105.32 72.59 108.69C88.64 114.75 100.62 127.54 107.64 143.04C111.85 152.11 116.17 161.88 116.02 172.08V172.06H116.03Z" fill="#A2AAA4"/>
<path d="M366.47 102.17C382.46 105.28 399.78 105 414.8 111.79C420.92 114.56 425.39 119.39 430.33 123.78C430.42 123.89 430.51 124 430.61 124.1C431.19 124.69 430.84 124.36 431.54 124.73C439.76 129.07 444.98 151.05 447.7 159.43C444.49 163.84 439.37 165.84 434.13 166.67C426.68 167.86 416.96 167.23 409.82 164.8C407.84 164.2 405.89 163.74 403.85 163.37C398.92 160.98 393.22 160.26 388.17 158.08C378.92 154.09 370.18 149.06 361.06 144.81L358.66 146.14C356.73 144.72 354.37 143.65 352.26 142.5L353.59 140.69C340.07 133.31 327.47 123.67 313.29 117.56C316.44 113.17 324.06 104.9 324.07 99.3503C324.07 96.7903 322.87 94.1203 323.18 91.5803C323.2 91.3903 323.26 91.2003 323.3 91.0103C337.56 95.2003 351.87 99.3303 366.47 102.17Z" fill="#FCF5DB"/>
<path d="M358.66 146.14C356.73 144.72 354.37 143.65 352.26 142.5L353.59 140.69C356.25 141.83 358.61 143.27 361.05 144.81L358.65 146.14H358.66Z" fill="#565449"/>
<path d="M303.86 449.44C251.85 473.33 184.95 482.33 127.98 486.78C103.06 488.73 77.91 490.09 52.92 489.81L19.91 489.32C13.51 489.17 6.35 488.31 0 489.1C1.29 483.77 0.53 476.75 0.56 471.26C37.79 471.69 75.08 472.05 112.28 470.12C124.86 469.48 137.42 468.54 149.95 467.3C162.49 466.06 174.98 464.52 187.44 462.68C199.9 460.84 212.31 458.7 224.67 456.27C237.03 453.83 249.32 451.1 261.55 448.08C281.74 442.96 318.36 432.71 333.17 418.07C336.1 415.18 338.42 411.49 340.51 407.96C342.29 411.95 341.3 416.88 339.81 420.81C338.75 423.6 337.26 425.95 335.73 428.49C327.71 437.88 314.99 444.34 303.88 449.44H303.86Z" fill="#D4CD9E"/>
<path d="M75.08 186.13C81.95 191.33 89.36 197.85 97.08 201.69C100.67 202.74 116.92 208.18 119.34 207.31C123.39 213.32 125.81 220.85 129.13 227.31C129.41 227.93 129.86 228.68 129.97 229.34C131.94 236.9 140.28 246.14 138.89 254.8C138.72 256.7 143.01 267.95 143.71 271.15L144.14 266.25L143.74 268L144.27 267.8C144.09 274.91 144.96 282.07 144.7 289.11L143.15 289.59L142.26 287.04C141.72 289.43 142.96 291.7 142.21 294.04C141.03 294.85 140.54 294.77 139.14 294.87C138.18 292.93 140.1 290.43 138.82 287.81C135.33 295.75 130.61 303.23 123.79 308.78C123.85 309.24 123.91 309.69 123.96 310.15C125.45 323.3 120.8 333.56 112.85 343.69C110.51 338.56 106.62 334.53 104.15 329.53C101.64 324.45 100.95 318.63 98.72 313.42C96.08 307.27 91.39 302.19 87.79 296.6C84.35 291.26 81.79 284.91 83.33 278.49C85.1 271.11 91.58 265.86 97.75 262.08L97.02 261.19C93.29 263.15 89.97 266.15 86.67 268.75C86.86 267.49 87.05 266.23 87.29 264.98C87.49 263.93 87.66 263.14 88.42 262.33C91.09 259.49 97.03 257.59 100.5 255.57C103.43 253.87 106.24 251.91 109.05 250.01L109.21 248.01C102.54 252.57 96.09 256.79 88.67 260.1C79.85 264.03 70.35 266.95 62.07 271.97L61.39 271.5L60.85 270.85C62.43 267.61 64.42 265.01 67.16 262.66C68.47 261.53 69.89 260.54 71.41 259.71C76.02 257.16 81.04 255.27 85.78 252.96C91.4 250.22 97.56 245.69 103.65 244.33C109.87 242.94 117.01 243.89 123.32 244.34C122.46 243.17 121.58 241.84 120.46 240.92C118.76 239.52 115.21 238.57 114.45 236.6C115.82 237.08 117.32 237.46 118.53 238.28L119.19 237.64C111.18 232.97 102.63 229.45 94.15 225.75C94.09 220.07 94.26 214.36 94.33 208.68L93.73 207.42C90.13 207.55 86.51 207.48 82.92 207.63C82.92 206.8 82.95 206.03 83.13 205.22C83.76 202.45 84.13 201.17 82.78 198.52C81.36 198.58 80.17 198.04 78.6 198.23C71.17 201.95 64.99 205.54 58.43 210.69C50.72 210.98 39.96 203.72 33.71 199.53C32.6 198.79 31.78 198.43 31.5 197.11C32.98 195.23 35.15 194.19 37.11 192.88C45.74 187.12 50.5 184.83 60.43 181.72C65.4 181.09 67 182.25 70.85 185.23L72.22 186.3L75.06 186.12H75.08V186.13Z" fill="#565449"/>
<path d="M89.1801 200.31C87.4001 200.2 85.6501 198.94 84.1101 198.09C85.0001 197.72 85.3501 197.26 85.9401 196.52C87.3801 197.55 88.7801 198.58 90.1301 199.72L89.1801 200.31Z" fill="#5B5D4B"/>
<path d="M98.06 206.86C96.69 207.59 95.25 207.43 93.74 207.43C90.14 207.56 86.52 207.49 82.93 207.64C82.93 206.81 82.96 206.04 83.14 205.23C83.77 202.46 84.14 201.18 82.79 198.53C86.81 200.46 90.77 202.84 94.88 204.53C96.08 205.2 97.43 205.61 98.06 206.85V206.86Z" fill="#818370"/>
<path d="M141.62 267.16C142.25 269.78 143.56 275.22 142.67 277.72C141.94 276.99 141.88 275.49 141.7 274.47C140.76 266.39 136.7 254.86 130.51 249.23C128.43 247.34 125.65 246.64 123.6 244.64C123.51 244.55 123.42 244.46 123.33 244.36C122.47 243.19 121.59 241.86 120.47 240.94C118.77 239.54 115.22 238.59 114.46 236.62C115.83 237.1 117.33 237.48 118.54 238.3C129.49 244.93 138.52 254.43 141.62 267.17V267.16Z" fill="#797A5E"/>
<path d="M85.9299 196.52C85.3399 197.26 84.9899 197.73 84.0999 198.09C82.4799 197.34 80.9499 196.56 79.1799 196.21C78.4999 192.39 63.9899 184.75 60.4399 181.72C65.4099 181.09 67.0099 182.25 70.8599 185.23L72.2299 186.3C76.6699 189.88 81.2299 193.28 85.9299 196.51V196.52Z" fill="#818370"/>
<path d="M129.14 227.32L128.93 227.49L128.38 227.27C121.02 217.59 101.83 209.17 97.0801 201.7C100.67 202.75 116.92 208.19 119.34 207.32C123.39 213.33 125.81 220.86 129.13 227.32H129.14Z" fill="#5B5D4B"/>
<path d="M118.71 255.52C111.22 255.81 103.9 258.4 97.0299 261.21C93.2999 263.17 89.9799 266.17 86.6799 268.77C86.8699 267.51 87.0599 266.25 87.2999 265C87.4999 263.95 87.6699 263.16 88.4299 262.35C91.0999 259.51 97.0399 257.61 100.51 255.59C103.44 253.89 106.25 251.93 109.06 250.03C113.43 247.28 117 245.93 122.31 247.04C127.66 248.16 131.34 251.6 134.18 256.1C135.6 258.35 136.79 260.86 137.75 263.33C132.12 258.16 126.56 255.2 118.7 255.51H118.71V255.52Z" fill="#FCF5DB"/>
<path d="M109.23 248.04C102.56 252.6 96.1099 256.82 88.6899 260.13C79.8699 264.06 70.3699 266.98 62.0899 272L61.4099 271.53C62.8499 268.64 64.5099 266.32 66.9599 264.19C72.6499 259.26 79.9799 257.08 86.6199 253.78C92.0699 251.08 97.2599 247.49 103.14 245.8C106.35 244.88 109.25 244.99 112.52 245.26C111.31 246.13 110.25 246.96 109.23 248.05V248.04Z" fill="#818370"/>
<path d="M133.87 240.85C135.6 245.21 137.28 249.57 138.15 254.2C130.88 246.75 128.81 243.05 119.2 237.65C111.19 232.98 102.64 229.46 94.1601 225.76C94.1001 220.08 94.2701 214.37 94.3401 208.69L100.38 208.4C115.12 219.61 126.47 222.25 133.86 240.84H133.87V240.85Z" fill="#FCF5DB"/>
<path d="M79.19 196.22C74.16 196.59 69.86 194.62 65.03 193.64C56.65 191.94 46.43 194.07 38.28 196.11C38.45 196.11 38.62 196.13 38.79 196.13C43.27 196.24 47.91 195.14 52.35 194.53C60.57 193.4 71.08 194.75 78.62 198.24C71.19 201.96 65.01 205.55 58.45 210.7C50.74 210.99 39.98 203.73 33.73 199.54C32.62 198.8 31.8 198.44 31.52 197.12C33 195.24 35.17 194.2 37.13 192.89C45.76 187.13 50.52 184.84 60.45 181.73C64 184.76 78.51 192.4 79.19 196.22Z" fill="#A2AAA4"/>
<path d="M110.6 266.9C104.05 267.62 90.65 271.31 86.89 277.21C86.61 277.65 86.62 277.71 86.5 278.14L86.93 278.71C88.85 277.28 90.49 275.5 92.42 274.08C97.51 270.35 103.86 269.08 109.96 268.05C103.51 282.8 102.66 298.52 108.66 313.7C109.19 315.01 109.75 316.31 110.35 317.59C108.22 307.58 105.83 299.08 106.04 288.73C110.23 295.44 114.58 301.82 119.47 308.04C115.92 300.27 110.07 294.22 106.04 286.79C108.01 274.26 111.41 265.27 121.84 257.52C121.98 257.42 122.12 257.33 122.25 257.23C128.26 258.95 134.5 260.23 137.84 266.14C139.24 268.61 139.8 271.44 140.39 274.19C140.78 279.22 139.18 283.03 138.81 287.84C135.32 295.78 130.6 303.26 123.78 308.81C123.84 309.27 123.9 309.72 123.95 310.18C125.44 323.33 120.79 333.59 112.84 343.72C110.5 338.59 106.61 334.56 104.14 329.56C101.63 324.48 100.94 318.66 98.71 313.45C96.07 307.3 91.38 302.22 87.78 296.63C84.34 291.29 81.78 284.94 83.32 278.52C85.09 271.14 91.57 265.89 97.74 262.11C105.2 259.74 112.61 257.13 120.51 256.73C116.83 259.94 113.52 263.01 110.58 266.91H110.6V266.9Z" fill="#A2AAA4"/>
<path d="M117.71 340.67C135.08 339.75 131.45 319.17 136.44 308.26C137.09 306.83 138.32 305.55 139.35 304.38C147.01 304.34 154.47 304.63 162.15 304.16C171.42 327.94 170.58 358.25 160.25 381.55C157.24 388.34 153.03 394.94 148.34 400.7C146.75 401.93 104.84 401.35 99.5199 401.13C96.7299 395.97 92.5299 391.68 89.7099 386.51C73.0499 355.89 76.7899 329.87 86.1699 297.9C88.3099 299.9 89.8099 302.38 91.4399 304.8C93.6299 308.04 96.0199 311.35 97.5599 314.95C99.8499 320.34 101.1 326.17 103.38 331.62C104.76 334.93 107.53 336.87 109.13 339.89C110.45 342.37 110.57 345.35 112.15 347.71C114.31 346.65 114.87 342.93 116.68 341.21C116.87 341.02 117.08 340.85 117.28 340.67H117.71Z" fill="#FCF5DB"/>
<path d="M270.23 126.55C274.82 130.61 278.8 135.43 282.99 139.89L304.1 161.98C307.96 166.08 311.41 170.43 315.43 174.4C313.23 178.88 311.57 183.47 309.03 187.81C298.36 206.09 279.37 225.67 258.37 231.21C255.92 229.04 229.68 202.26 229 201.07C227.4 198.27 227.32 193.96 225.97 190.83C225.17 188.98 223.62 186.79 221.68 186.06L221.47 186.44C222.84 190.67 225.55 194.21 227.26 198.3C227.33 198.47 227.4 198.65 227.47 198.82C208.82 197.35 193.63 196.71 177.08 206.92C176.48 207.29 175.91 207.67 175.26 207.96C173.89 208.58 173.58 208.23 172.25 207.76L171.65 208.05C172.03 209.04 171.78 208.75 172.52 209.42C172.68 209.57 172.86 209.7 173.03 209.85C172.39 210.77 172.5 210.61 171.57 210.98C169.1 208.05 169.08 203.77 165.94 201.1C165.26 200.52 164.62 199.9 163.96 199.29L164.18 198.72C165.12 198.5 165.79 198.25 166.75 198.5C167.62 198.72 168.28 200.25 168.76 201L168.3 199.01C168.86 197.14 172.85 195.75 174.55 194.93C178.26 193.13 181.73 190.89 185.6 189.43C189.88 187.82 209.41 182.48 211.43 180.44C211.77 176.05 201.36 168.25 198.49 164.6C208.56 163.18 217.62 159.13 225.79 153.07C237.35 144.49 250.49 132.58 252.67 117.67C252.8 116.19 252.67 114.33 253.53 113.13L254.7 113.34C260.28 117.19 265.2 122 270.22 126.54L270.23 126.55Z" fill="#E0DAC6"/>
<path d="M322.1 184.69C324.25 192.67 319.85 200.72 316.02 207.4C309.35 214.95 303.8 223.32 295.45 229.25C291.61 231.97 287 233.72 283.27 236.45L275.29 240.18C277.64 239.97 279.98 239.75 282.32 239.52C279.41 273.57 278.39 307.75 275.41 341.8C274.67 350.23 275.29 358.84 273.75 367.19C261.08 364.48 248.34 362.19 235.53 360.31C229.24 359.39 222.74 359.03 216.52 357.85C214.97 357.56 213.59 357.2 212.21 356.42L210.58 355.62C210.42 350.65 210.99 345.52 210.95 340.51C210.91 337.39 210.78 334.26 210.56 331.15C210.34 328.04 210.02 324.93 209.61 321.83C209.2 318.73 208.7 315.65 208.12 312.58C207.53 309.51 206.85 306.46 206.08 303.43C202.01 302.23 198.31 300.51 194.48 298.7L194.75 297.52C197.11 298.76 203.39 302.79 205.74 302.2C205.45 301 204.71 300 204.07 298.96C206.11 299.41 209.2 302.87 211.22 304.06C215.59 306.64 221.18 308.25 226.07 309.64C234.71 312.11 243.76 310.46 252.49 311.72C257.63 312.46 262.44 315.15 267.42 316.67C263.34 310.73 259.68 304.43 257.02 297.72C252.86 287.24 250.66 275.98 243.76 266.72L243.55 266.01L244.9 265.58C236.86 252.19 223.27 242.55 208.55 237.79C199.64 234.91 190.82 235.7 182.49 239.98C171.29 245.74 163.66 256.38 159.93 268.22C156.37 271.33 153.73 275.29 150.66 278.87C150.54 274.15 150.9 269.42 150.89 264.7C150.87 256.91 150.38 249.09 151.36 241.34C154.81 239.29 158.33 237.27 161.49 234.77C168.5 229.23 170.99 222.49 172.01 213.93C172.98 212.94 173.88 211.87 174.8 210.84C175.4 210.17 175.96 209.59 176.67 209.04C187.01 201.1 198.89 200.05 211.37 199.72C216.22 199.59 220.93 199.43 225.77 199.97C234.51 208.88 243.03 218.17 251.65 227.22C255.42 231.18 259.07 235.68 263.35 239.08C264.77 240.21 266.51 241.39 268.37 241.58C270.82 241.83 274.58 242.01 276.55 240.4L276.6 239.78L276.08 239.18C274.22 239.64 272.23 240.5 270.29 240.3C265.39 239.8 261.77 235.76 258.74 232.28C265.9 230.76 271.91 227.63 277.93 223.54C293.89 212.72 311.97 194.38 315.76 174.75C318.52 177.79 321.04 180.61 322.14 184.69H322.1Z" fill="#FCF5DB"/>
<path d="M250.51 313.16C245.33 312.34 239.9 312.44 234.67 312.14C225.4 311.6 216.48 308.78 208.16 304.78C212.56 321.26 213.61 339.47 212.21 356.43L210.58 355.63C210.42 350.66 210.99 345.53 210.95 340.52C210.91 337.4 210.78 334.27 210.56 331.16C210.34 328.05 210.02 324.94 209.61 321.84C209.2 318.74 208.7 315.66 208.12 312.59C207.53 309.52 206.85 306.47 206.08 303.44C202.01 302.24 198.31 300.52 194.48 298.71L194.75 297.53C197.11 298.77 203.39 302.8 205.74 302.21C205.45 301.01 204.71 300.01 204.07 298.97C206.11 299.42 209.2 302.88 211.22 304.07C215.59 306.65 221.18 308.26 226.07 309.65C234.71 312.12 243.76 310.47 252.49 311.73C257.63 312.47 262.44 315.16 267.42 316.68C263.34 310.74 259.68 304.44 257.02 297.73C252.86 287.25 250.66 275.99 243.76 266.73L243.55 266.02L244.9 265.59C253.16 277.18 254.75 289.75 260.52 302.15C263.27 308.06 267.76 312.87 270.32 318.98C263.81 317.1 257.22 314.21 250.54 313.15H250.51V313.16Z" fill="#565449"/>
<path d="M420.46 2.30026C403.35 1.26026 385.65 2.03025 369.67 8.54025C358.87 12.9403 348.93 19.0203 338.72 24.5903C340 32.3503 341.57 40.0203 343.62 47.4803C344.46 45.7503 343.74 43.2603 343.74 41.2803V40.8503C348.62 59.4003 354.36 76.3503 367.63 90.7803C370.33 93.7103 373.44 97.2103 376.88 99.2903C377.82 99.8603 378.82 100.33 379.81 100.79C375.33 92.6103 372.66 83.6703 368.36 75.5003C364.08 61.9703 358.39 49.9003 357.07 35.4803C359.54 42.1303 361.16 49.0403 363.35 55.7803C367.77 69.3503 373.01 82.6103 379.07 95.5403C396.66 84.7403 417.92 82.9403 437.57 78.1603L446.1 76.3203C443.44 65.8403 439.81 55.3903 436.37 45.1503C431.79 31.5103 426.92 16.2703 420.46 2.30026Z" fill="#BCBC85"/>
<path d="M343.74 40.8504C343.61 38.0804 342.54 34.8504 341.99 32.0804C341.43 29.2704 340.93 26.4504 340.47 23.6304C339.89 23.9504 339.31 24.2704 338.72 24.5904C340 32.3504 341.57 40.0204 343.62 47.4804C344.46 45.7504 343.74 43.2604 343.74 41.2804V40.8504Z" fill="#565449"/>
<path d="M368.49 9.05029C361.28 12.0903 354.44 15.8303 347.62 19.6403C348.95 28.1103 350.55 36.4503 352.5 43.4803C354.33 50.0703 362.71 72.3103 368.36 75.5103C364.08 61.9803 358.39 49.9103 357.07 35.4903C359.54 42.1403 361.16 49.0503 363.35 55.7903C367.77 69.3603 373.01 82.6203 379.07 95.5503C396.66 84.7603 417.92 82.9603 437.57 78.1803C435.89 69.4103 431.53 60.4203 427.14 52.7103C410.73 23.8703 389.56 18.9803 368.49 9.05029Z" fill="#FCF5DB"/>
<path d="M403.39 163.82C409.81 170.64 419.98 176.81 422.14 186.26C423.46 192.02 424.07 198.12 425.86 203.76C426.44 208.14 426.57 212.55 427.04 216.95C427.94 225.45 429.19 233.87 429.88 242.41C430.31 247.69 430.27 252.97 430.63 258.24C430.9 262.19 431.59 266.1 431.82 270.06C432.09 274.86 431.89 279.68 432.09 284.48C432.32 290.11 433.16 295.69 433.32 301.33C433.51 308.19 433.11 315.05 433.12 321.91L433.38 363.91L433.21 401.41C433.15 407.96 433.4 414.72 432.84 421.25C410.59 426.98 381.14 431.46 358.15 432.86C353.08 433.17 347.97 432.98 342.89 433.06C341.03 433.09 335.94 433.82 334.54 433.02C334.96 431.45 336.31 430.7 336.21 429.13L335.72 428.49C337.25 425.95 338.75 423.59 339.8 420.81C341.29 416.88 342.28 411.95 340.5 407.96C341.6 402.39 339.67 399.56 337.28 394.69C336.51 393.35 334.83 392.1 333.68 391.07C319.99 378.72 293.53 373.11 276 367.43C276.16 361.5 277.02 355.66 277.34 349.75L280.39 299.94C281.61 282.52 283.05 265.06 283.26 247.59C283.04 243.84 283.04 240.21 283.26 236.46C286.99 233.73 291.61 231.98 295.44 229.26C303.79 223.33 309.34 214.96 316.01 207.41L317 207.8C317.17 207.72 317.34 207.66 317.5 207.56C321.52 204.99 323.63 193.7 324.56 189.4C331.48 190.39 344.73 189.22 351.32 186.8C355.09 185.42 358.08 182.82 359.64 179.08C362.73 171.69 361.52 153.44 358.64 146.15L361.04 144.82C370.16 149.07 378.9 154.1 388.15 158.09C393.2 160.27 398.91 160.99 403.83 163.38L403.37 163.83H403.39V163.82Z" fill="#A2A388"/>
<path d="M340.25 299.38C341.51 299.1 342.77 298.77 344 298.39C345.24 298.01 346.46 297.58 347.66 297.11C348.87 296.63 350.05 296.11 351.21 295.54C364.79 289.05 389.2 270.38 398.58 258.96C396.16 265.03 393.86 271.23 390.75 276.99C387.75 281.82 385.01 286.77 382.28 291.75C378.01 297.69 374.44 304.14 370.25 310.14C361.9 322.1 346.85 339.39 334.93 347.6C359.61 339.73 393.49 311.1 405.26 287.8C406.17 286 406.9 284.11 407.73 282.28C407.63 290.58 408.12 299.94 406.67 308.09C406.19 310.78 404.44 312.9 403.83 315.58C399.08 336.36 394.94 355.59 383.89 374.21C381.6 378.06 379.22 382.04 375.96 385.16C374.53 386.52 372.93 387.79 371.13 388.62C363.72 392.03 345.71 394.28 337.29 394.69C336.52 393.35 334.84 392.1 333.69 391.07C320 378.72 293.54 373.11 276.01 367.43C276.17 361.5 277.03 355.66 277.35 349.75L280.4 299.94C281.62 282.52 283.06 265.06 283.27 247.59C286.52 248.69 289.68 250.01 292.75 251.53C295.82 253.05 298.78 254.78 301.62 256.7C315.44 266.02 330.04 282.03 348.27 272.84C350.8 271.57 354.6 268.27 357.2 267.97C357.62 270.41 344.84 289.11 342.52 292.39C340.64 295.07 338.61 297.64 336.44 300.09C337.72 299.91 339 299.67 340.26 299.39L340.25 299.38Z" fill="#FCF5DB"/>
<path d="M428.49 533.39H4.98999" stroke="#444137" stroke-width="2" stroke-linecap="round"/>
<path d="M166.99 291.39H162.49C162.49 289.39 161.82 287.56 161.49 286.89C158.69 283.29 158.66 276.72 158.99 273.89C159.79 267.09 159.66 261.72 159.49 259.89C158.29 251.09 163.99 248.22 166.99 247.89C171.79 247.49 174.49 254.39 172.99 257.89L172.49 267.39C173.29 269.39 171.49 280.22 170.49 285.39C168.49 287.79 167.32 290.39 166.99 291.39Z" fill="white"/>
<path d="M162.78 291.56C163.63 288.57 161.27 286.01 160.13 283.45C158.81 280.49 159.11 277.1 159.26 273.96C159.44 270.38 159.61 266.79 159.78 263.21C159.86 261.52 159.93 259.83 160.03 258.13C160.11 256.76 160.22 255.39 160.55 254.06C160.86 252.8 161.36 251.56 162.23 250.57C163.15 249.53 164.4 248.85 165.78 248.6C168.44 248.12 171.19 249.62 172.25 252.04C172.88 253.47 172.89 255.07 172.79 256.59C172.69 258.24 172.49 259.89 172.41 261.54C172.24 265.09 172.3 268.65 172.16 272.2C171.93 278.25 171.05 284.6 167.54 289.75C167.15 290.33 166.72 290.88 166.27 291.41C166.07 291.64 166.04 291.98 166.27 292.21C166.47 292.41 166.88 292.44 167.08 292.21C171.24 287.38 172.71 281.02 173.17 274.86C173.44 271.2 173.38 267.53 173.48 263.86C173.53 262.06 173.61 260.26 173.78 258.47C173.93 256.83 174.1 255.19 173.86 253.56C173.64 252.06 173.01 250.66 171.94 249.55C170.95 248.52 169.61 247.77 168.19 247.5C165.16 246.92 162.09 248.35 160.55 250.95C159.01 253.55 158.96 256.62 158.82 259.49C158.64 263.15 158.47 266.81 158.29 270.46C158.2 272.25 158.1 274.03 158.03 275.82C157.96 277.48 157.96 279.15 158.21 280.8C158.46 282.45 159.04 283.93 159.85 285.37C160.56 286.64 161.39 287.9 161.72 289.33C161.86 289.96 161.86 290.6 161.68 291.22C161.48 291.92 162.59 292.22 162.79 291.52L162.78 291.56Z" fill="#444137"/>
<mask id="mask0_519_756" style="mask-type:luminance" maskUnits="userSpaceOnUse" x="163" y="261" width="5" height="12">
<path d="M167.99 261.39H163.99V272.39H167.99V261.39Z" fill="white"/>
</mask>
<g mask="url(#mask0_519_756)">
<path d="M164.46 269.78C164.14 270.09 164.13 270.58 164.27 270.98C164.42 271.4 164.7 271.78 165.17 271.85C165.57 271.91 166.03 271.76 166.23 271.38C166.43 271 166.36 270.57 166.1 270.27C165.73 269.84 165.1 269.97 164.61 270.03L164.68 270.57C164.97 270.52 165.27 270.52 165.56 270.53C165.85 270.53 166.15 270.53 166.43 270.57C166.47 270.57 166.43 270.57 166.49 270.57C166.45 270.57 166.45 270.53 166.47 270.57C166.49 270.61 166.5 270.62 166.51 270.66C166.56 270.79 166.59 270.93 166.61 271.08C166.65 271.34 166.63 271.61 166.56 271.87C166.47 272.21 167.01 272.36 167.1 272.01C167.18 271.66 167.2 271.29 167.15 270.93C167.1 270.63 167.02 270.21 166.7 270.07C166.54 269.99 166.34 270.01 166.16 270C165.98 270 165.82 269.98 165.65 269.98C165.28 269.96 164.9 269.98 164.53 270.04C164.23 270.09 164.29 270.61 164.6 270.58C164.79 270.56 164.97 270.54 165.16 270.52C165.3 270.51 165.48 270.5 165.59 270.56C165.66 270.6 165.73 270.68 165.74 270.74C165.75 270.77 165.76 270.79 165.77 270.82C165.77 270.83 165.78 270.91 165.78 270.87C165.78 270.9 165.78 270.93 165.78 270.95C165.78 270.96 165.78 270.98 165.78 270.99C165.78 271.03 165.8 270.94 165.78 271.01C165.78 271.04 165.77 271.06 165.76 271.09C165.77 271.05 165.75 271.11 165.74 271.12C165.74 271.13 165.72 271.15 165.71 271.17C165.71 271.17 165.64 271.23 165.67 271.21C165.58 271.28 165.47 271.31 165.39 271.31C165.27 271.31 165.19 271.3 165.1 271.23C165.07 271.21 165.1 271.23 165.06 271.2C165.03 271.18 165.01 271.15 164.98 271.12C164.93 271.06 164.89 270.98 164.86 270.91C164.8 270.77 164.76 270.62 164.76 270.49C164.76 270.35 164.78 270.25 164.87 270.16C165.13 269.91 164.74 269.53 164.48 269.77L164.46 269.78Z" fill="#6F6A5C"/>
<path d="M164.98 269.36C165.63 269.32 166.28 269.24 166.92 269.14L166.71 268.64C166.53 268.73 166.32 268.7 166.12 268.64C165.92 268.58 165.72 268.49 165.58 268.35C165.45 268.21 165.42 268 165.4 267.81C165.38 267.56 165.38 267.32 165.47 267.09C165.53 266.95 165.41 266.79 165.28 266.75C165.12 266.71 164.99 266.8 164.94 266.94C164.82 267.24 164.82 267.57 164.86 267.88C164.9 268.2 164.98 268.52 165.22 268.76C165.44 268.97 165.74 269.11 166.03 269.18C166.36 269.27 166.69 269.26 166.99 269.11C167.11 269.05 167.16 268.88 167.1 268.77C167.04 268.64 166.91 268.59 166.77 268.61C166.17 268.71 165.58 268.77 164.98 268.81C164.83 268.81 164.7 268.93 164.7 269.08C164.7 269.22 164.83 269.36 164.98 269.35V269.36Z" fill="#6F6A5C"/>
<path d="M165.4 264.6C164.88 264.89 165.08 265.66 165.32 266.06C165.46 266.29 165.64 266.48 165.86 266.63C166.1 266.79 166.42 266.92 166.71 266.85C167 266.78 167.19 266.54 167.31 266.29C167.44 266.01 167.52 265.71 167.58 265.41C167.65 265.1 167.66 264.78 167.52 264.48C167.38 264.18 167.11 264.03 166.8 264.01C166.47 263.99 166.09 264.11 165.8 264.26C165.51 264.41 165.26 264.69 165.21 265.02C165.19 265.17 165.25 265.32 165.4 265.36C165.53 265.4 165.72 265.32 165.74 265.17C165.8 264.78 166.24 264.64 166.59 264.58C166.74 264.55 166.91 264.56 166.99 264.67C167.09 264.81 167.1 264.97 167.07 265.15C167.04 265.38 166.97 265.61 166.9 265.82C166.85 265.98 166.78 266.17 166.65 266.28C166.62 266.31 166.58 266.32 166.51 266.32C166.42 266.31 166.34 266.27 166.28 266.24C166.12 266.16 166 266.06 165.88 265.92C165.77 265.79 165.69 265.62 165.65 265.44C165.63 265.35 165.62 265.3 165.63 265.2C165.63 265.17 165.63 265.14 165.66 265.09C165.65 265.11 165.66 265.09 165.67 265.08C165.66 265.09 165.63 265.11 165.67 265.08C165.98 264.9 165.7 264.43 165.39 264.6H165.4Z" fill="#6F6A5C"/>
<path d="M165.71 263.46L166.28 263.5C166.46 263.51 166.65 263.54 166.84 263.53C167.04 263.53 167.22 263.45 167.36 263.3C167.47 263.18 167.54 263.04 167.61 262.9C167.77 262.56 167.86 262.2 167.69 261.84C167.62 261.7 167.5 261.56 167.36 261.49C167.18 261.4 166.98 261.4 166.78 261.4C166.36 261.4 165.95 261.42 165.55 261.59C165.41 261.65 165.38 261.85 165.45 261.97C165.53 262.11 165.69 262.13 165.83 262.07C165.92 262.03 166.08 261.99 166.2 261.98C166.22 261.98 166.24 261.98 166.26 261.98C166.29 261.98 166.33 261.98 166.36 261.98C166.44 261.98 166.51 261.98 166.59 261.98C166.73 261.98 166.87 261.98 167.01 261.99C167.04 261.99 167.07 261.99 167.1 262.02C167.1 262.02 167.15 262.06 167.12 262.03C167.1 262.01 167.12 262.03 167.12 262.04C167.12 262.04 167.14 262.06 167.14 262.07C167.17 262.1 167.12 262.04 167.14 262.07C167.14 262.08 167.18 262.14 167.17 262.11C167.16 262.08 167.17 262.13 167.17 262.14C167.17 262.15 167.17 262.16 167.18 262.18C167.18 262.2 167.19 262.26 167.18 262.21C167.18 262.24 167.18 262.27 167.18 262.3C167.18 262.39 167.13 262.55 167.09 262.64C167.04 262.75 166.99 262.87 166.91 262.96C166.94 262.93 166.89 262.97 166.89 262.98C166.89 262.98 166.86 263.01 166.88 262.99C166.9 262.97 166.87 262.99 166.87 262.99C166.82 263.01 166.85 262.99 166.86 262.99C166.86 262.99 166.81 263 166.83 262.99C166.83 262.99 166.77 262.99 166.74 262.99C166.39 262.99 166.03 262.94 165.68 262.91C165.53 262.9 165.39 263.04 165.4 263.18C165.4 263.34 165.52 263.44 165.68 263.46H165.71Z" fill="#6F6A5C"/>
</g>
<path d="M227.99 49.3901C251.99 49.3901 309.49 43.3901 347.49 19.3901C357.99 11.5568 387.59 -2.80986 421.99 2.39014" stroke="#434037" stroke-width="2"/>
<defs>
<linearGradient id="paint0_linear_519_756" x1="136.85" y1="262.02" x2="149.1" y2="262.25" gradientUnits="userSpaceOnUse">
<stop stop-color="#7C8166"/>
<stop offset="1" stop-color="#A8A577"/>
</linearGradient>
</defs>
</svg>
