<svg width="212" height="72" viewBox="0 0 212 72" fill="none" xmlns="http://www.w3.org/2000/svg">
<g clip-path="url(#clip0_179_24)">
<path d="M33.227 26.735C44.6885 33.525 58.2415 41.485 72.1826 40.84C89.196 40.053 107.073 39.319 123.614 35.035C134.226 32.287 143.903 28.542 154.931 27.702C168.951 26.636 183.706 27.657 196.815 33.177C202.344 35.505 206.441 40.461 210.589 44.609" stroke="#BEC3AB" stroke-width="2.5" stroke-linecap="round"/>
<path d="M32.3103 27.652C22.2792 29.364 15.6898 34.267 7.7658 40.28C5.1491 42.266 2.0974 44.115 -0.229004 46.442" stroke="#BEC3AB" stroke-width="2.5" stroke-linecap="round"/>
<path d="M-0.229004 46.442C2.9733 47.427 7.917 48.686 11.2031 48.199C16.3362 47.438 21.6995 43.722 26.1487 41.146C29.9333 38.955 32.8949 35.316 35.9768 32.235" stroke="#BEC3AB" stroke-width="2.5" stroke-linecap="round"/>
<path d="M35.9768 30.401C29.765 24.19 29.1155 18.452 31.5974 10.338C32.5301 7.28877 33.4057 2.43888 35.9768 0.153479C36.9618 -0.722121 38.2486 4.37518 38.472 4.94018C39.4088 7.30988 40.8446 12.9787 39.8723 15.5066C38.3359 19.5013 36.6836 22.5295 34.6019 26.277" stroke="#BEC3AB" stroke-width="2.5" stroke-linecap="round"/>
<path d="M36.4351 30.86C34.4061 37.109 33.2514 43.852 32.5904 50.388C32.1236 55.005 32.012 59.754 32.0812 64.392C32.0877 64.825 31.557 68.735 32.565 67.727C37.7204 62.572 40.8304 61.099 42.6476 53.571C44.7199 44.986 39.81 40.402 38.2683 32.693" stroke="#BEC3AB" stroke-width="2.5" stroke-linecap="round"/>
<path d="M50.6424 37.7341C47.4236 41.2591 45.3281 47.2301 45.6011 52.1451C45.9288 58.0431 47.7249 67.425 52.4756 71.648C53.982 72.987 57.538 62.6791 57.6697 61.4641C58.2588 56.0311 57.002 50.4171 55.7856 45.2201C54.6729 40.4661 52.2119 36.5361 50.7443 32.1331C49.6804 28.9411 47.6081 23.7011 45.1428 21.2354" stroke="#BEC3AB" stroke-width="2.5" stroke-linecap="round"/>
<path d="M53.8505 36.359C54.1956 30.147 58.7094 25.098 56.804 18.6892C56.152 16.496 55.3676 13.2527 53.7487 11.5092C52.7997 10.4872 48.4441 6.952 47.2561 9.0904C46.8428 9.8342 46.4223 13.3861 46.314 14.3608C46.0682 16.5729 43.9964 18.2558 46.0594 20.3187" stroke="#BEC3AB" stroke-width="2.5" stroke-linecap="round"/>
<path d="M31.556 27.701C25.3562 27.773 19.0237 27.698 13.9199 23.67C11.1318 21.4703 8.76273 18.9012 6.63653 16.0663C5.73493 14.8642 4.37323 13.459 3.75063 12.0581C3.45063 11.383 2.80273 10.9041 2.28473 10.3861" stroke="#BEC3AB" stroke-width="2.5" stroke-linecap="round"/>
<path d="M2.69702 10.3862C7.44762 11.5567 11.7063 13.5255 16.3248 15.0128C18.652 15.7623 20.9649 17.5228 22.6806 19.2386C23.6367 20.1947 24.8055 21.0218 25.8299 21.9756C27.3168 23.36 29.0698 24.866 30.7314 26.053" stroke="#BEC3AB" stroke-width="2.5" stroke-linecap="round"/>
<path d="M55.6738 31.618C58.8814 26.221 61.5924 21.1073 63.4611 15.1273C63.7956 14.057 64.3315 12.9683 64.3315 11.8292" stroke="#BEC3AB" stroke-width="2.5" stroke-linecap="round"/>
<path d="M65.3622 11.623C67.5984 15.8718 70.3925 19.947 70.5155 24.93C70.6312 29.616 64.8301 33.185 60.873 34.664C59.6222 35.132 58.3931 35.072 57.1167 35.214C56.3558 35.299 56.3923 36.255 55.4677 35.947" stroke="#BEC3AB" stroke-width="2.5" stroke-linecap="round"/>
<path d="M75.6689 38.833C74.9641 36.635 74.5589 34.411 74.4779 32.099C74.3481 28.394 73.8256 21.5645 76.9515 18.8377C78.562 17.4328 80.7914 16.4654 82.7691 15.6998C83.412 15.451 83.196 15.6659 82.9867 15.6426C82.043 15.5377 82.6417 18.0674 82.6775 18.4025C83.054 21.9254 84.076 25.862 83.296 29.373C83.061 30.431 82.8442 31.496 82.5744 32.546C81.8329 35.429 80.1458 36.925 78.1425 39.245" stroke="#BEC3AB" stroke-width="2.5" stroke-linecap="round"/>
<path d="M87.926 41.24C85.457 44.213 83.879 47.418 82.3457 50.948C80.9767 54.1 79.5573 57.353 79.697 60.844" stroke="#BEC3AB" stroke-width="2.5" stroke-linecap="round"/>
<path d="M79.818 60.7231C82.9933 60.4851 86.541 59.664 89.015 57.523C90.102 56.581 91.046 55.389 91.959 54.282C93.417 52.516 93.764 51.642 93.586 49.334C93.46 47.689 93.125 46.11 92.645 44.534C92.493 44.035 92.371 43.266 91.979 42.874C91.407 42.302 91.145 41.733 90.83 40.998" stroke="#BEC3AB" stroke-width="2.5" stroke-linecap="round"/>
<path d="M106.198 38.699C104.841 34.909 101.826 31.968 100.161 28.305C99.503 26.858 99.563 25.755 99.879 24.151C100.517 20.9077 101.492 17.5405 102.864 14.5237C103.087 14.0315 103.623 13.5457 102.931 13.8918" stroke="#BEC3AB" stroke-width="2.5" stroke-linecap="round"/>
<path d="M106.198 37.247C108.443 34.819 109.694 31.13 109.694 27.781C109.694 25.273 108.75 23.018 107.583 20.8163C107.351 20.3777 103.315 13.5077 102.326 14.4969" stroke="#BEC3AB" stroke-width="2.5" stroke-linecap="round"/>
<path d="M104.988 39.183C104.535 40.315 103.729 41.317 103.2 42.423C102.276 44.356 101.735 46.165 101.896 48.326C102.143 51.658 102.896 54.801 104.746 57.576" stroke="#BEC3AB" stroke-width="2.5" stroke-linecap="round"/>
<path d="M104.746 57.576C106.695 56.464 108.742 55.405 110.138 53.583C111.939 51.231 111.365 47.661 110.528 45.099C109.988 43.446 108.791 42.163 108.027 40.635C107.586 39.754 107.153 38.883 106.561 38.094" stroke="#BEC3AB" stroke-width="2.5" stroke-linecap="round"/>
<path d="M109.949 40.03C111.98 40.863 114.575 41.579 116.215 43.149C117.351 44.237 118.799 45.17 119.677 46.504C120.66 47.996 121.069 49.471 121.069 51.244C121.069 52.598 119.682 53.461 119.509 54.672" stroke="#BEC3AB" stroke-width="2.5" stroke-linecap="round"/>
<path d="M111.28 51.2839C112.494 52.4979 113.574 53.8039 115.146 54.5439C116.138 55.0109 117.347 55.1189 118.42 55.2769C118.81 55.3339 119.387 55.5189 119.751 55.3979" stroke="#BEC3AB" stroke-width="2.5" stroke-linecap="round"/>
<path d="M129.743 33.166C128.809 32.232 127.974 31.28 127.523 30.018C127.336 29.495 127.274 29.024 127.312 28.468C127.447 26.477 127.564 24.114 128.424 22.2869C128.758 21.5783 129.336 20.8628 129.743 20.1853" stroke="#BEC3AB" stroke-width="2.5" stroke-linecap="round"/>
<path d="M129.836 19.9071C131.757 20.6186 133.56 22.9354 134.544 24.656C135.395 26.147 135.728 27.82 135.996 29.488C136.123 30.279 136.298 30.989 136.14 31.775" stroke="#BEC3AB" stroke-width="2.5" stroke-linecap="round"/>
<path d="M133.081 21.2978C133.763 19.2901 134.606 17.3259 135.409 15.364C135.803 14.4013 136.224 13.2918 136.831 12.4383C137.744 11.1536 139.377 10.7311 140.776 10.2646" stroke="#BEC3AB" stroke-width="2.5" stroke-linecap="round"/>
<path d="M140.498 9.98657C142.712 12.2004 143.767 15.4824 144.165 18.5164C144.484 20.9378 143.493 22.6106 142.306 24.589C141.617 25.738 141.324 27.148 140.359 28.113C139.942 28.53 139.524 28.947 139.107 29.364" stroke="#BEC3AB" stroke-width="2.5" stroke-linecap="round"/>
<path d="M135.77 33.258C136.189 32.839 135.841 33.396 135.764 33.665C135.458 34.737 135.293 35.841 135.306 36.957C135.345 40.246 137.13 43.517 138.917 46.182C139.86 47.588 141.069 48.757 142.26 49.947" stroke="#BEC3AB" stroke-width="2.5" stroke-linecap="round"/>
<path d="M142.445 49.7619C143.761 48.1899 144.636 46.6439 145.36 44.7339C146.165 42.6119 146.184 40.8819 145.525 38.6769C144.641 35.7149 142.877 33.3709 141.054 30.9399" stroke="#BEC3AB" stroke-width="2.5" stroke-linecap="round"/>
<path d="M151.624 28.715C152.16 26.551 152.719 24.399 153.293 22.2455C154.08 19.2925 154.643 16.1193 156.007 13.3603C156.946 11.4624 157.998 10.3216 160.082 9.75985C161.451 9.39075 162.465 9.44734 163.77 9.70834" stroke="#BEC3AB" stroke-width="2.5" stroke-linecap="round"/>
<path d="M163.77 9.70825C162.802 11.018 163.325 13.5989 163.353 15.1322C163.376 16.4259 162.66 17.8413 162.224 19.0417C161.937 19.8336 161.642 20.5882 161.266 21.339C160.225 23.4221 158.914 25.1331 157.28 26.7681" stroke="#BEC3AB" stroke-width="2.5" stroke-linecap="round"/>
<path d="M155.518 28.344C155.323 29.027 155.359 29.608 155.492 30.307C155.815 32.003 156.151 33.753 156.893 35.324C157.818 37.282 159.349 38.857 160.916 40.315C162.308 41.609 166.597 45.357 165.253 44.013" stroke="#BEC3AB" stroke-width="2.5" stroke-linecap="round"/>
<path d="M165.253 43.828C166.221 42.124 166.141 40.724 165.789 38.842C165.401 36.768 164.265 34.66 163.249 32.841C162.284 31.111 160.977 29.545 159.783 27.973" stroke="#BEC3AB" stroke-width="2.5" stroke-linecap="round"/>
<path d="M152.458 28.993C152.137 30.406 151.588 31.714 151.346 33.165C151.173 34.2 150.898 35.241 150.81 36.287C150.64 38.325 150.9 40.447 151.088 42.478C151.165 43.314 151.657 44.085 151.809 44.848" stroke="#BEC3AB" stroke-width="2.5" stroke-linecap="round"/>
<path d="M151.809 44.848C153.81 44.939 156.182 45.052 157.656 43.441C158.249 42.793 159.017 42.114 159.412 41.324" stroke="#BEC3AB" stroke-width="2.5" stroke-linecap="round"/>
<path d="M166.366 37.708C167.003 38.544 167.577 39.309 167.87 40.325C168.164 41.346 168.451 42.388 168.869 43.364" stroke="#BEC3AB" stroke-width="2.5" stroke-linecap="round"/>
<path d="M168.962 43.457C170.161 42.35 171.222 41.398 171.815 39.862C172.568 37.911 173.005 35.808 172.31 33.742C171.628 31.718 170.371 29.29 168.869 27.788" stroke="#BEC3AB" stroke-width="2.5" stroke-linecap="round"/>
<path d="M168.684 27.232C169.763 24.251 169.79 20.9569 170.476 17.8775C171.22 14.5383 173.742 11.7887 176.101 9.43005" stroke="#BEC3AB" stroke-width="2.5" stroke-linecap="round"/>
<path d="M176.101 9.43005C176.237 10.5509 176.315 11.6472 176.544 12.7576C176.751 13.7621 177.139 14.7169 177.378 15.7142C177.761 17.3044 178.247 18.9541 178.398 20.5869C178.458 21.2299 178.251 21.8235 178.285 22.4618C178.333 23.377 178.138 24.15 177.945 25.017C177.752 25.883 177.144 26.488 176.935 27.324" stroke="#BEC3AB" stroke-width="2.5" stroke-linecap="round"/>
</g>
<defs>
<clipPath id="clip0_179_24">
<rect width="212" height="72" fill="white"/>
</clipPath>
</defs>
</svg>
