<svg width="13" height="15" viewBox="0 0 13 15" fill="none" xmlns="http://www.w3.org/2000/svg">
<path d="M1 3.6L2.83333 1H10.1667L12 3.6M1 3.6V12.7C1 13.0448 1.12877 13.3754 1.35798 13.6192C1.58719 13.863 1.89807 14 2.22222 14H10.7778C11.1019 14 11.4128 13.863 11.642 13.6192C11.8712 13.3754 12 13.0448 12 12.7V3.6M1 3.6H12M8.94444 6.2C8.94444 6.88956 8.68691 7.55088 8.22848 8.03848C7.77006 8.52607 7.14831 8.8 6.5 8.8C5.85169 8.8 5.22994 8.52607 4.77152 8.03848C4.31309 7.55088 4.05556 6.88956 4.05556 6.2" stroke="#F2EBD3" stroke-width="1.5" stroke-linecap="round" stroke-linejoin="round"/>
</svg>
