<svg width="20" height="15" viewBox="0 0 20 15" fill="none" xmlns="http://www.w3.org/2000/svg">
<path d="M13.6311 2.15517C13.9018 2.05482 14.1945 2 14.5001 2C15.8808 2 17.0001 3.11929 17.0001 4.5C17.0001 5.88071 15.8808 7 14.5001 7C14.1945 7 13.9018 6.94518 13.6311 6.84483" stroke="#FCF5DB" stroke-width="2" stroke-linecap="round"/>
<path d="M1 14C1.69137 11.6928 3.46998 11 7.5 11C11.53 11 13.3086 11.6928 14 14" stroke="#FCF5DB" stroke-width="2" stroke-linecap="round"/>
<path d="M15 10C17.403 10.095 18.5292 10.6383 19 12" stroke="#FCF5DB" stroke-width="2" stroke-linecap="round"/>
<path d="M11 4.5C11 6.433 9.433 8 7.5 8C5.567 8 4 6.433 4 4.5C4 2.567 5.567 1 7.5 1C9.433 1 11 2.567 11 4.5Z" stroke="#FCF5DB" stroke-width="2"/>
</svg>
