<svg width="40" height="40" viewBox="0 0 40 40" fill="none" xmlns="http://www.w3.org/2000/svg">
<path d="M20 5C12.6362 10 8.33337 17.6362 8.33337 23.3333C8.33337 30.6971 14.3029 35 20 35C25.6972 35 31.6667 30.6971 31.6667 23.3333C31.6667 17.6362 27.3638 10 20 5Z" fill="black" fill-opacity="0.05"/>
<path d="M19.1667 27.5C16.8655 27.5 15 25.6345 15 23.3333M8.33337 23.3333C8.33337 17.6362 12.6362 10 20 5C27.3638 10 31.6667 17.6362 31.6667 23.3333C31.6667 30.6971 25.6972 35 20 35C14.3029 35 8.33337 30.6971 8.33337 23.3333Z" stroke="#565348" stroke-opacity="0.7" stroke-width="1.5" stroke-linecap="round" stroke-linejoin="round"/>
</svg>
