<svg width="40" height="40" viewBox="0 0 40 40" fill="none" xmlns="http://www.w3.org/2000/svg">
<path d="M14.5 28.6133H14.5938M24.5 17.7599L25.1865 17.48C26.2476 17.0473 27.4395 17.0482 28.5 17.4825C29.5605 17.9169 30.7524 17.9178 31.8135 17.4851L32.5 17.2051M24.5 11.4081L25.1865 11.1282C26.2476 10.6955 27.4395 10.6964 28.5 11.1307C29.5605 11.5651 30.7524 11.566 31.8135 11.1333L32.5 10.8533M21.5 28.6133C21.5 32.4278 18.366 35.52 14.5 35.52C10.634 35.52 7.5 32.4278 7.5 28.6133C7.5 26.2663 8.68652 24.1927 10.5 22.9446V7.89074C10.5 5.71106 12.2909 3.94666 14.5 3.94666C16.7091 3.94666 18.5 5.71364 18.5 7.89332V22.9446C19.9321 24.2093 21.5 26.5678 21.5 28.6133Z" stroke="#565348" stroke-opacity="0.7" stroke-width="1.5" stroke-linecap="round" stroke-linejoin="round"/>
</svg>
