<svg width="26" height="34" viewBox="0 0 26 34" fill="none" xmlns="http://www.w3.org/2000/svg">
<path d="M7.5 25.6133H7.59375M17.5 14.7599L18.1865 14.48C19.2476 14.0473 20.4395 14.0482 21.5 14.4825C22.5605 14.9169 23.7524 14.9178 24.8135 14.4851L25.5 14.2051M17.5 8.40813L18.1865 8.12819C19.2476 7.69546 20.4395 7.69637 21.5 8.13073C22.5605 8.56508 23.7524 8.56599 24.8135 8.13326L25.5 7.85332M14.5 25.6133C14.5 29.4278 11.366 32.52 7.5 32.52C3.63401 32.52 0.5 29.4278 0.5 25.6133C0.5 23.2663 1.68652 21.1927 3.5 19.9446V4.89074C3.5 2.71106 5.29086 0.946655 7.5 0.946655C9.70914 0.946655 11.5 2.71364 11.5 4.89332V19.9446C12.9321 21.2093 14.5 23.5678 14.5 25.6133Z" stroke="#FCF5DB" stroke-linecap="round" stroke-linejoin="round"/>
</svg>
