<svg width="1000" height="335" viewBox="0 0 1000 335" fill="none" xmlns="http://www.w3.org/2000/svg">
<g clip-path="url(#clip0_386_532)">
<path d="M997.005 326.788C965.139 320.107 945.171 291.6 930.844 264.271C922.607 248.57 915.369 232.314 906.15 217.152C898.163 204.009 888.695 191.741 878.178 180.567C832.535 132.119 768.92 105.833 704.256 96.5438C668.464 91.4111 631.989 90.6539 595.963 93.5988C559.937 96.5438 523.995 104.201 490.033 117.882C457.285 131.075 426.085 148.055 392.738 159.751C358.243 171.833 321.868 176.831 285.427 175.939C212.66 174.156 142.738 149.435 78.1249 117.041C70.0544 113.002 62.0672 108.828 54.1133 104.571C49.3875 102.03 35.7095 106.136 57.3416 116.233C120.79 150.226 181.06 173.937 252.945 182.115C288.804 186.188 325.346 185.178 360.689 177.572C395.667 170.05 427.965 154.786 460.363 139.961C493.627 124.731 527.14 112.026 563.332 106.018C599.607 99.9935 636.997 98.9838 673.622 101.66C740.848 106.573 808.606 127.642 859.475 173.92C871.206 184.606 881.955 196.453 891.141 209.461C901.008 223.429 908.696 238.692 916.3 253.989C930.261 282.042 946.119 311.811 974.507 327.36C980.88 330.843 987.703 333.418 994.792 334.899C1000.02 335.993 1002.25 327.882 997.005 326.788Z" fill="#BEC3AB"/>
<path d="M913.622 230.362C915.236 208.889 913.771 187.231 909.378 166.162C907.199 155.695 904.287 145.379 900.626 135.35C896.965 125.32 892.788 115.846 886.665 107.348C879.942 98.0079 871.639 90.1322 863.269 82.3408C860.906 80.1363 855.698 81.432 856.164 85.3194C859.874 115.947 870.823 145.497 888.262 170.857C893.204 178.043 898.629 184.875 904.486 191.321C908.13 195.309 911.259 194.266 907.648 190.277C888.112 168.838 876.664 137.706 869.193 109.569C867.079 101.609 865.465 93.4979 864.484 85.3194L857.378 88.2979C864.567 94.9956 871.838 101.727 877.912 109.502C883.986 117.276 888.345 126.246 891.806 135.451C899.012 154.568 903.554 174.778 905.202 195.174C906.15 206.887 906.167 218.666 905.285 230.379C905.119 232.651 907.315 234.586 909.445 234.586C911.841 234.586 913.439 232.651 913.605 230.379L913.622 230.362Z" fill="#BEC3AB"/>
<path d="M918.214 246.079C900.842 237.026 883.204 227.972 864.35 222.503C845.497 217.034 825.945 215.957 806.842 221.039C796.01 223.917 785.626 228.376 775.509 233.223C771.283 235.242 774.278 242.529 778.721 240.913C786.791 237.985 795.194 240.863 802.516 244.599C810.27 248.553 817.658 253.299 826.128 255.587C835.147 258.011 844.732 258.431 854.017 258.869C863.302 259.306 873.136 259.357 882.671 258.953C893.687 258.482 904.653 257.422 915.568 255.857C917.798 255.537 919.013 252.676 918.48 250.674C917.815 248.25 915.602 247.426 913.355 247.729C894.402 250.421 875.166 251.33 856.047 250.522C846.962 250.152 837.543 249.849 828.691 247.543C820.404 245.389 813.315 240.593 805.728 236.824C796.775 232.381 786.309 229.234 776.508 232.785L779.719 240.476C796.293 232.516 813.881 225.936 832.468 225.987C851.055 226.037 868.644 231.809 885.267 239.18C895.035 243.505 904.536 248.402 914.021 253.349C918.78 255.823 922.99 248.57 918.214 246.079Z" fill="#BEC3AB"/>
<path d="M893.504 236.555C869.193 208.266 843.101 177.841 803.381 178.867C792.765 179.137 782.315 181.779 773.047 187.063C770.517 188.51 770.567 191.64 772.198 193.676C783.496 207.711 798.406 218.33 815.113 224.758C817.209 225.566 819.672 223.866 820.238 221.813C820.887 219.44 819.073 222.638 816.96 221.813C801.601 215.906 788.455 200.576 778.088 187.719L777.24 194.333C792.249 185.784 810.287 185.666 826.511 190.479C842.735 195.292 858.11 206.163 870.823 218.279C878.311 225.414 885.217 233.122 891.956 240.964C893.437 242.68 896.333 242.495 897.847 240.964C899.527 239.264 903.305 239.971 901.824 238.237L893.504 236.555Z" fill="#BEC3AB"/>
<path d="M838.475 150.142C829.639 156.52 819.838 163.419 808.423 160.777C797.008 158.135 788.039 150.394 778.022 145.312C767.306 139.877 755.891 135.804 744.143 133.364C732.395 130.924 718.667 128.905 706.653 132.388C699.963 134.323 693.823 137.79 687.783 141.189C681.027 144.976 674.271 148.762 667.515 152.548C664.77 154.096 664.87 158.253 667.515 159.818C681.909 168.333 697.9 174.004 714.407 176.327C732.362 178.851 750.067 176.882 767.838 173.836C777.556 172.17 787.357 170.756 796.459 166.785C798.522 165.876 798.988 162.813 797.957 161.03C796.709 158.876 794.329 158.623 792.266 159.515C784.911 162.729 776.691 163.789 768.853 165.153C760.25 166.667 751.631 168.081 742.911 168.771C726.97 170.016 711.112 168.367 695.853 163.453C687.417 160.744 679.363 157.058 671.725 152.548V159.818C677.766 156.436 683.789 153.053 689.83 149.671C695.088 146.726 700.346 143.511 706.02 141.442C717.419 137.285 730.348 139.069 741.946 141.492C753.544 143.915 764.693 147.819 775.16 153.272C785.36 158.59 794.845 166.263 806.227 168.905C812.6 170.386 819.173 169.999 825.296 167.643C831.42 165.287 837.211 161.383 842.702 157.428C844.532 156.116 845.397 153.76 844.199 151.673C843.151 149.839 840.339 148.846 838.508 150.159L838.475 150.142Z" fill="#BEC3AB"/>
<path d="M826.944 139.792C813.632 121.281 818.407 101.357 816.128 80.4054C814.813 68.3564 812.35 55.9371 805.345 45.8065C799.321 37.0895 790.735 30.9808 782.249 24.9563C773.762 18.9318 764.677 12.3688 760.334 2.27183C758.653 -1.63233 752.446 0.43754 752.579 4.39218C752.912 14.1694 755.841 23.4418 759.219 32.529C762.147 40.371 765.126 48.1961 768.52 55.8362C775.26 70.9984 784.179 84.8985 797.69 94.7262C799.754 96.224 801.867 97.6544 803.947 99.1521C805.861 100.532 807.674 102.417 809.738 103.511C812.633 105.042 816.594 103.612 817.059 100.128C817.442 97.301 815.096 94.6084 812.25 94.6758C810.22 94.7262 808.972 95.9884 808.24 97.7722L808.14 98.0077C807.275 100.111 809.072 102.636 811.052 103.191C813.449 103.864 815.296 102.366 816.178 100.246L816.277 100.01L812.267 103.107H812.483C811.785 102.905 811.086 102.72 810.387 102.535L809.987 102.282L808.922 100.431L808.989 100.717L809.405 97.4693L809.255 97.7217L811.735 95.7864L811.269 95.9547H813.482C812.483 95.7696 810.686 93.767 809.721 93.0434C808.09 91.815 806.41 90.6538 804.729 89.4927C801.85 87.4901 799.055 85.437 796.476 83.0474C791.667 78.6048 787.64 73.4553 784.195 67.902C777.007 56.3242 772.181 43.4505 767.406 30.7116C764.244 22.2638 761.232 13.5636 760.916 4.44269L753.162 6.56304C761.482 25.8819 783.43 32.3439 796.276 47.6071C803.598 56.3073 806.36 67.9861 807.658 79.076C809.056 91.024 809.106 103.073 811.219 114.937C813.449 127.474 818.208 140.078 827.909 148.661C829.606 150.158 832.135 150.344 833.799 148.661C835.314 147.129 830.272 141.475 830.272 141.475L826.944 139.792Z" fill="#BEC3AB"/>
<path d="M771.183 111.891C759.019 90.536 742.961 71.3855 723.659 56.2737C704.123 40.9768 680.711 29.1634 656.067 25.6127C640.658 23.3913 625 24.5188 610.79 31.3174C607.711 32.7815 608.293 38.4694 611.788 39.008C619.758 40.2364 626.914 43.703 633.919 47.5904C640.925 51.4777 648.413 55.7016 655.984 59.185C671.393 66.2529 687.533 71.6043 704.14 74.9194C713.608 76.821 729.965 78.5711 739.583 79.2106C741.83 79.362 736.971 76.6864 736.971 74.5156C736.971 72.1091 737.67 73.4722 735.423 73.3207C719.016 72.21 700.18 66.1183 684.472 61.2044C668.763 56.2906 653.887 49.1386 639.377 41.0273C631.407 36.5678 623.07 32.3103 613.968 30.8967L614.966 38.5872C637.414 27.8508 664.537 33.6061 686.285 43.3496C707.335 52.7735 725.922 67.0606 741.264 84.3264C749.934 94.0868 757.488 104.773 763.961 116.149C766.64 120.844 773.829 116.603 771.15 111.908L771.183 111.891Z" fill="#BEC3AB"/>
<path d="M680.678 94.6254C653.138 117.074 624.118 140.466 588.492 147.483C578.774 149.401 568.807 149.822 558.972 148.644L561.918 155.83C568.041 149.603 574.181 143.36 580.305 137.134C586.428 130.907 591.886 125.068 598.01 119.397C609.242 108.963 622.804 102.181 637.929 99.96C640.159 99.6234 641.374 96.7794 640.841 94.7769C640.192 92.3704 637.963 91.5122 635.716 91.8319C623.669 93.6157 611.954 98.2603 601.987 105.345C591.071 113.086 582.052 123.419 572.684 132.943C567.126 138.598 561.568 144.235 556.01 149.889C553.232 152.7 555.545 156.654 558.956 157.075C596.579 161.585 618.793 149.132 648.063 127.171C663.289 112.547 671.293 107.078 679.679 100.246C681.426 98.8155 686.968 99.2195 685.503 97.7218C683.773 95.9716 682.425 93.2118 680.661 94.6422L680.678 94.6254Z" fill="#BEC3AB"/>
<path d="M685.42 98.1255C674.454 115.223 663.389 132.455 649.494 147.331C642.772 154.534 635.317 161.871 626.747 166.785C622.105 169.444 617.129 170.235 611.921 171.026C606.713 171.816 602.087 173.18 597.577 175.687C588.059 180.954 580.971 189.688 574.83 198.523L582.585 200.643C582.585 183.276 589.074 166.213 600.672 153.39C604.283 149.401 598.409 143.427 594.782 147.432C581.703 161.905 574.265 181.021 574.248 200.643C574.248 205.069 579.723 206.045 582.002 202.764C587.211 195.275 593.234 187.837 601.205 183.26C605.365 180.87 609.808 179.793 614.5 179.086C619.958 178.262 625.067 177.201 630.009 174.576C638.878 169.831 646.715 162.325 653.671 155.106C660.626 147.887 667.316 139.489 673.406 131.092C680.162 121.769 686.402 112.076 692.609 102.383C695.537 97.8226 688.332 93.5987 685.42 98.1424V98.1255Z" fill="#BEC3AB"/>
<path d="M549.271 100.751C548.09 118.269 544.013 135.619 539.254 152.464C534.878 167.963 529.02 183.377 519.186 196.217C514.261 202.646 508.37 208.317 501.581 212.692L507.688 217.438C509.951 208.637 506.173 200.307 504.393 191.825C502.945 184.976 502.463 177.942 502.762 170.941C503.378 156.822 507.488 142.855 514.527 130.655C518.52 123.738 523.429 117.512 529.187 112.009C533.097 108.29 531.333 106.641 527.423 110.343C505.624 131.109 491.131 158.27 495.308 188.123C495.907 192.364 496.855 196.503 498.003 200.61C499.318 205.321 500.915 210.269 499.651 215.183C498.769 218.616 502.629 221.948 505.758 219.928C535.21 200.98 545.694 164.883 552.816 132.354C555.095 121.937 556.859 111.386 557.558 100.734C557.708 98.4621 556.193 101.929 554.047 101.929C551.667 101.929 549.305 100.076 549.155 102.348L549.271 100.751Z" fill="#BEC3AB"/>
<path d="M608.61 93.481C599.557 88.3652 593.8 79.4126 587.76 71.2004C581.07 62.0963 573.499 54.1197 564.181 47.7418C554.862 41.3639 544.512 36.8875 533.663 34.5316C520.9 31.7381 507.788 31.8391 494.908 29.887C483.194 28.12 471.146 24.6029 462.493 15.9868C459.099 12.6044 453.707 16.8956 455.954 21.0858C464.69 37.3083 476.521 51.9152 490.665 63.6108C494.376 66.6904 498.22 69.6858 502.629 71.6716C507.322 73.7751 512.297 74.8353 517.289 75.9123C527.306 78.0494 537.407 79.9679 547.624 80.6915C559.405 81.5161 571.269 80.3718 582.684 77.2922C587.859 75.8954 585.663 67.7842 580.471 69.181C571.036 71.722 561.369 72.8327 551.601 72.4793C541.833 72.1259 532.448 70.4936 523.013 68.5415C518.337 67.5655 513.562 66.724 509.019 65.2095C505.042 63.8969 501.498 61.6251 498.203 59.0335C491.414 53.6821 485.174 47.5398 479.549 40.96C473.21 33.5556 467.752 25.4443 463.109 16.8451L456.57 21.9441C474.657 40.0008 501.082 37.9814 524.311 41.3807C535.543 43.0299 546.243 46.5638 555.994 52.4873C565.113 58.0238 572.95 65.3273 579.356 73.8929C586.711 83.7374 593.867 91.5457 604.799 97.7217C609.475 100.364 613.252 96.1398 608.56 93.4978L608.61 93.481Z" fill="#BEC3AB"/>
<path d="M471.479 38.6881C466.886 38.8732 462.31 39.3108 457.751 39.9671C455.654 40.27 453.574 40.6066 451.494 41.0104C449.414 41.4143 446.785 41.6667 444.838 42.7606C440.196 45.3689 442.043 51.0233 445.487 53.6316C448.482 55.9034 451.561 57.906 454.406 60.4134C460.164 65.4787 465.672 71.0825 472.461 74.7342C479.666 78.6216 487.753 80.2876 495.873 80.5737C504.992 80.8934 514.111 79.4967 523.08 77.898C525.293 77.5109 526.541 74.7679 525.992 72.7149C525.343 70.3421 523.096 69.3829 520.867 69.7699C507.738 72.0922 493.577 74.0779 480.731 69.3155C474.74 67.0942 469.798 63.005 465.106 58.7811C462.577 56.5093 460.097 54.187 457.468 52.033C456.153 50.9559 454.806 49.8958 453.424 48.9029C452.692 48.3812 451.927 47.8932 451.195 47.3883C450.978 47.2201 450.745 47.0854 450.496 46.9676C449.647 45.9411 449.531 46.5638 450.146 48.8356L448.649 50.3501C449.597 49.6433 452.293 49.4077 453.724 49.1385C455.671 48.7683 457.618 48.4317 459.581 48.1456C463.525 47.5903 467.519 47.2705 471.496 47.1191C476.837 46.9003 476.854 38.4862 471.496 38.705L471.479 38.6881Z" fill="#BEC3AB"/>
<path d="M492.179 115.694C484.957 111.184 478.235 105.984 472.111 100.061C465.988 94.1372 460.796 87.2881 453.558 82.7613C446.818 78.5543 438.715 76.0637 430.927 74.7174C423.14 73.3712 416.034 73.1861 408.596 74.4482C400.409 75.8449 392.755 79.463 386.648 85.1678C384.268 87.3891 385.616 91.2933 388.478 92.202C401.807 96.3754 415.618 100.7 426.401 110.057C431.926 114.853 437.101 119.716 443.89 122.644C450.196 125.354 457.035 126.599 463.874 126.582C471.512 126.565 479.167 125.051 486.339 122.409C488.452 121.635 489.866 119.548 489.251 117.226C488.685 115.173 490.066 117.983 487.936 118.757C476.255 123.065 458.899 120.036 447.184 114.987C441.028 112.329 436.485 107.65 431.426 103.376C425.968 98.765 419.911 95.1301 413.405 92.2525C406.017 88.971 398.363 86.4972 390.675 84.0908L392.505 91.125C402.123 82.1387 416.267 80.6746 428.681 82.8286C435.786 84.0571 443.141 86.1775 449.314 90.0311C455.887 94.1204 460.663 100.667 466.187 106.018C472.81 112.43 480.148 118.101 487.936 122.981C492.512 125.842 496.689 118.555 492.129 115.711L492.179 115.694Z" fill="#BEC3AB"/>
<path d="M428.398 145.059C418.713 142.956 408.729 140.852 399.927 136.056C390.658 131.008 384.801 122.459 377.346 115.24C362.936 101.272 344.299 91.6466 324.631 88.1631C313.498 86.1942 300.968 85.1845 291.683 92.8918C289.753 94.4905 290.202 98.462 292.532 99.5053C298.905 102.349 304.596 106.708 308.64 112.497C313.182 119.009 316.394 126.33 322.185 131.9C333.1 142.401 348.443 146.372 363.152 146.557C373.203 146.692 386.501 144.067 396.419 142.636C398.648 142.316 396.549 140.617 396.016 138.614C395.351 136.191 395.717 138.631 393.471 138.951C378.095 141.139 359.392 140.112 344.283 135.249C338.209 133.296 332.418 130.183 327.826 125.69C322.534 120.507 319.672 113.574 315.395 107.617C310.586 100.936 304.23 95.5507 296.742 92.2187L297.591 98.8322C304.33 93.2452 315.246 94.9281 323.116 96.3753C332.252 98.0581 341.138 101.054 349.391 105.345C357.645 109.636 365.665 115.358 372.454 122.123C379.659 129.308 385.616 137.453 394.552 142.636C404.27 148.274 415.352 150.798 426.201 153.154C431.426 154.281 433.656 146.187 428.415 145.043L428.398 145.059Z" fill="#BEC3AB"/>
<path d="M442.392 147.533C454.639 162.359 449.231 184.32 443.124 200.525C439.93 209.007 435.204 216.411 428.581 222.537C421.958 228.662 414.753 233.004 407.282 237.346C398.429 242.495 389.061 248.621 378.694 249.815L382.704 255.133C388.978 239.601 395.168 224.035 401.541 208.536C404.386 201.636 407.914 195.561 412.806 189.94C417.948 184.034 423.04 178.178 427.716 171.901C432.874 164.984 437.583 157.714 441.843 150.192C444.506 145.48 437.317 141.24 434.655 145.951C427.017 159.448 417.848 171.581 407.648 183.159C402.356 189.166 398.113 195.46 394.952 202.865C391.79 210.269 388.728 218.145 385.633 225.785C381.972 234.821 378.328 243.858 374.667 252.895C373.702 255.268 376.181 258.516 378.678 258.213C389.477 256.967 398.879 251.818 408.197 246.467C416.717 241.586 425.203 236.521 432.674 230.059C440.146 223.597 446.103 215.048 450.03 205.507C454.14 195.527 457.185 184.69 457.851 173.869C458.566 162.275 455.671 150.562 448.233 141.559C446.785 139.809 443.84 140.062 442.342 141.559C440.628 143.293 440.895 145.766 442.342 147.516L442.392 147.533Z" fill="#BEC3AB"/>
<path d="M389.161 216.058C379.343 228.427 362.437 227.888 348.26 227.35L351.205 234.535C361.239 222.604 371.007 210.353 381.473 198.826C390.575 188.796 400.842 180.046 412.324 172.944C418.73 168.989 418.131 167.896 425.086 165.035C427.166 164.177 435.936 159.852 435.304 157.462C434.755 155.476 437.4 149.873 435.303 150.731C422.291 156.082 405.036 166.903 393.953 175.637C382.239 184.875 372.637 196.066 363.053 207.476C357.145 214.51 351.238 221.544 345.314 228.578C342.985 231.355 344.499 235.612 348.26 235.764C364.567 236.37 383.836 236.117 395.051 222.015C396.449 220.248 396.765 217.791 395.051 216.058C393.604 214.594 390.575 214.274 389.161 216.058Z" fill="#BEC3AB"/>
<path d="M348.542 174.29C340.056 187.467 331.886 201.67 321.918 213.837C317.758 218.044 309.106 223.917 301.917 227.703C293.947 231.893 285.826 235.293 278.754 240.997C271.682 246.702 265.475 254.679 261.532 263.278L269.286 265.398C270.85 239.315 282.565 214.19 300.952 195.898C306.194 190.681 311.934 186.07 318.174 182.115C322.701 179.238 318.973 174.761 314.43 177.656C290.618 192.801 272.514 214.274 264.91 241.637C262.763 249.378 261.465 257.371 260.983 265.398C260.733 269.437 267.006 271.305 268.737 267.519C272.198 259.98 277.107 253.383 283.38 248.015C290.036 242.31 298.156 239.129 305.811 235.141C313.465 231.153 319.722 226.121 325.163 219.743C330.605 213.365 334.631 206.937 338.608 200.054C343.118 192.263 347.311 184.269 352.187 176.697C355.115 172.153 349.807 170.605 346.878 175.132L348.542 174.29Z" fill="#BEC3AB"/>
<path d="M255.415 175.805C240.489 145.901 213.299 122.964 181.983 112.396C173.08 109.4 163.878 107.516 154.543 106.624C150.816 106.27 149.235 111.386 151.598 113.809C162.78 125.253 173.746 137.016 185.277 148.105C190.719 153.322 196.559 158.101 203.082 161.888C209.239 165.472 215.845 168.266 222.534 170.655C230.189 173.365 238.043 175.485 245.88 177.588C251.055 178.968 253.269 170.857 248.093 169.477C234.915 165.943 221.519 162.409 209.439 155.846C196.459 148.795 186.658 137.722 176.425 127.255C170.102 120.793 163.795 114.331 157.472 107.886L154.527 115.072C185.244 117.983 216.294 132.051 236.046 155.846C239.55 160.828 247.927 168.922 251.854 176.814C254.267 181.644 257.811 180.651 255.398 175.838L255.415 175.805Z" fill="#BEC3AB"/>
<path d="M214.59 174.867C202.842 190.18 175.17 196.487 156.716 199.903C146.349 201.821 135.783 202.36 125.266 202.461C114.75 202.562 104.466 202.074 94.5819 198.758C85.5131 195.729 77.1266 190.008 72.251 181.56L70.7534 187.315C78.0084 183.209 87.3601 186.407 95.1643 186.507C103.984 186.625 112.586 184.168 120.89 181.459C129.01 178.8 137.247 175.653 145.8 174.812C154.969 173.92 167.998 172.54 188.798 174.812C195.454 175.131 204.606 175.973 216.254 176.814C218.484 176.495 208.716 175.115 208.183 173.112C207.518 170.689 191.045 166.414 188.798 166.717C170.128 169.359 166.001 164.934 147.314 166.263C138.245 166.903 129.642 169.696 121.073 172.54C112.503 175.384 104.549 178.043 95.8798 178.077C85.9291 178.11 75.8286 174.778 66.5435 180.029C64.58 181.139 63.931 183.849 65.0459 185.784C76.0283 204.901 98.692 210.387 119.043 210.824C141.141 211.295 164.37 209.444 184.605 199.785C194.655 194.989 212.743 186.575 219.582 177.656C220.963 175.855 212.477 174.93 210.746 173.179C209.315 171.732 213.492 169.965 212.094 171.766L214.59 174.867Z" fill="#BEC3AB"/>
<path d="M225.889 172.624C216.021 174.257 208.217 181.072 204.024 190.058C201.877 194.652 199.697 198.775 196.136 202.41C192.575 206.045 188.831 208.788 184.838 211.531C175.935 217.623 166.883 223.715 157.082 228.225C148.779 232.028 139.976 234.586 131.49 237.901C121.606 241.755 111.988 246.584 104.649 254.494L111.189 259.593C118.461 242.428 126.847 225.768 136.299 209.714C139.044 205.052 131.856 200.811 129.11 205.473C119.659 221.51 111.272 238.17 104 255.352C103.185 257.287 103.268 259.424 105.065 260.787C106.663 261.999 109.092 262.016 110.523 260.451C122.92 247.089 141.873 243.791 157.931 236.959C167.998 232.684 177.15 226.794 186.219 220.702C194.239 215.317 202.41 209.596 207.668 201.249C210.613 196.588 211.978 191.017 215.871 186.996C219.199 183.563 229.566 179.339 238.718 180.18C240.931 179.81 231.53 177.605 230.981 175.569C230.332 173.18 228.085 172.254 225.855 172.624H225.889Z" fill="#BEC3AB"/>
<path d="M126.914 135.215C117.579 121.736 109.109 107.65 101.604 93.0266C97.91 85.8241 94.5321 78.4869 91.2207 71.0993C87.9094 63.7117 84.4149 56.7449 78.9404 50.9728C73.4658 45.2007 65.8447 40.6739 57.8908 38.5367C54.9954 37.7626 51.7006 40.6066 52.7656 43.7198C55.245 50.9728 55.2782 58.5959 56.1601 66.135C56.9921 73.287 58.7394 80.052 61.5848 86.6486C64.4303 93.2453 68.1244 98.9165 72.6338 104.15C76.7938 108.963 81.7692 112.901 86.5615 117.04C91.3539 121.18 96.7453 126.094 99.0582 132.472C100.939 137.655 107.079 130.234 107.079 130.234C106.929 129.19 102.27 128.013 102.27 128.013C102.27 128.013 103.484 123.603 101.521 124.142C99.1248 124.815 98.3094 127.053 98.6089 129.325C98.7587 130.368 98.8918 131.412 99.0416 132.472L118.078 135.585C118.078 135.585 91.2873 110.965 82.2185 102.131C73.1497 93.2958 66.4936 80.5063 64.63 67.313C63.4152 58.6801 63.6482 49.8284 60.7861 41.4816L55.661 46.6647C61.9509 48.3644 67.6917 51.5954 72.3343 56.2232C77.5094 61.3894 80.7375 68.0534 83.7161 74.6669C90.1724 89.0214 97.0614 103.073 105.065 116.62C109.675 124.411 114.55 132.018 119.708 139.456C120.99 141.307 123.353 142.182 125.399 140.97C127.213 139.893 135.184 145.867 133.886 143.999L126.914 135.215Z" fill="#BEC3AB"/>
<path d="M54.4629 104.958C34.9275 90.0144 23.6788 66.8924 15.0093 44.3426L8.90241 49.0881C17.289 53.514 26.7072 54.0525 35.593 56.9133C44.4788 59.7741 50.6855 59.0168 64.8295 92.6734C66.2772 94.4235 60.5031 74.179 62.0007 72.6645C63.7147 70.9312 63.4484 68.4574 62.0007 66.7073C55.8939 59.3365 48.8052 52.8745 39.7863 49.4752C30.7674 46.0759 21.3824 46.1768 13.1123 41.8183C10.2169 40.2869 5.59102 42.9122 7.00542 46.5639C16.5734 71.4024 40.7017 106.977 49.0217 111.184C55.6777 115.392 54.9454 112.497 55.9771 110.696C57.2251 108.542 56.2766 106.321 54.4795 104.941L54.4629 104.958Z" fill="#BEC3AB"/>
<path d="M101.854 132.842C95.9964 135.467 89.6732 137.571 83.3167 138.48C76.9602 139.388 70.3874 138.867 64.0975 137.571C50.9851 134.862 38.7714 129.14 26.1915 124.731C19.003 122.224 11.698 120.288 4.14344 119.312L6.24 127.154C12.5466 123.233 18.8531 119.295 24.8436 114.903C27.5892 112.884 30.1684 110.477 33.1304 108.795C36.0923 107.112 39.7697 106.641 43.1476 106.136C45.3774 105.799 46.5921 102.972 46.0596 100.953C45.4106 98.5462 43.181 97.6711 40.9346 98.0077C37.124 98.5798 33.3966 99.2866 29.9022 101.003C26.7406 102.568 24.0948 105.059 21.266 107.162C15.0926 111.756 8.55302 115.812 2.03012 119.884C-1.76381 122.257 0.233016 127.222 4.12679 127.726C31.2168 131.21 55.0453 150.478 83.2668 146.894C91.1875 145.884 98.7587 143.36 106.047 140.078C108.094 139.153 108.576 136.124 107.545 134.323C106.313 132.186 103.917 131.883 101.854 132.808V132.842Z" fill="#BEC3AB"/>
</g>
<defs>
<clipPath id="clip0_386_532">
<rect width="1000" height="335" fill="white" transform="matrix(-1 0 0 -1 1000 335)"/>
</clipPath>
</defs>
</svg>
