<svg width="250" height="84" viewBox="0 0 250 84" fill="none" xmlns="http://www.w3.org/2000/svg">
<g clip-path="url(#clip0_386_532)">
<path d="M249.251 81.9406C241.284 80.2652 236.292 73.1165 232.711 66.2632C230.651 62.3259 228.842 58.2493 226.537 54.4471C224.54 51.1513 222.173 48.0749 219.544 45.2728C208.133 33.1233 192.23 26.5316 176.064 24.2022C167.116 22.9151 157.997 22.7252 148.99 23.4637C139.984 24.2022 130.998 26.1223 122.508 29.5532C114.321 32.8617 106.521 37.1197 98.1843 40.0526C89.5606 43.0826 80.4668 44.3359 71.3564 44.1123C53.1646 43.6649 35.6842 37.4657 19.5309 29.3422C17.5133 28.3294 15.5165 27.2828 13.528 26.2151C12.3466 25.5779 8.92709 26.6076 14.3351 29.1396C30.1972 37.6641 45.2648 43.6101 63.236 45.661C72.2008 46.6822 81.3362 46.429 90.1721 44.5216C98.9164 42.6352 106.991 38.8077 115.091 35.0898C123.406 31.2707 131.785 28.0846 140.833 26.578C149.901 25.0673 159.249 24.8141 168.405 25.4851C185.212 26.7173 202.151 32.0008 214.868 43.6058C217.801 46.2856 220.489 49.2565 222.785 52.5185C225.252 56.0212 227.174 59.8487 229.075 63.6847C232.565 70.7195 236.53 78.1847 243.627 82.0841C245.22 82.9576 246.925 83.6033 248.698 83.9746C250.004 84.2489 250.561 82.2149 249.251 81.9406Z" fill="#BEC3AB"/>
<path d="M228.405 57.7599C228.809 52.3751 228.443 46.9439 227.345 41.6605C226.8 39.0356 226.072 36.4487 225.156 33.9336C224.241 31.4185 223.197 29.0426 221.666 26.9115C219.985 24.5693 217.91 22.5944 215.817 20.6405C215.226 20.0877 213.924 20.4126 214.041 21.3874C214.969 29.0679 217.706 36.4783 222.065 42.8378C223.301 44.6398 224.657 46.3531 226.121 47.9694C227.033 48.9695 227.815 48.7079 226.912 47.7078C222.028 42.3315 219.166 34.5244 217.298 27.4685C216.77 25.4724 216.366 23.4384 216.121 21.3874L214.345 22.1344C216.142 23.814 217.96 25.502 219.478 27.4516C220.996 29.4013 222.086 31.6506 222.952 33.9589C224.753 38.7529 225.889 43.8211 226.3 48.9358C226.537 51.8729 226.542 54.8269 226.321 57.7641C226.28 58.3338 226.829 58.8191 227.361 58.8191C227.96 58.8191 228.36 58.3338 228.401 57.7641L228.405 57.7599Z" fill="#BEC3AB"/>
<path d="M229.554 61.7014C225.211 59.431 220.801 57.1606 216.088 55.7891C211.374 54.4176 206.486 54.1475 201.711 55.422C199.002 56.1436 196.407 57.2619 193.877 58.4773C192.821 58.9837 193.569 60.811 194.68 60.4058C196.698 59.6715 198.799 60.3932 200.629 61.33C202.568 62.3217 204.415 63.5118 206.532 64.0857C208.787 64.6934 211.183 64.7989 213.504 64.9086C215.826 65.0183 218.284 65.031 220.668 64.9297C223.422 64.8115 226.163 64.5457 228.892 64.1532C229.45 64.073 229.753 63.3556 229.62 62.8534C229.454 62.2458 228.9 62.039 228.339 62.1149C223.601 62.7901 218.792 63.018 214.012 62.8155C211.74 62.7226 209.386 62.6467 207.173 62.0685C205.101 61.5284 203.329 60.3256 201.432 59.3804C199.194 58.2663 196.577 57.4771 194.127 58.3676L194.93 60.2961C199.073 58.3 203.47 56.65 208.117 56.6627C212.764 56.6753 217.161 58.1228 221.317 59.9712C223.759 61.0557 226.134 62.2837 228.505 63.5244C229.695 64.1448 230.747 62.3259 229.554 61.7014Z" fill="#BEC3AB"/>
<path d="M223.376 59.3128C217.298 52.2189 210.775 44.5891 200.845 44.8465C198.191 44.9141 195.579 45.5766 193.262 46.9017C192.629 47.2646 192.642 48.0495 193.049 48.5602C195.874 52.0797 199.601 54.7425 203.778 56.3546C204.302 56.5571 204.918 56.1309 205.059 55.6161C205.222 55.021 204.768 55.8228 204.24 55.6161C200.4 54.1348 197.114 50.2904 194.522 47.0663L194.31 48.7248C198.062 46.581 202.572 46.5514 206.628 47.7584C210.684 48.9653 214.528 51.6914 217.706 54.7299C219.578 56.5191 221.304 58.4519 222.989 60.4184C223.359 60.8489 224.083 60.8025 224.462 60.4184C224.882 59.9922 225.826 60.1695 225.456 59.7348L223.376 59.3128Z" fill="#BEC3AB"/>
<path d="M209.619 37.643C207.41 39.2424 204.96 40.9726 202.106 40.3101C199.252 39.6476 197.01 37.7063 194.505 36.4319C191.826 35.0688 188.973 34.0476 186.036 33.4357C183.099 32.8238 179.667 32.3174 176.663 33.1909C174.991 33.6762 173.456 34.5455 171.946 35.398C170.257 36.3475 168.568 37.297 166.879 38.2465C166.192 38.6347 166.217 39.6771 166.879 40.0696C170.477 42.2049 174.475 43.627 178.602 44.2094C183.09 44.8424 187.517 44.3487 191.959 43.5848C194.389 43.1671 196.839 42.8126 199.115 41.8166C199.631 41.5888 199.747 40.8207 199.489 40.3734C199.177 39.8332 198.582 39.7699 198.066 39.9936C196.228 40.7996 194.173 41.0655 192.213 41.4073C190.063 41.7871 187.908 42.1416 185.728 42.3146C181.743 42.6269 177.778 42.2133 173.963 40.9811C171.854 40.3017 169.841 39.3775 167.931 38.2465V40.0696C169.441 39.2213 170.947 38.3731 172.457 37.5249C173.772 36.7864 175.086 35.9804 176.505 35.4613C179.355 34.4189 182.587 34.8663 185.487 35.4739C188.386 36.0816 191.173 37.0607 193.79 38.428C196.34 39.7615 198.711 41.6858 201.557 42.3484C203.15 42.7197 204.793 42.6227 206.324 42.0319C207.855 41.4411 209.303 40.462 210.675 39.4703C211.133 39.1412 211.349 38.5503 211.05 38.0271C210.788 37.5671 210.085 37.3181 209.627 37.6473L209.619 37.643Z" fill="#BEC3AB"/>
<path d="M206.736 35.0477C203.408 30.4057 204.602 25.4092 204.032 20.1553C203.703 17.1337 203.088 14.0193 201.336 11.4789C199.83 9.29291 197.684 7.76104 195.562 6.25027C193.441 4.7395 191.169 3.09369 190.083 0.561678C189.663 -0.417369 188.112 0.101692 188.145 1.0934C188.228 3.54523 188.96 5.87047 189.805 8.14929C190.537 10.1158 191.281 12.0781 192.13 13.994C193.815 17.7963 196.045 21.282 199.423 23.7465C199.938 24.1221 200.467 24.4808 200.987 24.8564C201.465 25.2024 201.919 25.6751 202.434 25.9494C203.158 26.3334 204.148 25.9747 204.265 25.1011C204.361 24.3922 203.774 23.717 203.063 23.7339C202.555 23.7465 202.243 24.063 202.06 24.5103L202.035 24.5694C201.819 25.0969 202.268 25.7299 202.763 25.8692C203.362 26.038 203.824 25.6624 204.044 25.1307L204.069 25.0716L203.067 25.8481H203.121C202.946 25.7974 202.771 25.751 202.597 25.7046L202.497 25.6413L202.231 25.1771L202.247 25.2488L202.351 24.4344L202.314 24.4977L202.934 24.0124L202.817 24.0546H203.37C203.121 24.0082 202.672 23.506 202.43 23.3245C202.023 23.0164 201.602 22.7253 201.182 22.4341C200.463 21.9319 199.764 21.4171 199.119 20.8178C197.917 19.7037 196.91 18.4124 196.049 17.0198C194.252 14.1164 193.045 10.8881 191.851 7.69352C191.061 5.57507 190.308 3.39332 190.229 1.10606L188.29 1.63779C190.37 6.48238 195.857 8.10287 199.069 11.9304C200.899 14.1122 201.59 17.0409 201.914 19.8219C202.264 22.8181 202.276 25.8396 202.805 28.8148C203.362 31.9587 204.552 35.1195 206.977 37.2717C207.402 37.6473 208.034 37.6937 208.45 37.2717C208.828 36.8877 207.568 35.4697 207.568 35.4697L206.736 35.0477Z" fill="#BEC3AB"/>
<path d="M192.796 28.0509C189.755 22.6957 185.74 17.8933 180.915 14.1037C176.031 10.2677 170.178 7.30521 164.017 6.41479C160.165 5.85774 156.25 6.14048 152.697 7.84538C151.928 8.21252 152.073 9.63889 152.947 9.77393C154.94 10.082 156.728 10.9513 158.48 11.9261C160.231 12.901 162.103 13.9602 163.996 14.8337C167.848 16.6062 171.883 17.9481 176.035 18.7795C178.402 19.2563 182.491 19.6952 184.896 19.8556C185.457 19.8935 184.243 19.2226 184.243 18.6782C184.243 18.0747 184.417 18.4165 183.856 18.3786C179.754 18.1 175.045 16.5724 171.118 15.3401C167.191 14.1079 163.472 12.3144 159.844 10.2803C157.852 9.16203 155.767 8.09436 153.492 7.73987L153.742 9.66843C159.353 6.97605 166.134 8.4193 171.571 10.8627C176.834 13.2259 181.48 16.8087 185.316 21.1385C187.483 23.5861 189.372 26.2658 190.99 29.1185C191.66 30.2959 193.457 29.2325 192.787 28.0551L192.796 28.0509Z" fill="#BEC3AB"/>
<path d="M170.169 23.7212C163.285 29.3507 156.03 35.2165 147.123 36.9763C144.694 37.4574 142.202 37.5629 139.743 37.2675L140.479 39.0694C142.01 37.508 143.545 35.9424 145.076 34.381C146.607 32.8196 147.972 31.3552 149.502 29.9331C152.31 27.3166 155.701 25.616 159.482 25.0589C160.04 24.9745 160.343 24.2613 160.21 23.7592C160.048 23.1557 159.491 22.9405 158.929 23.0207C155.917 23.468 152.989 24.6327 150.497 26.4093C147.768 28.3505 145.513 30.9416 143.171 33.3302C141.782 34.7481 140.392 36.1618 139.003 37.5797C138.308 38.2845 138.886 39.2762 139.739 39.3817C149.145 40.5127 154.698 37.3898 162.016 31.8827C165.822 28.2155 167.823 26.844 169.92 25.1306C170.357 24.7719 171.742 24.8732 171.376 24.4977C170.943 24.0588 170.606 23.3667 170.165 23.7254L170.169 23.7212Z" fill="#BEC3AB"/>
<path d="M171.355 24.5988C168.614 28.8864 165.847 33.2077 162.374 36.9382C160.693 38.7443 158.829 40.5843 156.687 41.8165C155.526 42.4833 154.282 42.6816 152.98 42.88C151.678 43.0783 150.522 43.4201 149.394 44.0489C147.015 45.3698 145.243 47.56 143.708 49.7755L145.646 50.3072C145.646 45.9521 147.269 41.673 150.168 38.4574C151.071 37.4572 149.602 35.9591 148.695 36.9635C145.426 40.5927 143.566 45.3867 143.562 50.3072C143.562 51.4171 144.931 51.6618 145.501 50.8389C146.803 48.961 148.309 47.0958 150.301 45.9479C151.341 45.3487 152.452 45.0786 153.625 44.9014C154.99 44.6946 156.267 44.4287 157.502 43.7704C159.719 42.5803 161.679 40.6982 163.418 38.8878C165.157 37.0774 166.829 34.9716 168.351 32.8658C170.04 30.5279 171.6 28.0972 173.152 25.6665C173.884 24.5228 172.083 23.4636 171.355 24.603V24.5988Z" fill="#BEC3AB"/>
<path d="M137.318 25.2572C137.023 29.6503 136.003 34.0011 134.814 38.2253C133.719 42.112 132.255 45.9775 129.797 49.1974C128.565 50.8095 127.093 52.2316 125.395 53.3288L126.922 54.5189C127.488 52.3118 126.543 50.2229 126.098 48.096C125.736 46.3784 125.616 44.6145 125.691 42.8589C125.845 39.3183 126.872 35.8157 128.632 32.7562C129.63 31.0218 130.857 29.4604 132.297 28.0804C133.274 27.1478 132.833 26.7342 131.856 27.6626C126.406 32.8702 122.783 39.6813 123.827 47.1676C123.977 48.231 124.214 49.2692 124.501 50.2988C124.83 51.4804 125.229 52.7211 124.913 53.9534C124.692 54.8143 125.657 55.6498 126.439 55.1434C133.803 50.3917 136.423 41.3397 138.204 33.1824C138.774 30.5702 139.215 27.9243 139.39 25.253C139.427 24.6833 139.048 25.5526 138.512 25.5526C137.917 25.5526 137.326 25.0881 137.289 25.6578L137.318 25.2572Z" fill="#BEC3AB"/>
<path d="M152.152 23.4342C149.889 22.1513 148.45 19.9063 146.94 17.8469C145.268 15.5638 143.375 13.5636 141.045 11.9642C138.716 10.3648 136.128 9.24224 133.416 8.65144C130.225 7.95092 126.947 7.97624 123.727 7.48672C120.798 7.04361 117.787 6.16162 115.623 4.00097C114.775 3.15274 113.427 4.22886 113.988 5.27964C116.172 9.34775 119.13 13.0107 122.666 15.9436C123.594 16.7159 124.555 17.4671 125.657 17.965C126.83 18.4925 128.074 18.7584 129.322 19.0285C131.827 19.5644 134.352 20.0455 136.906 20.227C139.851 20.4338 142.817 20.1468 145.671 19.3745C146.965 19.0243 146.416 16.9902 145.118 17.3405C142.759 17.9777 140.342 18.2562 137.9 18.1676C135.458 18.079 133.112 17.6696 130.753 17.1801C129.584 16.9354 128.39 16.7244 127.255 16.3445C126.26 16.0154 125.374 15.4457 124.551 14.7958C122.853 13.4538 121.293 11.9135 119.887 10.2635C118.302 8.40668 116.938 6.37263 115.777 4.21619L114.142 5.49486C118.664 10.023 125.27 9.51655 131.078 10.369C133.886 10.7826 136.561 11.6688 138.998 13.1542C141.278 14.5426 143.238 16.3741 144.839 18.5221C146.678 20.9908 148.467 22.9489 151.2 24.4977C152.369 25.1602 153.313 24.101 152.14 23.4384L152.152 23.4342Z" fill="#BEC3AB"/>
<path d="M117.87 9.69381C116.722 9.74023 115.578 9.84995 114.438 10.0145C113.914 10.0905 113.394 10.1749 112.874 10.2762C112.354 10.3775 111.696 10.4408 111.21 10.7151C110.049 11.3692 110.511 12.7871 111.372 13.4412C112.121 14.0109 112.89 14.5131 113.602 15.1419C115.041 16.4121 116.418 17.8174 118.115 18.7331C119.916 19.7079 121.938 20.1257 123.968 20.1975C126.248 20.2776 128.528 19.9274 130.77 19.5265C131.323 19.4294 131.635 18.7415 131.498 18.2267C131.336 17.6317 130.774 17.3911 130.217 17.4882C126.934 18.0706 123.394 18.5685 120.183 17.3743C118.685 16.8172 117.45 15.7917 116.276 14.7325C115.644 14.1628 115.024 13.5805 114.367 13.0403C114.038 12.7702 113.701 12.5043 113.356 12.2554C113.173 12.1245 112.982 12.0022 112.799 11.8756C112.745 11.8334 112.686 11.7996 112.624 11.7701C112.412 11.5126 112.383 11.6688 112.537 12.2385L112.162 12.6183C112.399 12.441 113.073 12.382 113.431 12.3144C113.918 12.2216 114.404 12.1372 114.895 12.0655C115.881 11.9262 116.88 11.846 117.874 11.808C119.209 11.7532 119.213 9.64317 117.874 9.69803L117.87 9.69381Z" fill="#BEC3AB"/>
<path d="M123.045 29.0047C121.239 27.8737 119.559 26.5698 118.028 25.0843C116.497 23.5989 115.199 21.8813 113.389 20.7461C111.705 19.6911 109.679 19.0665 107.732 18.7289C105.785 18.3913 104.009 18.3449 102.149 18.6614C100.102 19.0117 98.1887 19.919 96.662 21.3496C96.0671 21.9066 96.4041 22.8857 97.1196 23.1136C100.452 24.1601 103.905 25.2447 106.6 27.591C107.981 28.7937 109.275 30.0133 110.972 30.7476C112.549 31.427 114.259 31.7393 115.969 31.7351C117.878 31.7308 119.792 31.351 121.585 30.6885C122.113 30.4944 122.467 29.9711 122.313 29.3887C122.171 28.8739 122.516 29.5786 121.984 29.7727C119.064 30.8531 114.725 30.0935 111.796 28.8275C110.257 28.1607 109.121 26.9875 107.857 25.9156C106.492 24.7594 104.978 23.8478 103.351 23.1262C101.504 22.3033 99.5907 21.683 97.6687 21.0795L98.1263 22.8435C100.531 20.59 104.067 20.2228 107.17 20.763C108.947 21.0711 110.785 21.6028 112.329 22.5692C113.972 23.5946 115.166 25.2362 116.547 26.5782C118.203 28.186 120.037 29.6082 121.984 30.832C123.128 31.5494 124.172 29.7221 123.032 29.0089L123.045 29.0047Z" fill="#BEC3AB"/>
<path d="M107.099 36.3685C104.678 35.841 102.182 35.3135 99.9817 34.1108C97.6646 32.8448 96.2003 30.701 94.3366 28.8906C90.734 25.388 86.0748 22.9742 81.1577 22.1006C78.3746 21.6069 75.2421 21.3537 72.9208 23.2864C72.4383 23.6873 72.5506 24.6833 73.133 24.9449C74.7263 25.6581 76.149 26.7511 77.1599 28.2028C78.2956 29.8359 79.0985 31.6716 80.5461 33.0685C83.2751 35.7018 87.1106 36.6977 90.7881 36.7441C93.3007 36.7779 96.6253 36.1195 99.1047 35.7608C99.6621 35.6807 99.1372 35.2544 99.0041 34.7523C98.8377 34.1446 98.9293 34.7565 98.3677 34.8367C94.5238 35.3853 89.8479 35.1278 86.0706 33.9082C84.5522 33.4187 83.1045 32.638 81.9564 31.5113C80.6335 30.2115 79.918 28.4729 78.8489 26.979C77.6466 25.3036 76.0575 23.9532 74.1855 23.1176L74.3977 24.7761C76.0825 23.3751 78.8114 23.7971 80.7791 24.16C83.0629 24.582 85.2844 25.3332 87.3478 26.4093C89.4111 27.4854 91.4162 28.9202 93.1135 30.6166C94.9148 32.4186 96.4041 34.4611 98.638 35.7608C101.067 37.1745 103.838 37.8076 106.55 38.3984C107.857 38.6811 108.414 36.6513 107.104 36.3643L107.099 36.3685Z" fill="#BEC3AB"/>
<path d="M110.598 36.989C113.66 40.7068 112.308 46.2139 110.781 50.2778C109.982 52.4047 108.801 54.2615 107.145 55.7976C105.49 57.3337 103.688 58.4225 101.82 59.5112C99.6074 60.8026 97.2653 62.3387 94.6736 62.6383L95.6762 63.9718C97.2445 60.0767 98.792 56.1732 100.385 52.2866C101.097 50.5563 101.979 49.0329 103.202 47.6234C104.487 46.1422 105.76 44.6736 106.929 43.0996C108.219 41.3651 109.396 39.5421 110.461 37.6557C111.126 36.4741 109.329 35.4107 108.664 36.5923C106.754 39.9767 104.462 43.0194 101.912 45.9228C100.589 47.4293 99.5283 49.0076 98.7379 50.8644C97.9475 52.7212 97.1821 54.6962 96.4083 56.6121C95.4931 58.8782 94.5821 61.1444 93.6669 63.4105C93.4256 64.0056 94.0454 64.82 94.6694 64.7441C97.3693 64.4318 99.7197 63.1405 102.049 61.7985C104.179 60.5747 106.301 59.3045 108.169 57.684C110.037 56.0635 111.526 53.9197 112.508 51.527C113.535 49.0245 114.296 46.3068 114.463 43.5933C114.642 40.6857 113.918 37.7486 112.058 35.4908C111.696 35.052 110.96 35.1153 110.586 35.4908C110.157 35.9255 110.224 36.5459 110.586 36.9847L110.598 36.989Z" fill="#BEC3AB"/>
<path d="M97.2902 54.1728C94.8358 57.2745 90.6092 57.1394 87.0649 57.0044L87.8012 58.8064C90.3097 55.8144 92.7516 52.7422 95.3683 49.8515C97.6438 47.3363 100.211 45.1419 103.081 43.3611C104.683 42.3693 104.533 42.0951 106.272 41.3777C106.792 41.1624 108.984 40.0779 108.826 39.4786C108.689 38.9807 109.35 37.5754 108.826 37.7906C105.573 39.1326 101.259 41.8461 98.4883 44.0363C95.5596 46.3531 93.1593 49.1594 90.7631 52.0206C89.2863 53.7845 87.8095 55.5485 86.3286 57.3125C85.7462 58.0088 86.1247 59.0764 87.0649 59.1144C91.1417 59.2663 95.959 59.203 98.7628 55.6667C99.1123 55.2236 99.1913 54.6074 98.7628 54.1728C98.4009 53.8056 97.6438 53.7254 97.2902 54.1728Z" fill="#BEC3AB"/>
<path d="M87.1355 43.6987C85.0139 47.0029 82.9714 50.5647 80.4795 53.6157C79.4395 54.6707 77.2763 56.1435 75.4792 57.093C73.4866 58.1438 71.4565 58.9963 69.6885 60.4269C67.9205 61.8574 66.3688 63.8577 65.3829 66.0142L67.3214 66.5459C67.7125 60.0049 70.6411 53.7044 75.2379 49.1172C76.5483 47.809 77.9835 46.6527 79.5435 45.661C80.6751 44.9394 79.7432 43.8168 78.6075 44.5427C72.6545 48.3407 68.1285 53.7255 66.2273 60.5872C65.6907 62.5284 65.3662 64.5329 65.2456 66.5459C65.1832 67.5587 66.7515 68.0271 67.1842 67.0776C68.0494 65.1871 69.2766 63.5328 70.845 62.1866C72.509 60.756 74.5391 59.9584 76.4527 58.9583C78.3663 57.9581 79.9304 56.6964 81.2908 55.097C82.6511 53.4976 83.6578 51.8855 84.652 50.1595C85.7794 48.2057 86.8277 46.2011 88.0466 44.3021C88.7788 43.1627 87.4517 42.7745 86.7195 43.9097L87.1355 43.6987Z" fill="#BEC3AB"/>
<path d="M63.8538 44.0785C60.1223 36.5795 53.3249 30.8276 45.4957 28.1774C43.2701 27.4263 40.9696 26.9536 38.6359 26.73C37.704 26.6414 37.3088 27.9242 37.8995 28.5319C40.6951 31.4015 43.4365 34.3513 46.3194 37.1323C47.6797 38.4406 49.1399 39.639 50.7706 40.5885C52.3098 41.4874 53.9613 42.1879 55.6337 42.7872C57.5473 43.4666 59.5108 43.9983 61.4702 44.5258C62.7639 44.8719 63.3172 42.8378 62.0234 42.4918C58.7287 41.6056 55.3799 40.7194 52.3597 39.0736C49.1149 37.3054 46.6647 34.5286 44.1063 31.9037C42.5255 30.2832 40.9488 28.6627 39.368 27.0465L38.6317 28.8484C46.3111 29.5785 54.0736 33.1064 59.0116 39.0736C59.8876 40.3227 61.9818 42.3525 62.9636 44.3317C63.5668 45.5429 64.4529 45.2939 63.8497 44.087L63.8538 44.0785Z" fill="#BEC3AB"/>
<path d="M53.6475 43.8433C50.7106 47.6835 43.7924 49.265 39.179 50.1216C36.5873 50.6027 33.9457 50.7378 31.3165 50.7631C28.6874 50.7884 26.1165 50.666 23.6455 49.8347C21.3783 49.0751 19.2816 47.6403 18.0628 45.5218L17.6883 46.9651C19.5021 45.9354 21.84 46.7372 23.7911 46.7625C25.9959 46.792 28.1466 46.1759 30.2225 45.4965C32.2525 44.8297 34.3117 44.0406 36.45 43.8296C38.7421 43.6059 41.9995 43.2599 47.1995 43.8296C48.8635 43.9097 51.1515 44.1207 54.0635 44.3317C54.621 44.2516 52.179 43.9055 52.0459 43.4034C51.8795 42.7957 47.7612 41.7238 47.1995 41.7997C42.532 42.4623 41.5002 41.3524 36.8286 41.6858C34.5613 41.8462 32.4106 42.5467 30.2682 43.2599C28.1258 43.9731 26.1373 44.6398 23.9699 44.6483C21.4823 44.6567 18.9572 43.8211 16.6359 45.1378C16.145 45.4163 15.9827 46.0957 16.2615 46.581C19.0071 51.375 24.673 52.7507 29.7607 52.8604C35.2852 52.9786 41.0926 52.5144 46.1511 50.0921C48.6638 48.8894 53.1858 46.7794 54.8955 44.5427C55.2408 44.0912 53.1192 43.8591 52.6865 43.4202C52.3288 43.0573 53.373 42.6142 53.0235 43.0657L53.6475 43.8433Z" fill="#BEC3AB"/>
<path d="M56.4721 43.2809C54.0052 43.6902 52.0542 45.3993 51.0059 47.6528C50.4692 48.8049 49.9243 49.8388 49.034 50.7503C48.1438 51.6618 47.2078 52.3497 46.2094 53.0376C43.9838 54.5652 41.7207 56.0929 39.2705 57.2238C37.1946 58.1776 34.994 58.819 32.8724 59.6504C30.4013 60.6167 27.9968 61.8279 26.1623 63.8113L27.7972 65.09C29.6151 60.7855 31.7117 56.6077 34.0746 52.5818C34.761 51.4129 32.9639 50.3494 32.2775 51.5184C29.9146 55.54 27.818 59.7179 26 64.0265C25.7962 64.5118 25.817 65.0478 26.2663 65.3896C26.6656 65.6934 27.273 65.6977 27.6308 65.3052C30.73 61.9545 35.4682 61.1274 39.4826 59.414C41.9994 58.3421 44.2875 56.8651 46.5547 55.3375C48.5598 53.9871 50.6023 52.5523 51.9169 50.4591C52.6532 49.2902 52.9943 47.8934 53.9678 46.8848C54.7998 46.0239 57.3915 44.9647 59.6795 45.1757C60.2328 45.0828 57.8824 44.53 57.7451 44.0194C57.5828 43.4201 57.0212 43.188 56.4638 43.2809H56.4721Z" fill="#BEC3AB"/>
<path d="M31.7285 33.8998C29.3947 30.5196 27.2773 26.9874 25.4011 23.3202C24.4776 21.5141 23.6331 19.6741 22.8052 17.8215C21.9774 15.9689 21.1038 14.2219 19.7352 12.7744C18.3665 11.3269 16.4612 10.1917 14.4728 9.65579C13.7489 9.46167 12.9252 10.1749 13.1915 10.9556C13.8113 12.7744 13.8196 14.6861 14.0401 16.5766C14.2481 18.3701 14.6849 20.0666 15.3963 21.7208C16.1076 23.3751 17.0312 24.7973 18.1585 26.1097C19.1985 27.3166 20.4424 28.3041 21.6404 29.3422C22.8385 30.3803 24.1864 31.6126 24.7646 33.212C25.2347 34.5118 26.7697 32.6507 26.7697 32.6507C26.7323 32.3891 25.5675 32.0937 25.5675 32.0937C25.5675 32.0937 25.8712 30.988 25.3803 31.1231C24.7812 31.2919 24.5774 31.8531 24.6523 32.4228C24.6897 32.6845 24.723 32.9461 24.7605 33.212L29.5195 33.9927C29.5195 33.9927 22.8219 27.8188 20.5547 25.6033C18.2875 23.3878 16.6235 20.1805 16.1576 16.872C15.8539 14.7072 15.9121 12.4874 15.1966 10.3943L13.9153 11.6941C15.4878 12.1203 16.923 12.9305 18.0836 14.091C19.3774 15.3866 20.1844 17.0577 20.9291 18.7162C22.5432 22.3159 24.2654 25.8396 26.2664 29.2367C27.4187 31.1906 28.6376 33.098 29.9272 34.9633C30.2475 35.4275 30.8382 35.6469 31.3499 35.3431C31.8034 35.073 33.796 36.5711 33.4715 36.1027L31.7285 33.8998Z" fill="#BEC3AB"/>
<path d="M13.6157 26.3123C8.73183 22.5649 5.91966 16.7666 3.75229 11.1118L2.22557 12.3018C4.32222 13.4117 6.67678 13.5467 8.89822 14.2641C11.1197 14.9815 12.6713 14.7916 16.2074 23.2317C16.5693 23.6706 15.1258 18.5939 15.5002 18.2141C15.9286 17.7794 15.8621 17.1591 15.5002 16.7202C13.9734 14.8718 12.2013 13.2513 9.94655 12.3989C7.69183 11.5464 5.34557 11.5717 3.27805 10.4788C2.5542 10.0947 1.39772 10.7531 1.75133 11.6688C4.14333 17.8976 10.1754 26.8187 12.2554 27.8737C13.9194 28.9287 13.7363 28.2029 13.9942 27.7513C14.3062 27.2112 14.0691 26.6541 13.6198 26.3081L13.6157 26.3123Z" fill="#BEC3AB"/>
<path d="M25.4634 33.3048C23.9991 33.9631 22.4183 34.4906 20.8292 34.7185C19.24 34.9464 17.5968 34.8155 16.0244 34.4906C12.7463 33.8112 9.69284 32.3764 6.54787 31.2707C4.75075 30.6419 2.92451 30.1566 1.03586 29.9119L1.56 31.8784C3.13664 30.8951 4.71329 29.9077 6.21089 28.8062C6.89729 28.2998 7.54211 27.6964 8.28259 27.2744C9.02307 26.8524 9.94242 26.7342 10.7869 26.6076C11.3443 26.5232 11.648 25.8142 11.5149 25.3078C11.3527 24.7044 10.7952 24.4849 10.2336 24.5693C9.281 24.7128 8.34915 24.89 7.47555 25.3205C6.68515 25.7129 6.0237 26.3375 5.3165 26.865C3.77314 28.0171 2.13826 29.0341 0.507531 30.0554C-0.440951 30.6504 0.058254 31.8953 1.0317 32.0219C7.80419 32.8954 13.7613 37.7274 20.8167 36.8285C22.7969 36.5753 24.6897 35.9423 26.5118 35.1194C27.0234 34.8873 27.1441 34.1277 26.8861 33.6761C26.5783 33.1402 25.9793 33.0642 25.4634 33.2963V33.3048Z" fill="#BEC3AB"/>
</g>
<defs>
<clipPath id="clip0_386_532">
<rect width="250" height="84.0081" fill="white" transform="matrix(-1 0 0 -1 250 84)"/>
</clipPath>
</defs>
</svg>
