<svg width="250" height="83" viewBox="0 0 250 83" fill="none" xmlns="http://www.w3.org/2000/svg">
<g clip-path="url(#clip0_388_582)">
<path d="M0.749014 2.03471C8.71543 3.68996 13.7074 10.7529 17.2892 17.524C19.3484 21.414 21.158 25.4417 23.4627 29.1983C25.4595 32.4546 27.8265 35.494 30.4556 38.2625C41.8666 50.2662 57.7703 56.7788 73.9361 59.0803C82.8843 60.3519 92.003 60.5395 101.009 59.8099C110.016 59.0803 119.001 57.1832 127.492 53.7935C135.679 50.5247 143.479 46.3178 151.816 43.42C160.439 40.4264 169.533 39.1881 178.644 39.4091C196.835 39.8511 214.316 45.9759 230.469 54.002C232.487 55.0026 234.483 56.0366 236.472 57.0915C237.653 57.721 241.073 56.7037 235.665 54.2021C219.803 45.7799 204.735 39.9053 186.764 37.8789C177.799 36.8699 168.664 37.1201 159.828 39.0047C151.083 40.8684 143.009 44.65 134.909 48.3232C126.593 52.0965 118.215 55.2444 109.167 56.7329C100.098 58.2255 90.7508 58.4757 81.5947 57.8128C64.7882 56.5953 47.8487 51.3752 35.1315 39.9094C32.1987 37.2619 29.5113 34.3266 27.215 31.1037C24.7481 27.6431 22.8262 23.8615 20.9251 20.0715C17.4348 13.1211 13.4703 5.74547 6.37335 1.89296C4.78006 1.02989 3.07446 0.391976 1.3023 0.0250702C-0.00394744 -0.24594 -0.561389 1.7637 0.749014 2.03471Z" fill="#BEC3AB"/>
<path d="M21.5947 25.9252C21.1911 31.2453 21.5572 36.6113 22.6555 41.8314C23.2004 44.4248 23.9284 46.9806 24.8436 49.4655C25.7588 51.9505 26.803 54.2979 28.3339 56.4034C30.0145 58.7174 32.0904 60.6687 34.1829 62.5991C34.7736 63.1453 36.0757 62.8243 35.9592 61.8611C35.0315 54.2728 32.2942 46.9514 27.9345 40.6681C26.699 38.8878 25.3428 37.195 23.8785 35.5982C22.9675 34.61 22.1854 34.8685 23.0881 35.8566C27.972 41.1684 30.834 48.8818 32.7019 55.853C33.2302 57.8252 33.6337 59.8348 33.8792 61.8611L35.6555 61.1231C33.8584 59.4637 32.0405 57.796 30.522 55.8697C29.0036 53.9435 27.9137 51.7212 27.0484 49.4405C25.2472 44.7041 24.1115 39.6967 23.6996 34.6434C23.4625 31.7415 23.4583 28.8229 23.6788 25.921C23.7204 25.3581 23.1713 24.8787 22.6388 24.8787C22.0398 24.8787 21.6404 25.3581 21.5988 25.921L21.5947 25.9252Z" fill="#BEC3AB"/>
<path d="M20.4464 22.031C24.7895 24.2742 29.1991 26.5173 33.9124 27.8723C38.6257 29.2274 43.5137 29.4942 48.2894 28.2351C50.9976 27.5221 53.5934 26.4172 56.1227 25.2164C57.1793 24.7161 56.4305 22.9108 55.3198 23.311C53.3022 24.0365 51.2014 23.3235 49.371 22.3979C47.4324 21.4181 45.5854 20.2424 43.4679 19.6753C41.2132 19.0749 38.8171 18.9707 36.4958 18.8623C34.1745 18.7539 31.7159 18.7414 29.3322 18.8414C26.5783 18.9582 23.8369 19.2209 21.1079 19.6086C20.5504 19.6878 20.2468 20.3966 20.3799 20.8928C20.5463 21.4932 21.0996 21.6975 21.6612 21.6224C26.3994 20.9553 31.2084 20.7302 35.9882 20.9303C38.2596 21.022 40.6142 21.0971 42.8273 21.6683C44.899 22.202 46.6712 23.3902 48.5681 24.3242C50.8062 25.4249 53.4228 26.2046 55.8731 25.3248L55.0702 23.4194C50.9268 25.3916 46.5297 27.0218 41.883 27.0093C37.2362 26.9968 32.8391 25.5667 28.6833 23.7405C26.2413 22.6689 23.866 21.4557 21.4948 20.2299C20.305 19.617 19.2525 21.414 20.4464 22.031Z" fill="#BEC3AB"/>
<path d="M26.6241 24.391C32.7019 31.3997 39.2248 38.938 49.1547 38.6836C51.8088 38.6169 54.4213 37.9623 56.7384 36.6531C57.3708 36.2946 57.3583 35.5191 56.9506 35.0146C54.1259 31.5373 50.3986 28.9064 46.2219 27.3137C45.6978 27.1136 45.0821 27.5347 44.9406 28.0433C44.7784 28.6312 45.2319 27.839 45.7602 28.0433C49.5999 29.5068 52.8863 33.3051 55.478 36.4905L55.6901 34.852C51.9378 36.97 47.4283 36.9992 43.3723 35.8067C39.3163 34.6143 35.4725 31.9209 32.2942 28.9189C30.4222 27.1511 28.6958 25.2415 27.011 23.2986C26.6408 22.8733 25.9169 22.9192 25.5384 23.2986C25.1182 23.7197 24.1739 23.5446 24.5441 23.974L26.6241 24.391Z" fill="#BEC3AB"/>
<path d="M40.3813 45.8008C42.5902 44.2206 45.0405 42.5112 47.8942 43.1658C50.748 43.8204 52.9902 45.7383 55.4946 46.9974C58.1736 48.3441 61.0274 49.3531 63.9644 49.9577C66.9013 50.5623 70.3333 51.0626 73.3369 50.1995C75.0092 49.72 76.5442 48.8611 78.0543 48.0189C79.7433 47.0808 81.4322 46.1427 83.1212 45.2046C83.8076 44.821 83.7827 43.7912 83.1212 43.4034C79.5228 41.2937 75.525 39.8886 71.3983 39.3132C66.9097 38.6878 62.4834 39.1757 58.0405 39.9303C55.6111 40.3431 53.1608 40.6933 50.8853 41.6773C50.3694 41.9024 50.253 42.6613 50.5109 43.1032C50.8229 43.6369 51.4178 43.6994 51.9336 43.4785C53.7723 42.6821 55.8274 42.4194 57.7867 42.0817C59.9375 41.7065 62.0924 41.3562 64.2722 41.1853C68.2575 40.8768 72.222 41.2854 76.0367 42.5028C78.1458 43.1741 80.1593 44.0872 82.0687 45.2046V43.4034C80.5586 44.2415 79.0527 45.0795 77.5426 45.9176C76.2281 46.6472 74.9135 47.4435 73.4949 47.9564C70.6453 48.9862 67.413 48.5443 64.5135 47.9439C61.614 47.3435 58.8267 46.3762 56.2101 45.0253C53.66 43.7078 51.2888 41.8065 48.4434 41.1519C46.8501 40.785 45.2069 40.8809 43.676 41.4646C42.1451 42.0484 40.6974 43.0157 39.3246 43.9955C38.867 44.3207 38.6507 44.9044 38.9502 45.4214C39.2123 45.8759 39.9153 46.1219 40.3729 45.7966L40.3813 45.8008Z" fill="#BEC3AB"/>
<path d="M43.264 48.3649C46.592 52.9512 45.3982 57.8877 45.9681 63.0786C46.2967 66.0639 46.9124 69.1409 48.6638 71.6509C50.1697 73.8106 52.3163 75.3241 54.4379 76.8168C56.5595 78.3094 58.8308 79.9355 59.9166 82.4371C60.3368 83.4044 61.8885 82.8915 61.8552 81.9117C61.772 79.4893 61.0398 77.192 60.1953 74.9405C59.4632 72.9976 58.7185 71.0588 57.8699 69.1659C56.1851 65.4093 53.9553 61.9654 50.5774 59.5305C50.0615 59.1594 49.5332 58.805 49.0132 58.4339C48.5348 58.092 48.0814 57.6251 47.5655 57.354C46.8417 56.9746 45.8516 57.329 45.7351 58.1921C45.6395 58.8926 46.226 59.5597 46.9374 59.543C47.4449 59.5305 47.7569 59.2178 47.9399 58.7758L47.9649 58.7174C48.1812 58.1963 47.7319 57.5709 47.2369 57.4333C46.6379 57.2665 46.1761 57.6376 45.9556 58.1629L45.9307 58.2213L46.9332 57.4541H46.8791C47.0539 57.5041 47.2286 57.55 47.4033 57.5959L47.5031 57.6584L47.7694 58.117L47.7527 58.0462L47.6487 58.8509L47.6862 58.7883L47.0663 59.2678L47.1828 59.2261H46.6295C46.8791 59.272 47.3284 59.7681 47.5697 59.9474C47.9774 60.2518 48.3975 60.5395 48.8177 60.8271C49.5374 61.3233 50.2363 61.832 50.8811 62.424C52.0833 63.5247 53.09 64.8006 53.9512 66.1765C55.7483 69.045 56.9547 72.2346 58.1486 75.3908C58.939 77.4839 59.692 79.6394 59.771 81.8992L61.7096 81.3739C59.6296 76.5874 54.1425 74.9864 50.931 71.2048C49.1006 69.0492 48.41 66.1556 48.0855 63.408C47.7361 60.4477 47.7236 57.4625 47.1953 54.523C46.6379 51.4168 45.4481 48.294 43.0228 46.1676C42.5985 45.7965 41.9662 45.7506 41.5502 46.1676C41.1716 46.547 42.4321 47.9479 42.4321 47.9479L43.264 48.3649Z" fill="#BEC3AB"/>
<path d="M57.2043 55.2778C60.2452 60.5688 64.2597 65.3135 69.0853 69.0577C73.9691 72.8476 79.8223 75.7745 85.9832 76.6543C89.8354 77.2046 93.75 76.9253 97.3026 75.2409C98.0722 74.8781 97.9266 73.4689 97.053 73.3354C95.0604 73.0311 93.2716 72.1722 91.5202 71.2091C89.7688 70.2459 87.8968 69.1994 86.004 68.3363C82.1519 66.5852 78.1167 65.2593 73.965 64.438C71.5979 63.9668 67.5086 63.5332 65.1041 63.3748C64.5425 63.3373 65.7573 64.0002 65.7573 64.538C65.7573 65.1343 65.5825 64.7966 66.1441 64.8341C70.2459 65.1093 74.955 66.6186 78.8821 67.836C82.8091 69.0535 86.5282 70.8255 90.1557 72.8351C92.1484 73.94 94.2325 74.9949 96.5081 75.3451L96.2585 73.4397C90.6466 76.0997 83.8658 74.6738 78.4287 72.2597C73.1662 69.9249 68.5195 66.3851 64.684 62.1073C62.5166 59.689 60.628 57.0415 59.0097 54.223C58.34 53.0597 56.5428 54.1104 57.2126 55.2737L57.2043 55.2778Z" fill="#BEC3AB"/>
<path d="M79.8306 59.5554C86.7154 53.9935 93.9705 48.198 102.877 46.4594C105.306 45.9841 107.798 45.8798 110.257 46.1717L109.521 44.3914C107.99 45.934 106.455 47.4809 104.924 49.0235C103.393 50.5662 102.028 52.013 100.498 53.4181C97.6895 56.0031 94.2991 57.6834 90.5177 58.2337C89.9602 58.3171 89.6565 59.0217 89.7896 59.5179C89.9519 60.1141 90.5093 60.3268 91.0709 60.2475C94.0828 59.8056 97.0114 58.6548 99.5033 56.8995C102.232 54.9816 104.487 52.4216 106.829 50.0617C108.218 48.6608 109.608 47.2641 110.997 45.8632C111.692 45.1669 111.114 44.1871 110.261 44.0828C100.855 42.9654 95.3017 46.0508 87.9842 51.4918C84.1778 55.1151 82.1768 56.4701 80.0802 58.1629C79.6434 58.5173 78.2581 58.4172 78.6242 58.7883C79.0568 59.2219 79.3938 59.9056 79.8347 59.5512L79.8306 59.5554Z" fill="#BEC3AB"/>
<path d="M78.645 58.6884C81.3864 54.4523 84.1528 50.1828 87.6265 46.4971C89.3071 44.7126 91.1708 42.8947 93.3132 41.6773C94.4738 41.0185 95.7177 40.8225 97.0198 40.6266C98.3218 40.4306 99.4783 40.0929 100.606 39.4717C102.985 38.1666 104.757 36.0027 106.292 33.8138L104.354 33.2885C104.354 37.5913 102.731 41.819 99.8319 44.9961C98.9292 45.9842 100.398 47.4644 101.305 46.4721C104.574 42.8864 106.434 38.15 106.438 33.2885C106.438 32.1919 105.069 31.9501 104.499 32.7631C103.197 34.6185 101.691 36.4614 99.6988 37.5954C98.6588 38.1875 97.5481 38.4543 96.375 38.6294C95.0105 38.8337 93.7333 39.0964 92.4978 39.7468C90.2805 40.9226 88.3212 42.7822 86.5823 44.5708C84.8434 46.3595 83.1711 48.44 81.6485 50.5205C79.9596 52.8304 78.3995 55.2319 76.8479 57.6335C76.1157 58.7634 77.917 59.8099 78.645 58.6842V58.6884Z" fill="#BEC3AB"/>
<path d="M112.682 58.0378C112.977 53.6975 113.997 49.3989 115.186 45.2253C116.281 41.3853 117.745 37.5662 120.203 34.3849C121.435 32.7922 122.907 31.3871 124.605 30.3031L123.078 29.1273C122.512 31.3079 123.457 33.3717 123.902 35.4731C124.264 37.1701 124.384 38.9129 124.309 40.6473C124.155 44.1454 123.128 47.606 121.368 50.6288C120.37 52.3425 119.143 53.8851 117.703 55.2485C116.726 56.17 117.167 56.5785 118.144 55.6613C123.594 50.5162 127.217 43.7869 126.173 36.3904C126.023 35.3397 125.786 34.314 125.499 33.2967C125.17 32.1293 124.771 30.9035 125.087 29.686C125.308 28.8355 124.343 28.0099 123.561 28.5102C116.197 33.205 113.577 42.1483 111.796 50.2077C111.226 52.7886 110.785 55.4028 110.61 58.042C110.573 58.6049 110.952 57.746 111.488 57.746C112.083 57.746 112.674 58.2049 112.711 57.6421L112.682 58.0378Z" fill="#BEC3AB"/>
<path d="M97.8476 59.8391C100.111 61.1066 101.55 63.3247 103.06 65.3594C104.732 67.615 106.625 69.5913 108.955 71.1715C111.284 72.7517 113.872 73.8607 116.584 74.4445C119.775 75.1366 123.053 75.1116 126.273 75.5952C129.202 76.033 132.213 76.9044 134.377 79.0391C135.225 79.8772 136.573 78.814 136.012 77.7758C133.828 73.7565 130.87 70.1375 127.334 67.2398C126.406 66.4768 125.445 65.7346 124.343 65.2426C123.17 64.7214 121.926 64.4588 120.678 64.1919C118.173 63.6624 115.648 63.1871 113.094 63.0078C110.149 62.8035 107.183 63.087 104.329 63.85C103.035 64.1961 103.584 66.2058 104.882 65.8597C107.241 65.2301 109.658 64.9549 112.1 65.0425C114.542 65.13 116.888 65.5345 119.247 66.0181C120.416 66.26 121.61 66.4684 122.745 66.8437C123.74 67.1689 124.626 67.7317 125.449 68.3738C127.147 69.6997 128.707 71.2215 130.113 72.8518C131.698 74.6863 133.062 76.6959 134.223 78.8265L135.858 77.5632C131.336 73.0894 124.73 73.5897 118.922 72.7475C116.114 72.3389 113.439 71.4634 111.002 69.9957C108.722 68.624 106.762 66.8145 105.161 64.6923C103.322 62.2532 101.533 60.3186 98.8002 58.7884C97.6312 58.1338 96.687 59.1803 97.8601 59.8349L97.8476 59.8391Z" fill="#BEC3AB"/>
<path d="M132.13 73.4146C133.278 73.3688 134.422 73.2604 135.562 73.0978C136.086 73.0227 136.606 72.9393 137.126 72.8393C137.646 72.7392 138.304 72.6767 138.79 72.4056C139.951 71.7594 139.489 70.3585 138.628 69.7122C137.879 69.1493 137.11 68.6532 136.398 68.032C134.959 66.777 133.582 65.3886 131.885 64.4838C130.084 63.5207 128.062 63.1079 126.032 63.037C123.752 62.9578 121.472 63.3039 119.23 63.7C118.677 63.7959 118.365 64.4755 118.502 64.9841C118.664 65.572 119.226 65.8097 119.783 65.7138C123.066 65.1384 126.606 64.6464 129.817 65.8263C131.315 66.3767 132.55 67.3899 133.724 68.4364C134.356 68.9992 134.976 69.5746 135.633 70.1083C135.962 70.3751 136.299 70.6378 136.644 70.8838C136.827 71.0131 137.018 71.134 137.201 71.2591C137.255 71.3008 137.314 71.3341 137.376 71.3633C137.588 71.6176 137.617 71.4634 137.463 70.9005L137.838 70.5252C137.601 70.7004 136.927 70.7587 136.569 70.8254C136.082 70.9172 135.596 71.0006 135.105 71.0714C134.119 71.209 133.12 71.2882 132.126 71.3258C130.791 71.38 130.787 73.4647 132.126 73.4105L132.13 73.4146Z" fill="#BEC3AB"/>
<path d="M126.955 54.3353C128.761 55.4527 130.441 56.7411 131.972 58.2087C133.503 59.6763 134.801 61.3733 136.611 62.4948C138.295 63.5372 140.321 64.1542 142.268 64.4878C144.215 64.8213 145.991 64.8672 147.851 64.5545C149.898 64.2084 151.811 63.312 153.338 61.8986C153.933 61.3482 153.596 60.3809 152.88 60.1558C149.548 59.1218 146.095 58.0503 143.4 55.7321C142.019 54.5438 140.725 53.3388 139.028 52.6134C137.451 51.9421 135.741 51.6336 134.031 51.6377C132.122 51.6419 130.208 52.0172 128.415 52.6717C127.887 52.8635 127.533 53.3805 127.687 53.9559C127.829 54.4646 127.484 53.7683 128.016 53.5765C130.936 52.5092 135.275 53.2596 138.204 54.5104C139.743 55.1692 140.879 56.3283 142.143 57.3873C143.508 58.5297 145.022 59.4303 146.649 60.1433C148.496 60.9563 150.409 61.5692 152.331 62.1654L151.874 60.4226C149.469 62.6491 145.933 63.0118 142.83 62.4781C141.053 62.1738 139.215 61.6484 137.671 60.6936C136.028 59.6805 134.834 58.0586 133.453 56.7327C131.797 55.1442 129.963 53.7391 128.016 52.53C126.872 51.8212 125.828 53.6265 126.968 54.3312L126.955 54.3353Z" fill="#BEC3AB"/>
<path d="M142.901 47.0599C145.322 47.5811 147.818 48.1023 150.018 49.2905C152.335 50.5414 153.8 52.6594 155.663 54.4481C159.266 57.9087 163.925 60.2936 168.842 61.1566C171.625 61.6444 174.758 61.8946 177.079 59.985C177.562 59.5889 177.449 58.605 176.867 58.3465C175.274 57.6418 173.851 56.562 172.84 55.1277C171.704 53.5141 170.902 51.7005 169.454 50.3204C166.725 47.7187 162.889 46.7347 159.212 46.6888C156.699 46.6555 153.375 47.3059 150.895 47.6603C150.338 47.7395 150.863 48.1606 150.996 48.6568C151.162 49.2572 151.071 48.6526 151.632 48.5734C155.476 48.0314 160.152 48.2857 163.929 49.4907C165.448 49.9743 166.895 50.7457 168.044 51.8589C169.367 53.1431 170.082 54.8608 171.151 56.3368C172.353 57.9921 173.943 59.3263 175.815 60.1518L175.602 58.5132C173.918 59.8975 171.189 59.4805 169.221 59.122C166.937 58.705 164.716 57.9629 162.652 56.8997C160.589 55.8365 158.584 54.4189 156.886 52.7428C155.085 50.9625 153.596 48.9445 151.362 47.6603C148.933 46.2636 146.162 45.6382 143.45 45.0544C142.143 44.7751 141.586 46.7806 142.896 47.0641L142.901 47.0599Z" fill="#BEC3AB"/>
<path d="M139.402 46.447C136.34 42.7737 137.692 37.3327 139.219 33.3176C140.018 31.2162 141.199 29.3817 142.855 27.864C144.51 26.3464 146.312 25.2707 148.18 24.1949C150.393 22.9191 152.735 21.4015 155.327 21.1054L154.324 19.7879C152.756 23.6363 151.208 27.4929 149.615 31.3329C148.903 33.0424 148.022 34.5475 146.799 35.9401C145.513 37.4036 144.24 38.8545 143.071 40.4097C141.782 42.1233 140.604 43.9245 139.539 45.7882C138.874 46.9556 140.671 48.0063 141.336 46.8389C143.246 43.495 145.538 40.4889 148.088 37.6204C149.411 36.1319 150.472 34.5726 151.262 32.738C152.053 30.9035 152.818 28.9522 153.592 27.0593C154.507 24.8204 155.418 22.5814 156.333 20.3424C156.575 19.7546 155.955 18.9499 155.331 19.0249C152.631 19.3334 150.28 20.6093 147.951 21.9351C145.821 23.1443 143.699 24.3993 141.831 26.0003C139.964 27.6013 138.474 29.7194 137.493 32.0834C136.465 34.5559 135.704 37.241 135.537 39.9219C135.358 42.7946 136.082 45.6965 137.942 47.9271C138.304 48.3607 139.04 48.2982 139.414 47.9271C139.843 47.4977 139.776 46.8848 139.414 46.4511L139.402 46.447Z" fill="#BEC3AB"/>
<path d="M152.71 29.4693C155.164 26.4048 159.391 26.5382 162.935 26.6717L162.199 24.8913C159.69 27.8474 157.248 30.8827 154.632 33.7388C152.356 36.2237 149.789 38.3918 146.919 40.1513C145.317 41.1311 145.467 41.4021 143.728 42.1109C143.208 42.3235 141.016 43.3951 141.174 43.9871C141.311 44.4791 140.65 45.8675 141.174 45.6549C144.427 44.329 148.741 41.6481 151.512 39.4842C154.44 37.1952 156.841 34.4226 159.237 31.5957C160.714 29.8529 162.19 28.1101 163.671 26.3673C164.254 25.6793 163.875 24.6245 162.935 24.587C158.858 24.4369 154.041 24.4994 151.237 27.9934C150.888 28.4311 150.809 29.0399 151.237 29.4693C151.599 29.8321 152.356 29.9113 152.71 29.4693Z" fill="#BEC3AB"/>
<path d="M162.864 39.8176C164.986 36.5529 167.029 33.034 169.52 30.0195C170.56 28.9772 172.724 27.522 174.521 26.5839C176.513 25.5458 178.544 24.7035 180.312 23.2901C182.08 21.8767 183.631 19.9004 184.617 17.7698L182.679 17.2445C182.288 23.7071 179.359 29.932 174.762 34.4641C173.452 35.7566 172.016 36.899 170.456 37.8788C169.325 38.5918 170.257 39.7008 171.392 38.9837C177.345 35.2312 181.872 29.9111 183.773 23.1317C184.309 21.2138 184.634 19.2333 184.754 17.2445C184.817 16.2439 183.248 15.781 182.816 16.7192C181.951 18.587 180.723 20.2214 179.155 21.5515C177.491 22.9649 175.461 23.7529 173.547 24.7411C171.634 25.7292 170.07 26.9759 168.709 28.5561C167.349 30.1363 166.342 31.729 165.348 33.4342C164.221 35.3647 163.172 37.3451 161.953 39.2213C161.221 40.3471 162.548 40.7307 163.28 39.6091L162.864 39.8176Z" fill="#BEC3AB"/>
<path d="M186.146 39.4424C189.878 46.8514 196.675 52.5343 204.504 55.1526C206.73 55.8948 209.03 56.3618 211.364 56.5827C212.296 56.6703 212.691 55.4028 212.1 54.8024C209.305 51.9672 206.563 49.0528 203.681 46.3052C202.32 45.0127 200.86 43.8286 199.229 42.8905C197.69 42.0024 196.039 41.3103 194.366 40.7182C192.453 40.0469 190.489 39.5216 188.53 39.0004C187.236 38.6585 186.683 40.6682 187.977 41.0101C191.271 41.8856 194.62 42.7612 197.64 44.3873C200.885 46.1342 203.335 48.8777 205.894 51.4711C207.475 53.0721 209.051 54.6731 210.632 56.27L211.368 54.4897C203.689 53.7684 195.926 50.2828 190.988 44.3873C190.112 43.1531 188.018 41.1477 187.036 39.1922C186.433 37.9956 185.547 38.2416 186.15 39.434L186.146 39.4424Z" fill="#BEC3AB"/>
<path d="M196.352 39.6747C199.289 35.8806 206.208 34.3181 210.821 33.4718C213.413 32.9964 216.054 32.863 218.683 32.838C221.313 32.813 223.883 32.9339 226.355 33.7553C228.622 34.5058 230.718 35.9234 231.937 38.0164L232.312 36.5905C230.498 37.6078 228.16 36.8156 226.209 36.7906C224.004 36.7614 221.853 37.3701 219.778 38.0414C217.747 38.7002 215.688 39.4798 213.55 39.6883C211.258 39.9093 208 40.2512 202.8 39.6883C201.136 39.6091 198.848 39.4006 195.936 39.1922C195.379 39.2714 197.821 39.6133 197.954 40.1094C198.121 40.7098 202.239 41.7689 202.8 41.6938C207.468 41.0392 208.5 42.1357 213.171 41.8064C215.439 41.6479 217.589 40.9558 219.732 40.2512C221.874 39.5466 223.863 38.8878 226.03 38.8794C228.518 38.8711 231.043 39.6966 233.364 38.3958C233.855 38.1206 234.017 37.4493 233.739 36.9699C230.993 32.2334 225.327 30.8742 220.239 30.7658C214.715 30.6491 208.907 31.1077 203.849 33.5009C201.336 34.6892 196.814 36.7739 195.104 38.9837C194.759 39.4298 196.881 39.6591 197.313 40.0927C197.671 40.4513 196.627 40.8891 196.976 40.443L196.352 39.6747Z" fill="#BEC3AB"/>
<path d="M193.528 40.2305C195.995 39.8261 197.946 38.1375 198.994 35.911C199.531 34.7728 200.076 33.7513 200.966 32.8507C201.856 31.9501 202.792 31.2705 203.791 30.5909C206.016 29.0815 208.279 27.5722 210.73 26.4548C212.805 25.5126 215.006 24.8788 217.128 24.0574C219.599 23.1026 222.003 21.906 223.838 19.9464L222.203 18.6831C220.385 22.9359 218.288 27.0636 215.925 31.0412C215.239 32.1961 217.036 33.2468 217.722 32.0918C220.085 28.1184 222.182 23.9907 224 19.7338C224.204 19.2543 224.183 18.7248 223.734 18.3871C223.334 18.0869 222.727 18.0827 222.369 18.4705C219.27 21.7809 214.532 22.5981 210.517 24.2909C208.001 25.3499 205.713 26.8092 203.445 28.3185C201.44 29.6528 199.398 31.0703 198.083 33.1384C197.347 34.2933 197.006 35.6733 196.032 36.6698C195.2 37.5204 192.609 38.5669 190.321 38.3584C189.767 38.4501 192.118 38.9963 192.255 39.5008C192.417 40.0929 192.979 40.3222 193.536 40.2305H193.528Z" fill="#BEC3AB"/>
<path d="M218.272 49.4989C220.605 52.8386 222.723 56.3283 224.599 59.9515C225.522 61.736 226.367 63.5539 227.195 65.3843C228.023 67.2146 228.896 68.9407 230.265 70.3708C231.633 71.8009 233.539 72.9225 235.527 73.452C236.251 73.6438 237.075 72.9392 236.809 72.1679C236.189 70.3708 236.18 68.4821 235.96 66.6142C235.752 64.8422 235.315 63.1661 234.604 61.5317C233.892 59.8973 232.969 58.4923 231.841 57.1956C230.801 56.0031 229.558 55.0275 228.36 54.0018C227.161 52.9762 225.814 51.7587 225.235 50.1785C224.765 48.8943 223.23 50.733 223.23 50.733C223.268 50.9915 224.432 51.2834 224.432 51.2834C224.432 51.2834 224.129 52.3758 224.62 52.2423C225.219 52.0756 225.423 51.521 225.348 50.9582C225.31 50.6997 225.277 50.4412 225.24 50.1785L220.48 49.4072C220.48 49.4072 227.178 55.507 229.445 57.6959C231.713 59.8848 233.377 63.0536 233.842 66.3224C234.146 68.4613 234.088 70.6544 234.803 72.7224L236.085 71.4382C234.512 71.0171 233.077 70.2166 231.916 69.07C230.623 67.79 229.816 66.1389 229.071 64.5003C227.457 60.9439 225.735 57.4624 223.734 54.1061C222.581 52.1756 221.362 50.2911 220.073 48.4482C219.752 47.9896 219.162 47.7728 218.65 48.073C218.197 48.3398 216.204 46.8597 216.528 47.3225L218.272 49.4989Z" fill="#BEC3AB"/>
<path d="M236.384 56.9954C241.268 60.6979 244.08 66.4266 246.248 72.0136L247.774 70.8378C245.678 69.7413 243.323 69.6078 241.102 68.8991C238.88 68.1903 237.329 68.3779 233.793 60.0391C233.431 59.6055 234.874 64.6213 234.5 64.9965C234.071 65.426 234.138 66.0388 234.5 66.4725C236.027 68.2987 237.799 69.8997 240.053 70.7419C242.308 71.5841 244.654 71.5591 246.722 72.639C247.446 73.0184 248.602 72.368 248.249 71.4632C245.857 65.3092 239.825 56.4951 237.745 55.4528C236.081 54.4104 236.264 55.1276 236.006 55.5737C235.694 56.1074 235.931 56.6577 236.38 56.9996L236.384 56.9954Z" fill="#BEC3AB"/>
<path d="M224.537 50.0869C226.001 49.4365 227.582 48.9153 229.171 48.6902C230.76 48.465 232.403 48.5943 233.976 48.9153C237.254 49.5866 240.307 51.0042 243.452 52.0966C245.249 52.7178 247.075 53.1973 248.964 53.4391L248.44 51.4962C246.863 52.4676 245.287 53.4433 243.789 54.5315C243.103 55.0318 242.458 55.628 241.717 56.045C240.977 56.4619 240.058 56.5786 239.213 56.7037C238.656 56.7871 238.352 57.4876 238.485 57.9879C238.647 58.5841 239.205 58.8009 239.766 58.7175C240.719 58.5758 241.651 58.4007 242.524 57.9754C243.315 57.5876 243.976 56.9706 244.683 56.4494C246.227 55.3112 247.862 54.3063 249.492 53.2973C250.441 52.7095 249.942 51.4795 248.968 51.3544C242.196 50.4913 236.239 45.7174 229.183 46.6055C227.203 46.8556 225.31 47.481 223.488 48.2941C222.977 48.5234 222.856 49.2739 223.114 49.72C223.422 50.2495 224.021 50.3246 224.537 50.0952V50.0869Z" fill="#BEC3AB"/>
</g>
<defs>
<clipPath id="clip0_388_582">
<rect width="250" height="83" fill="white"/>
</clipPath>
</defs>
</svg>
