<svg width="1000" height="335" viewBox="0 0 1000 335" fill="none" xmlns="http://www.w3.org/2000/svg">
<g clip-path="url(#clip0_386_532)">
<path d="M2.99545 8.21216C34.8611 14.893 54.8292 43.4 69.1563 70.7291C77.3931 86.4299 84.6315 102.686 93.8501 117.848C101.837 130.991 111.305 143.259 121.822 154.433C167.466 202.881 231.081 229.167 295.744 238.456C331.536 243.589 368.011 244.346 404.037 241.401C440.063 238.456 476.005 230.799 509.968 217.118C542.715 203.925 573.915 186.945 607.262 175.249C641.757 163.167 678.132 158.169 714.574 159.061C787.34 160.844 857.262 185.565 921.875 217.959C929.946 221.998 937.933 226.172 945.887 230.429C950.613 232.97 964.291 228.864 942.659 218.767C879.21 184.774 818.94 161.063 747.055 152.885C711.196 148.812 674.654 149.822 639.311 157.428C604.333 164.95 572.035 180.214 539.637 195.039C506.373 210.269 472.86 222.974 436.668 228.982C400.393 235.006 363.003 236.016 326.378 233.34C259.152 228.427 191.394 207.358 140.525 161.08C128.794 150.394 118.045 138.547 108.859 125.539C98.9918 111.571 91.3042 96.308 83.6997 81.0112C69.7387 52.9585 53.8807 23.1893 25.4928 7.64C19.1196 4.15655 12.2972 1.58183 5.20857 0.100943C-0.0164001 -0.992893 -2.24617 7.11832 2.99545 8.21216Z" fill="#BEC3AB"/>
<path d="M86.3784 104.638C84.7643 126.111 86.2287 147.769 90.6216 168.838C92.8015 179.305 95.7135 189.621 99.3743 199.65C103.035 209.68 107.212 219.154 113.335 227.652C120.058 236.992 128.361 244.868 136.731 252.659C139.094 254.864 144.302 253.568 143.836 249.681C140.126 219.053 129.177 189.503 111.738 164.143C106.796 156.957 101.371 150.125 95.5138 143.679C91.8696 139.691 88.7414 140.734 92.3523 144.723C111.888 166.162 123.336 197.294 130.807 225.431C132.921 233.391 134.535 241.502 135.516 249.681L142.622 246.702C135.433 240.004 128.162 233.273 122.088 225.498C116.014 217.724 111.655 208.754 108.194 199.549C100.988 180.432 96.4456 160.222 94.7983 139.826C93.8498 128.113 93.8332 116.334 94.7151 104.621C94.8815 102.349 92.685 100.414 90.5551 100.414C88.1589 100.414 86.5615 102.349 86.3951 104.621L86.3784 104.638Z" fill="#BEC3AB"/>
<path d="M81.7858 88.9206C99.158 97.9742 116.796 107.028 135.65 112.497C154.503 117.966 174.055 119.043 193.158 113.961C203.99 111.083 214.374 106.624 224.491 101.777C228.717 99.758 225.722 92.4713 221.279 94.0868C213.209 97.015 204.806 94.1373 197.484 90.4015C189.73 86.4468 182.342 81.7012 173.872 79.4126C164.853 76.9893 155.268 76.5686 145.983 76.1311C136.698 75.6936 126.864 75.6431 117.329 76.047C106.313 76.5181 95.3474 77.5783 84.4316 79.1434C82.2018 79.4631 80.9871 82.3239 81.5196 84.3265C82.1852 86.7497 84.3983 87.5743 86.6447 87.2714C105.598 84.5789 124.834 83.6702 143.953 84.4779C153.038 84.8481 162.457 85.151 171.309 87.4565C179.596 89.6105 186.685 94.4066 194.272 98.1761C203.225 102.619 213.691 105.766 223.492 102.215L220.281 94.5244C203.707 102.484 186.119 109.064 167.532 109.013C148.945 108.963 131.356 103.191 114.733 95.8201C104.965 91.4953 95.4639 86.5983 85.9791 81.6508C81.22 79.177 77.0101 86.43 81.7858 88.9206Z" fill="#BEC3AB"/>
<path d="M106.496 98.4454C130.807 126.734 156.899 157.159 196.619 156.133C207.235 155.863 217.685 153.221 226.953 147.937C229.483 146.49 229.433 143.36 227.802 141.324C216.504 127.289 201.594 116.67 184.887 110.242C182.791 109.434 180.328 111.134 179.762 113.187C179.113 115.56 180.927 112.362 183.04 113.187C198.399 119.094 211.545 134.424 221.912 147.281L222.76 140.667C207.751 149.216 189.713 149.334 173.489 144.521C157.265 139.708 141.89 128.837 129.177 116.721C121.689 109.586 114.783 101.878 108.044 94.0363C106.563 92.3198 103.667 92.5049 102.153 94.0363C100.473 95.736 96.6953 95.0292 98.1763 96.7625L106.496 98.4454Z" fill="#BEC3AB"/>
<path d="M161.525 184.858C170.361 178.48 180.162 171.581 191.577 174.223C202.992 176.865 211.961 184.606 221.978 189.688C232.694 195.123 244.109 199.196 255.857 201.636C267.605 204.076 281.333 206.095 293.347 202.612C300.037 200.677 306.177 197.21 312.217 193.811C318.973 190.024 325.729 186.238 332.485 182.452C335.23 180.904 335.13 176.747 332.485 175.182C318.091 166.667 302.1 160.996 285.593 158.673C267.638 156.149 249.933 158.118 232.162 161.164C222.444 162.83 212.643 164.244 203.541 168.215C201.478 169.124 201.012 172.187 202.043 173.97C203.291 176.124 205.671 176.377 207.734 175.485C215.089 172.271 223.309 171.211 231.147 169.847C239.75 168.333 248.369 166.919 257.089 166.229C273.03 164.984 288.888 166.633 304.147 171.547C312.583 174.256 320.637 177.942 328.275 182.452V175.182C322.234 178.564 316.211 181.947 310.17 185.329C304.912 188.274 299.654 191.489 293.98 193.558C282.581 197.715 269.652 195.931 258.054 193.508C246.456 191.085 235.307 187.181 224.84 181.728C214.64 176.41 205.155 168.737 193.773 166.095C187.4 164.614 180.827 165.001 174.704 167.357C168.58 169.713 162.79 173.617 157.298 177.572C155.468 178.884 154.603 181.24 155.801 183.327C156.849 185.161 159.661 186.154 161.492 184.841L161.525 184.858Z" fill="#BEC3AB"/>
<path d="M173.056 195.208C186.368 213.719 181.593 233.643 183.872 254.595C185.187 266.644 187.65 279.063 194.655 289.193C200.679 297.911 209.265 304.019 217.752 310.044C226.238 316.068 235.324 322.631 239.667 332.728C241.347 336.632 247.554 334.562 247.421 330.608C247.088 320.831 244.159 311.558 240.781 302.471C237.853 294.629 234.874 286.804 231.48 279.164C224.74 264.002 215.821 250.101 202.31 240.274C200.246 238.776 198.133 237.346 196.053 235.848C194.139 234.468 192.326 232.583 190.262 231.489C187.367 229.958 183.407 231.388 182.941 234.872C182.558 237.699 184.904 240.392 187.75 240.324C189.78 240.274 191.028 239.012 191.76 237.228L191.86 236.992C192.725 234.889 190.928 232.364 188.948 231.809C186.552 231.136 184.704 232.634 183.823 234.754L183.723 234.99L187.733 231.893H187.517C188.216 232.095 188.914 232.28 189.613 232.465L190.013 232.718L191.078 234.569L191.011 234.283L190.595 237.531L190.745 237.278L188.265 239.214L188.731 239.045H186.518C187.517 239.23 189.314 241.233 190.279 241.957C191.91 243.185 193.59 244.346 195.271 245.507C198.15 247.51 200.945 249.563 203.524 251.953C208.333 256.395 212.36 261.545 215.805 267.098C222.993 278.676 227.819 291.549 232.595 304.288C235.756 312.736 238.768 321.436 239.084 330.557L246.838 328.437C238.518 309.118 216.57 302.656 203.724 287.393C196.402 278.693 193.64 267.014 192.342 255.924C190.945 243.976 190.895 231.927 188.781 220.063C186.552 207.526 181.792 194.922 172.091 186.339C170.394 184.842 167.865 184.656 166.201 186.339C164.687 187.871 169.729 193.525 169.729 193.525L173.056 195.208Z" fill="#BEC3AB"/>
<path d="M228.817 223.109C240.981 244.464 257.039 263.615 276.341 278.726C295.877 294.023 319.289 305.837 343.933 309.387C359.342 311.609 375 310.481 389.211 303.683C392.289 302.219 391.707 296.531 388.212 295.992C380.242 294.764 373.086 291.297 366.081 287.41C359.076 283.522 351.588 279.298 344.016 275.815C328.608 268.747 312.467 263.396 295.86 260.081C286.392 258.179 270.035 256.429 260.417 255.789C258.17 255.638 263.029 258.314 263.029 260.484C263.029 262.891 262.33 261.528 264.577 261.679C280.984 262.79 299.82 268.882 315.529 273.796C331.237 278.709 346.113 285.861 360.623 293.973C368.594 298.432 376.93 302.69 386.032 304.103L385.034 296.413C362.587 307.149 335.463 301.394 313.715 291.65C292.665 282.227 274.078 267.939 258.736 250.674C250.067 240.913 242.512 230.227 236.039 218.851C233.36 214.156 226.171 218.397 228.851 223.092L228.817 223.109Z" fill="#BEC3AB"/>
<path d="M319.322 240.375C346.862 217.926 375.882 194.534 411.508 187.517C421.226 185.599 431.193 185.178 441.028 186.356L438.082 179.17C431.959 185.397 425.819 191.64 419.695 197.866C413.572 204.093 408.114 209.932 401.99 215.603C390.758 226.037 377.197 232.819 362.071 235.04C359.841 235.377 358.626 238.221 359.159 240.223C359.808 242.63 362.037 243.488 364.284 243.168C376.331 241.384 388.046 236.74 398.013 229.655C408.929 221.914 417.948 211.581 427.316 202.057C432.874 196.402 438.432 190.765 443.99 185.111C446.769 182.3 444.456 178.346 441.044 177.925C403.421 173.415 381.207 185.868 351.937 207.829C336.711 222.453 328.707 227.922 320.321 234.754C318.574 236.184 313.032 235.781 314.497 237.278C316.227 239.028 317.575 241.788 319.339 240.358L319.322 240.375Z" fill="#BEC3AB"/>
<path d="M314.58 236.874C325.546 219.777 336.611 202.545 350.506 187.669C357.228 180.466 364.683 173.129 373.253 168.215C377.895 165.556 382.871 164.765 388.079 163.974C393.287 163.184 397.913 161.82 402.423 159.313C411.941 154.046 419.029 145.312 425.17 136.477L417.415 134.357C417.415 151.724 410.926 168.787 399.328 181.61C395.717 185.599 401.591 191.573 405.218 187.568C418.297 173.095 425.735 153.979 425.752 134.357C425.752 129.931 420.277 128.955 417.998 132.236C412.789 139.725 406.766 147.163 398.795 151.74C394.635 154.13 390.192 155.207 385.5 155.914C380.042 156.738 374.933 157.799 369.991 160.424C361.122 165.169 353.285 172.675 346.329 179.894C339.374 187.113 332.684 195.511 326.594 203.908C319.838 213.231 313.598 222.924 307.391 232.617C304.463 237.177 311.668 241.401 314.58 236.858V236.874Z" fill="#BEC3AB"/>
<path d="M450.729 234.249C451.91 216.731 455.987 199.381 460.746 182.536C465.122 167.037 470.98 151.623 480.814 138.783C485.739 132.354 491.63 126.683 498.419 122.308L492.312 117.562C490.049 126.363 493.827 134.693 495.607 143.175C497.055 150.024 497.537 157.058 497.238 164.059C496.622 178.178 492.512 192.145 485.473 204.345C481.48 211.262 476.571 217.488 470.813 222.991C466.903 226.71 468.667 228.359 472.577 224.657C494.376 203.891 508.869 176.73 504.692 146.877C504.093 142.636 503.145 138.497 501.997 134.39C500.682 129.679 499.085 124.731 500.349 119.817C501.231 116.384 497.371 113.052 494.242 115.072C464.79 134.02 454.306 170.117 447.184 202.646C444.905 213.063 443.141 223.614 442.442 234.266C442.292 236.538 443.807 233.071 445.953 233.071C448.333 233.071 450.695 234.924 450.845 232.652L450.729 234.249Z" fill="#BEC3AB"/>
<path d="M391.39 241.519C400.443 246.635 406.2 255.587 412.24 263.8C418.93 272.904 426.501 280.88 435.819 287.258C445.138 293.636 455.488 298.112 466.337 300.468C479.1 303.262 492.212 303.161 505.092 305.113C516.806 306.88 528.854 310.397 537.507 319.013C540.901 322.396 546.293 318.104 544.046 313.914C535.31 297.692 523.479 283.085 509.335 271.389C505.624 268.31 501.78 265.314 497.371 263.328C492.678 261.225 487.703 260.165 482.711 259.088C472.694 256.951 462.593 255.032 452.376 254.308C440.595 253.484 428.731 254.628 417.316 257.708C412.141 259.105 414.337 267.216 419.529 265.819C428.964 263.278 438.631 262.167 448.399 262.521C458.167 262.874 467.552 264.506 476.987 266.459C481.663 267.435 486.438 268.276 490.981 269.791C494.958 271.103 498.502 273.375 501.797 275.966C508.586 281.318 514.826 287.46 520.451 294.04C526.79 301.444 532.248 309.556 536.891 318.155L543.43 313.056C525.343 294.999 498.918 297.019 475.689 293.619C464.457 291.97 453.757 288.436 444.006 282.513C434.887 276.976 427.05 269.673 420.644 261.107C413.289 251.263 406.133 243.454 395.201 237.278C390.525 234.636 386.748 238.86 391.44 241.502L391.39 241.519Z" fill="#BEC3AB"/>
<path d="M528.521 296.312C533.114 296.127 537.69 295.689 542.249 295.033C544.346 294.73 546.426 294.393 548.506 293.99C550.586 293.586 553.215 293.333 555.162 292.239C559.804 289.631 557.957 283.977 554.513 281.368C551.518 279.097 548.439 277.094 545.594 274.587C539.836 269.521 534.328 263.917 527.539 260.266C520.334 256.378 512.247 254.712 504.127 254.426C495.008 254.107 485.889 255.503 476.92 257.102C474.707 257.489 473.459 260.232 474.008 262.285C474.657 264.658 476.904 265.617 479.133 265.23C492.262 262.908 506.423 260.922 519.269 265.684C525.26 267.906 530.202 271.995 534.894 276.219C537.423 278.491 539.903 280.813 542.532 282.967C543.847 284.044 545.194 285.104 546.576 286.097C547.308 286.619 548.073 287.107 548.805 287.612C549.022 287.78 549.255 287.915 549.504 288.032C550.353 289.059 550.469 288.436 549.854 286.164L551.351 284.65C550.403 285.357 547.707 285.592 546.276 285.862C544.329 286.232 542.382 286.568 540.419 286.854C536.475 287.41 532.481 287.729 528.504 287.881C523.163 288.1 523.146 296.514 528.504 296.295L528.521 296.312Z" fill="#BEC3AB"/>
<path d="M507.821 219.306C515.043 223.816 521.765 229.016 527.889 234.939C534.012 240.863 539.204 247.712 546.442 252.239C553.182 256.446 561.285 258.936 569.073 260.283C576.86 261.629 583.966 261.814 591.404 260.552C599.591 259.155 607.245 255.537 613.352 249.832C615.732 247.611 614.384 243.707 611.522 242.798C598.193 238.625 584.382 234.3 573.599 224.943C568.074 220.147 562.899 215.284 556.11 212.356C549.804 209.646 542.965 208.401 536.126 208.418C528.488 208.435 520.833 209.949 513.661 212.591C511.548 213.365 510.134 215.452 510.749 217.774C511.315 219.827 509.934 217.017 512.064 216.243C523.745 211.935 541.101 214.964 552.816 220.013C558.972 222.671 563.515 227.35 568.574 231.624C574.032 236.235 580.089 239.87 586.595 242.748C593.983 246.029 601.637 248.503 609.325 250.909L607.495 243.875C597.877 252.861 583.733 254.325 571.319 252.171C564.214 250.943 556.859 248.823 550.686 244.969C544.113 240.88 539.337 234.333 533.813 228.982C527.19 222.57 519.852 216.899 512.064 212.019C507.488 209.158 503.311 216.445 507.871 219.289L507.821 219.306Z" fill="#BEC3AB"/>
<path d="M571.602 189.941C581.287 192.044 591.271 194.148 600.073 198.944C609.342 203.992 615.199 212.541 622.654 219.76C637.064 233.728 655.701 243.353 675.369 246.837C686.502 248.806 699.032 249.815 708.317 242.108C710.247 240.509 709.798 236.538 707.468 235.495C701.095 232.651 695.404 228.292 691.36 222.503C686.818 215.991 683.606 208.67 677.815 203.1C666.9 192.599 651.557 188.628 636.848 188.443C626.797 188.308 613.499 190.933 603.581 192.364C601.352 192.684 603.451 194.383 603.984 196.386C604.649 198.809 604.283 196.369 606.529 196.049C621.905 193.861 640.608 194.888 655.717 199.751C661.791 201.704 667.582 204.817 672.174 209.31C677.466 214.493 680.328 221.426 684.605 227.383C689.414 234.064 695.77 239.449 703.258 242.781L702.409 236.168C695.67 241.755 684.754 240.072 676.884 238.625C667.748 236.942 658.862 233.946 650.609 229.655C642.355 225.364 634.335 219.642 627.546 212.877C620.341 205.692 614.384 197.547 605.448 192.364C595.73 186.726 584.648 184.202 573.799 181.846C568.574 180.719 566.344 188.813 571.585 189.957L571.602 189.941Z" fill="#BEC3AB"/>
<path d="M557.608 187.467C545.361 172.641 550.769 150.68 556.876 134.475C560.07 125.993 564.796 118.589 571.419 112.463C578.042 106.338 585.247 101.996 592.718 97.6543C601.571 92.5049 610.939 86.3794 621.306 85.1846L617.296 79.8669C611.022 95.3994 604.832 110.965 598.459 126.464C595.614 133.364 592.086 139.439 587.194 145.06C582.052 150.966 576.96 156.822 572.284 163.099C567.126 170.016 562.417 177.286 558.157 184.808C555.494 189.52 562.683 193.76 565.345 189.049C572.983 175.552 582.152 163.419 592.352 151.841C597.644 145.834 601.887 139.54 605.048 132.135C608.21 124.731 611.272 116.855 614.367 109.215C618.028 100.179 621.672 91.1418 625.333 82.105C626.298 79.7323 623.819 76.4844 621.322 76.7873C610.523 78.0326 601.121 83.1821 591.803 88.5334C583.283 93.4136 574.797 98.4789 567.326 104.941C559.854 111.403 553.897 119.952 549.97 129.493C545.86 139.473 542.815 150.31 542.149 161.131C541.434 172.725 544.329 184.438 551.767 193.441C553.215 195.191 556.16 194.938 557.658 193.441C559.372 191.707 559.105 189.234 557.658 187.484L557.608 187.467Z" fill="#BEC3AB"/>
<path d="M610.839 118.942C620.657 106.573 637.563 107.112 651.74 107.65L648.795 100.465C638.761 112.396 628.993 124.647 618.527 136.174C609.425 146.204 599.158 154.954 587.676 162.056C581.27 166.011 581.869 167.104 574.914 169.965C572.834 170.823 564.064 175.148 564.696 177.538C565.245 179.524 562.6 185.127 564.697 184.269C577.709 178.918 594.964 168.097 606.047 159.363C617.761 150.125 627.363 138.934 636.947 127.524C642.855 120.49 648.762 113.456 654.686 106.422C657.015 103.645 655.501 99.3876 651.74 99.2361C635.433 98.6303 616.164 98.8827 604.949 112.985C603.551 114.752 603.235 117.209 604.949 118.942C606.396 120.406 609.425 120.726 610.839 118.942Z" fill="#BEC3AB"/>
<path d="M651.458 160.71C659.944 147.533 668.114 133.33 678.082 121.163C682.242 116.956 690.894 111.083 698.083 107.297C706.053 103.107 714.174 99.7074 721.246 94.0026C728.318 88.2978 734.525 80.3212 738.468 71.722L730.714 69.6016C729.15 95.6854 717.435 120.81 699.048 139.102C693.806 144.319 688.066 148.93 681.826 152.885C677.299 155.762 681.027 160.239 685.57 157.344C709.382 142.199 727.486 120.726 735.09 93.3631C737.237 85.6221 738.535 77.6287 739.017 69.6016C739.267 65.5628 732.994 63.6949 731.263 67.4813C727.802 75.0203 722.893 81.617 716.62 86.9852C709.964 92.69 701.844 95.8705 694.189 99.8588C686.535 103.847 680.278 108.879 674.837 115.257C669.395 121.635 665.369 128.063 661.392 134.946C656.882 142.737 652.689 150.731 647.813 158.303C644.885 162.847 650.193 164.395 653.122 159.868L651.458 160.71Z" fill="#BEC3AB"/>
<path d="M744.585 159.195C759.511 189.099 786.701 212.036 818.017 222.604C826.92 225.6 836.122 227.484 845.457 228.376C849.184 228.73 850.765 223.614 848.402 221.191C837.22 209.747 826.254 197.984 814.723 186.895C809.281 181.678 803.441 176.899 796.918 173.112C790.761 169.528 784.155 166.734 777.466 164.345C769.811 161.635 761.957 159.515 754.12 157.412C748.945 156.032 746.731 164.143 751.907 165.523C765.085 169.057 778.481 172.591 790.561 179.154C803.541 186.205 813.342 197.278 823.575 207.745C829.898 214.207 836.205 220.669 842.528 227.114L845.473 219.928C814.756 217.017 783.706 202.949 763.954 179.154C760.45 174.172 752.073 166.078 748.146 158.186C745.733 153.356 742.189 154.349 744.602 159.162L744.585 159.195Z" fill="#BEC3AB"/>
<path d="M785.41 160.133C797.158 144.82 824.83 138.513 843.284 135.097C853.651 133.179 864.217 132.64 874.734 132.539C885.25 132.438 895.534 132.926 905.418 136.242C914.487 139.271 922.873 144.992 927.749 153.44L929.247 147.685C921.992 151.791 912.64 148.593 904.836 148.493C896.016 148.375 887.414 150.832 879.11 153.541C870.99 156.2 862.753 159.347 854.2 160.188C845.031 161.08 832.002 162.46 811.202 160.188C804.546 159.869 795.394 159.027 783.746 158.186C781.516 158.505 791.284 159.885 791.817 161.888C792.482 164.311 808.955 168.586 811.202 168.283C829.872 165.641 833.999 170.066 852.686 168.737C861.755 168.097 870.358 165.304 878.927 162.46C887.497 159.616 895.451 156.957 904.12 156.923C914.071 156.89 924.171 160.222 933.457 154.971C935.42 153.861 936.069 151.151 934.954 149.216C923.972 130.099 901.308 124.613 880.957 124.176C858.859 123.705 835.63 125.556 815.395 135.215C805.345 140.011 787.257 148.425 780.418 157.344C779.037 159.145 787.523 160.07 789.254 161.821C790.685 163.268 786.508 165.035 787.906 163.234L785.41 160.133Z" fill="#BEC3AB"/>
<path d="M774.111 162.376C783.979 160.743 791.783 153.928 795.976 144.942C798.123 140.348 800.303 136.225 803.864 132.59C807.425 128.955 811.169 126.212 815.162 123.469C824.065 117.377 833.117 111.285 842.918 106.775C851.221 102.972 860.024 100.414 868.51 97.099C878.394 93.2454 888.012 88.4157 895.351 80.5064L888.811 75.4074C881.539 92.5722 873.153 109.232 863.701 125.286C860.956 129.948 868.144 134.189 870.89 129.527C880.341 113.49 888.728 96.8298 896 79.6481C896.815 77.7129 896.732 75.5757 894.935 74.2126C893.337 73.001 890.908 72.9841 889.477 74.5492C877.08 87.9108 858.127 91.2091 842.069 98.0414C832.002 102.316 822.85 108.206 813.781 114.298C805.761 119.683 797.59 125.404 792.332 133.751C789.387 138.412 788.022 143.983 784.129 148.004C780.801 151.437 770.434 155.661 761.282 154.82C759.069 155.19 768.47 157.395 769.019 159.431C769.668 161.82 771.915 162.746 774.145 162.376H774.111Z" fill="#BEC3AB"/>
<path d="M873.086 199.785C882.421 213.264 890.891 227.35 898.396 241.973C902.09 249.176 905.468 256.513 908.779 263.901C912.091 271.288 915.585 278.255 921.06 284.027C926.534 289.799 934.155 294.326 942.109 296.463C945.005 297.237 948.299 294.393 947.234 291.28C944.755 284.027 944.722 276.404 943.84 268.865C943.008 261.713 941.261 254.948 938.415 248.351C935.57 241.755 931.876 236.084 927.366 230.85C923.206 226.037 918.231 222.099 913.438 217.96C908.646 213.82 903.255 208.906 900.942 202.528C899.061 197.345 892.921 204.766 892.921 204.766C893.071 205.81 897.73 206.987 897.73 206.987C897.73 206.987 896.516 211.397 898.479 210.858C900.875 210.185 901.691 207.947 901.391 205.675C901.241 204.632 901.108 203.588 900.958 202.528L881.922 199.415C881.922 199.415 908.713 224.035 917.781 232.869C926.85 241.704 933.506 254.494 935.37 267.687C936.585 276.32 936.352 285.172 939.214 293.518L944.339 288.335C938.049 286.636 932.308 283.405 927.666 278.777C922.491 273.611 919.263 266.947 916.284 260.333C909.828 245.979 902.939 231.927 894.935 218.38C890.325 210.589 885.45 202.982 880.292 195.544C879.01 193.693 876.647 192.818 874.601 194.03C872.787 195.107 864.816 189.133 866.114 191.001L873.086 199.785Z" fill="#BEC3AB"/>
<path d="M945.537 230.042C965.073 244.986 976.321 268.108 984.991 290.657L991.098 285.912C982.711 281.486 973.293 280.948 964.407 278.087C955.521 275.226 949.315 275.983 935.171 242.327C933.723 240.577 939.497 260.821 937.999 262.336C936.285 264.069 936.552 266.543 937.999 268.293C944.106 275.663 951.195 282.126 960.214 285.525C969.233 288.924 978.618 288.823 986.888 293.182C989.783 294.713 994.409 292.088 992.995 288.436C983.427 263.598 959.298 228.023 950.978 223.816C944.322 219.608 945.055 222.503 944.023 224.304C942.775 226.458 943.723 228.679 945.521 230.059L945.537 230.042Z" fill="#BEC3AB"/>
<path d="M898.146 202.158C904.004 199.533 910.327 197.429 916.683 196.52C923.04 195.612 929.613 196.133 935.903 197.429C949.015 200.138 961.229 205.86 973.809 210.269C980.997 212.776 988.302 214.712 995.857 215.688L993.76 207.846C987.453 211.767 981.147 215.705 975.156 220.097C972.411 222.116 969.832 224.523 966.87 226.205C963.908 227.888 960.23 228.359 956.852 228.864C954.623 229.201 953.408 232.028 953.94 234.047C954.589 236.454 956.819 237.329 959.065 236.992C962.876 236.42 966.603 235.713 970.098 233.997C973.259 232.432 975.905 229.941 978.734 227.838C984.907 223.244 991.447 219.188 997.97 215.116C1001.76 212.743 999.767 207.778 995.873 207.274C968.783 203.79 944.955 184.522 916.733 188.106C908.813 189.116 901.241 191.64 893.953 194.922C891.906 195.847 891.424 198.876 892.455 200.677C893.687 202.814 896.083 203.117 898.146 202.192V202.158Z" fill="#BEC3AB"/>
</g>
<defs>
<clipPath id="clip0_386_532">
<rect width="1000" height="335" fill="white"/>
</clipPath>
</defs>
</svg>
