<svg width="45" height="45" viewBox="0 0 45 45" fill="none" xmlns="http://www.w3.org/2000/svg">
<path d="M22.4999 0C28.6132 0 29.3759 0.0225178 31.7744 0.135C34.1706 0.247508 35.8019 0.623266 37.2375 1.18125C38.7225 1.75275 39.9734 2.52676 41.2243 3.77551C42.3686 4.90027 43.2539 6.26082 43.8188 7.76248C44.3744 9.19574 44.7524 10.8292 44.865 13.2255C44.9706 15.624 45 16.3867 45 22.4999C45 28.6132 44.9773 29.3759 44.865 31.7744C44.7524 34.1706 44.3744 35.8019 43.8188 37.2375C43.2555 38.7398 42.3699 40.1009 41.2243 41.2243C40.0992 42.368 38.739 43.2534 37.2375 43.8188C35.8041 44.3744 34.1706 44.7524 31.7744 44.865C29.3759 44.9706 28.6132 45 22.4999 45C16.3867 45 15.624 44.9773 13.2255 44.865C10.8292 44.7524 9.19798 44.3744 7.76248 43.8188C6.26023 43.255 4.89943 42.3694 3.77551 41.2243C2.63117 40.0998 1.74584 38.7393 1.18125 37.2375C0.623266 35.8041 0.247508 34.1706 0.135 31.7744C0.0292678 29.3759 0 28.6132 0 22.4999C0 16.3867 0.0225178 15.624 0.135 13.2255C0.247508 10.827 0.623266 9.19798 1.18125 7.76248C1.74428 6.25991 2.62982 4.89898 3.77551 3.77551C4.89976 2.63077 6.26045 1.74538 7.76248 1.18125C9.19798 0.623266 10.827 0.247508 13.2255 0.135C15.624 0.0292678 16.3867 0 22.4999 0ZM22.4999 11.25C19.5163 11.25 16.6548 12.4352 14.545 14.545C12.4352 16.6548 11.25 19.5163 11.25 22.4999C11.25 25.4836 12.4352 28.3451 14.545 30.4549C16.6548 32.5646 19.5163 33.7499 22.4999 33.7499C25.4836 33.7499 28.3451 32.5646 30.4549 30.4549C32.5646 28.3451 33.7499 25.4836 33.7499 22.4999C33.7499 19.5163 32.5646 16.6548 30.4549 14.545C28.3451 12.4352 25.4836 11.25 22.4999 11.25ZM37.1249 10.6875C37.1249 9.94156 36.8285 9.2262 36.3012 8.69876C35.7736 8.17131 35.0584 7.87499 34.3123 7.87499C33.5666 7.87499 32.8511 8.17131 32.3238 8.69876C31.7962 9.2262 31.5 9.94156 31.5 10.6875C31.5 11.4334 31.7962 12.1488 32.3238 12.6762C32.8511 13.2037 33.5666 13.5 34.3123 13.5C35.0584 13.5 35.7736 13.2037 36.3012 12.6762C36.8285 12.1488 37.1249 11.4334 37.1249 10.6875ZM22.4999 15.75C24.2902 15.75 26.0072 16.4611 27.2729 17.727C28.5387 18.9929 29.2499 20.7097 29.2499 22.4999C29.2499 24.2902 28.5387 26.0072 27.2729 27.2729C26.0072 28.5387 24.2902 29.2499 22.4999 29.2499C20.7097 29.2499 18.9929 28.5387 17.727 27.2729C16.4611 26.0072 15.75 24.2902 15.75 22.4999C15.75 20.7097 16.4611 18.9929 17.727 17.727C18.9929 16.4611 20.7097 15.75 22.4999 15.75Z" fill="#565348"/>
</svg>
