<svg width="54" height="51" viewBox="0 0 54 51" fill="none" xmlns="http://www.w3.org/2000/svg">
<path d="M11.3326 5.66917C11.3319 7.17198 10.7342 8.61295 9.67099 9.67505C8.60784 10.7372 7.1663 11.3334 5.66349 11.3327C4.16067 11.3319 2.71974 10.7342 1.65761 9.67104C0.595509 8.60789 -0.000781185 7.1663 7.68098e-07 5.66352C0.000748723 4.16071 0.598433 2.71974 1.66162 1.65764C2.7248 0.595543 4.16635 -0.000747253 5.66916 7.02799e-07C7.17194 0.000748659 8.61291 0.598467 9.67501 1.66165C10.7371 2.72484 11.3334 4.16639 11.3326 5.66917ZM11.5026 15.5286H0.16999V51H11.5026V15.5286ZM29.4082 15.5286H18.1322V51H29.295V32.3861C29.295 22.0166 42.8092 21.0533 42.8092 32.3861V51H54V28.5328C54 11.0522 33.998 11.7038 29.295 20.2883L29.4082 15.5286Z" fill="#565348"/>
</svg>
