<svg width="45" height="51" viewBox="0 0 45 51" fill="none" xmlns="http://www.w3.org/2000/svg">
<path d="M41.7887 11.9933C39.2504 11.4503 36.9519 10.1108 35.2283 8.16997C33.5046 6.22916 32.446 3.78853 32.2066 1.20388V0.0830078H23.4506V34.8327C23.4452 36.3711 22.9579 37.8691 22.0571 39.1163C21.1564 40.3635 19.8876 41.2971 18.4289 41.7859C16.9702 42.2748 15.395 42.2943 13.9246 41.8417C12.4543 41.3892 11.1627 40.4873 10.2314 39.2628C9.28557 38.0178 8.76091 36.504 8.73348 34.9407C8.70604 33.3775 9.17726 31.8462 10.0788 30.5688C10.9803 29.2914 12.2653 28.3344 13.7474 27.8365C15.2295 27.3387 16.8316 27.3258 18.3215 27.7999V18.904C14.9992 18.4448 11.6164 19.0354 8.64626 20.5934C5.67616 22.1514 3.2673 24.5988 1.75664 27.5932C0.24597 30.5877 -0.290952 33.9794 0.220974 37.294C0.732899 40.6087 2.26807 43.6804 4.61175 46.0796C6.84678 48.3664 9.71258 49.9354 12.8433 50.5862C15.9741 51.2371 19.2277 50.9402 22.189 49.7335C25.1503 48.5269 27.6848 46.4652 29.4691 43.8116C31.2534 41.158 32.2064 38.0329 32.2066 34.8352V17.0791C35.7452 19.6089 39.9881 20.9654 44.338 20.9577V12.2576C43.4813 12.2587 42.6269 12.1701 41.7887 11.9933Z" fill="#565348"/>
</svg>
