
<svg xmlns="http://www.w3.org/2000/svg" version="1.1" xmlns:xlink="http://www.w3.org/1999/xlink" preserveAspectRatio="none" x="0px" y="0px" width="384px" height="95px" viewBox="0 0 384 95">
<defs>
<g id="Layer1_0_FILL">
<path fill="#FCF5DB" stroke="none" d="
M 260.5 45
L 260.5 0.5 20 0.5
Q 11.9 0.5 6.2 6.2 0.5 11.95 0.5 20
L 0.5 45
Q 0.5 53.1 6.2 58.8 11.9 64.5 20 64.5
L 241 64.5
Q 249.05 64.5 254.8 58.8 260.5 53.1 260.5 45 Z"/>
</g>

<g id="Layer1_1_FILL">
<path fill="#727272" fill-opacity="0.2" stroke="none" d="
M 260.5 45
L 260.5 0.5 20 0.5
Q 11.9 0.5 6.2 6.2 0.5 11.95 0.5 20
L 0.5 45
Q 0.5 53.1 6.2 58.8 11.9 64.5 20 64.5
L 241 64.5
Q 249.05 64.5 254.8 58.8 260.5 53.1 260.5 45 Z"/>
</g>

<g id="Layer1_48_FILL">
<path fill="#565348" stroke="none" d="
M 36.15 34.45
Q 36.6 34.2 36.8 33.85 37.05 33.45 37.05 33 37.05 32.55 36.8 32.15 36.55 31.75 36.15 31.6
L 27.5 26.3 27.5 26.25
Q 27.15 26.05 26.65 26.05 26.15 26.05 25.8 26.25 25.35 26.5 25.15 26.85 24.9 27.25 24.9 27.7
L 24.9 38.35
Q 24.9 38.8 25.15 39.2 25.35 39.55 25.8 39.8 26.15 40 26.65 40 27.15 40 27.5 39.8
L 36.15 34.45 Z"/>
</g>

<path id="Layer1_2_1_STROKES" stroke="#CAC4AF" stroke-width="1" stroke-linejoin="miter" stroke-linecap="butt" stroke-miterlimit="4" fill="none" d="
M 383.98511505126953 0.48749542236328125
L 29.24981689453125 0.48749542236328125
Q 17.302391052246094 0.48749542236328125 8.894943237304688 8.894943237304688 0.48749542236328125 17.376140594482422 0.48749542236328125 29.24981689453125
L 0.48749542236328125 66.12458801269531
Q 0.48749542236328125 78.07201385498047 8.894943237304688 86.47946166992188 17.302391052246094 94.88690948486328 29.24981689453125 94.88690948486328
L 355.22279357910156 94.88690948486328
Q 367.0964698791504 94.88690948486328 375.5776672363281 86.47946166992188 383.98511505126953 78.07201385498047 383.98511505126953 66.12458801269531
L 383.98511505126953 0.48749542236328125 Z"/>

<path id="Layer1_3_1_STROKES" stroke="#999483" stroke-width="2" stroke-linejoin="miter" stroke-linecap="round" stroke-miterlimit="4" fill="none" d="
M 231.3235626220703 39.224752807617186
L 231.3235626220703 56.187147521972655"/>

<path id="Layer1_4_1_STROKES" stroke="#999483" stroke-width="2" stroke-linejoin="miter" stroke-linecap="round" stroke-miterlimit="4" fill="none" d="
M 249.02345275878906 34.0497802734375
L 249.02345275878906 61.337110900878905"/>

<path id="Layer1_5_1_STROKES" stroke="#999483" stroke-width="2" stroke-linejoin="miter" stroke-linecap="round" stroke-miterlimit="4" fill="none" d="
M 243.1234893798828 41.474734497070315
L 243.1234893798828 54.0121566772461"/>

<path id="Layer1_6_1_STROKES" stroke="#999483" stroke-width="2" stroke-linejoin="miter" stroke-linecap="round" stroke-miterlimit="4" fill="none" d="
M 237.22352600097656 31.499798583984376
L 237.22352600097656 63.94959716796875"/>

<path id="Layer1_7_1_STROKES" stroke="#999483" stroke-width="2" stroke-linejoin="miter" stroke-linecap="round" stroke-miterlimit="4" fill="none" d="
M 225.42359924316406 35.1997802734375
L 225.42359924316406 60.27462463378906"/>

<path id="Layer1_8_1_STROKES" stroke="#999483" stroke-width="2" stroke-linejoin="miter" stroke-linecap="round" stroke-miterlimit="4" fill="none" d="
M 219.5236358642578 31.849798583984374
L 219.5236358642578 63.56210174560547"/>

<path id="Layer1_9_1_STROKES" stroke="#999483" stroke-width="2" stroke-linejoin="miter" stroke-linecap="round" stroke-miterlimit="4" fill="none" d="
M 213.62367248535156 33.724789428710935
L 213.62367248535156 61.74961547851562"/>

<path id="Layer1_10_1_STROKES" stroke="#999483" stroke-width="2" stroke-linejoin="miter" stroke-linecap="round" stroke-miterlimit="4" fill="none" d="
M 207.7237091064453 39.224752807617186
L 207.7237091064453 56.187147521972655"/>

<path id="Layer1_11_1_STROKES" stroke="#999483" stroke-width="2" stroke-linejoin="miter" stroke-linecap="round" stroke-miterlimit="4" fill="none" d="
M 148.7240753173828 39.224752807617186
L 148.7240753173828 56.187147521972655"/>

<path id="Layer1_12_1_STROKES" stroke="#999483" stroke-width="2" stroke-linejoin="miter" stroke-linecap="round" stroke-miterlimit="4" fill="none" d="
M 83.82447814941406 39.624752807617185
L 83.82447814941406 55.84965209960937"/>

<path id="Layer1_13_1_STROKES" stroke="#999483" stroke-width="2" stroke-linejoin="miter" stroke-linecap="round" stroke-miterlimit="4" fill="none" d="
M 190.02381896972656 24.47484436035156
L 190.02381896972656 70.93705596923829"/>

<path id="Layer1_14_1_STROKES" stroke="#999483" stroke-width="2" stroke-linejoin="miter" stroke-linecap="round" stroke-miterlimit="4" fill="none" d="
M 184.1238555908203 42.57473449707031
L 184.1238555908203 52.89967041015625"/>

<path id="Layer1_15_1_STROKES" stroke="#999483" stroke-width="2" stroke-linejoin="miter" stroke-linecap="round" stroke-miterlimit="4" fill="none" d="
M 178.22389221191406 40.69974365234375
L 178.22389221191406 54.71215667724609"/>

<path id="Layer1_16_1_STROKES" stroke="#999483" stroke-width="2" stroke-linejoin="miter" stroke-linecap="round" stroke-miterlimit="4" fill="none" d="
M 172.3239288330078 44.774716186523435
L 172.3239288330078 50.674679565429685"/>

<path id="Layer1_17_1_STROKES" stroke="#999483" stroke-width="2" stroke-linejoin="miter" stroke-linecap="round" stroke-miterlimit="4" fill="none" d="
M 166.42396545410156 34.0497802734375
L 166.42396545410156 61.337110900878905"/>

<path id="Layer1_18_1_STROKES" stroke="#999483" stroke-width="2" stroke-linejoin="miter" stroke-linecap="round" stroke-miterlimit="4" fill="none" d="
M 160.5240020751953 41.474734497070315
L 160.5240020751953 54.0121566772461"/>

<path id="Layer1_19_1_STROKES" stroke="#999483" stroke-width="2" stroke-linejoin="miter" stroke-linecap="round" stroke-miterlimit="4" fill="none" d="
M 154.62403869628906 31.499798583984376
L 154.62403869628906 63.94959716796875"/>

<path id="Layer1_20_1_STROKES" stroke="#999483" stroke-width="2" stroke-linejoin="miter" stroke-linecap="round" stroke-miterlimit="4" fill="none" d="
M 142.82411193847656 35.1997802734375
L 142.82411193847656 60.27462463378906"/>

<path id="Layer1_21_1_STROKES" stroke="#999483" stroke-width="2" stroke-linejoin="miter" stroke-linecap="round" stroke-miterlimit="4" fill="none" d="
M 136.9241485595703 31.849798583984374
L 136.9241485595703 63.56210174560547"/>

<path id="Layer1_22_1_STROKES" stroke="#999483" stroke-width="2" stroke-linejoin="miter" stroke-linecap="round" stroke-miterlimit="4" fill="none" d="
M 131.02418518066406 33.724789428710935
L 131.02418518066406 61.74961547851562"/>

<path id="Layer1_23_1_STROKES" stroke="#999483" stroke-width="2" stroke-linejoin="miter" stroke-linecap="round" stroke-miterlimit="4" fill="none" d="
M 125.12422180175781 39.224752807617186
L 125.12422180175781 56.187147521972655"/>

<path id="Layer1_24_1_STROKES" stroke="#999483" stroke-width="2" stroke-linejoin="miter" stroke-linecap="round" stroke-miterlimit="4" fill="none" d="
M 119.22425842285156 36.999761962890624
L 119.22425842285156 58.38712921142578"/>

<path id="Layer1_25_1_STROKES" stroke="#999483" stroke-width="2" stroke-linejoin="miter" stroke-linecap="round" stroke-miterlimit="4" fill="none" d="
M 113.32429504394531 33.324789428710936
L 113.32429504394531 62.087110900878905"/>

<path id="Layer1_26_1_STROKES" stroke="#999483" stroke-width="2" stroke-linejoin="miter" stroke-linecap="round" stroke-miterlimit="4" fill="none" d="
M 107.42433166503906 41.82473449707031
L 107.42433166503906 53.62466125488281"/>

<path id="Layer1_27_1_STROKES" stroke="#999483" stroke-width="2" stroke-linejoin="miter" stroke-linecap="round" stroke-miterlimit="4" fill="none" d="
M 101.52436828613281 27.824826049804688
L 101.52436828613281 67.64957885742187"/>

<path id="Layer1_28_1_STROKES" stroke="#999483" stroke-width="2" stroke-linejoin="miter" stroke-linecap="round" stroke-miterlimit="4" fill="none" d="
M 95.62440490722656 42.57473449707031
L 95.62440490722656 52.89967041015625"/>

<path id="Layer1_29_1_STROKES" stroke="#999483" stroke-width="2" stroke-linejoin="miter" stroke-linecap="round" stroke-miterlimit="4" fill="none" d="
M 89.72444152832031 29.674807739257812
L 89.72444152832031 65.8120834350586"/>

<path id="Layer1_30_1_STROKES" stroke="#999483" stroke-width="2" stroke-linejoin="miter" stroke-linecap="round" stroke-miterlimit="4" fill="none" d="
M 343.42286682128906 39.624752807617185
L 343.42286682128906 55.84965209960937"/>

<path id="Layer1_31_1_STROKES" stroke="#999483" stroke-width="2" stroke-linejoin="miter" stroke-linecap="round" stroke-miterlimit="4" fill="none" d="
M 308.02308654785156 36.999761962890624
L 308.02308654785156 58.38712921142578"/>

<path id="Layer1_32_1_STROKES" stroke="#999483" stroke-width="2" stroke-linejoin="miter" stroke-linecap="round" stroke-miterlimit="4" fill="none" d="
M 313.9230499267578 33.324789428710936
L 313.9230499267578 62.087110900878905"/>

<path id="Layer1_33_1_STROKES" stroke="#999483" stroke-width="2" stroke-linejoin="miter" stroke-linecap="round" stroke-miterlimit="4" fill="none" d="
M 319.82301330566406 41.82473449707031
L 319.82301330566406 53.62466125488281"/>

<path id="Layer1_34_1_STROKES" stroke="#999483" stroke-width="2" stroke-linejoin="miter" stroke-linecap="round" stroke-miterlimit="4" fill="none" d="
M 325.7229766845703 27.824826049804688
L 325.7229766845703 67.64957885742187"/>

<path id="Layer1_35_1_STROKES" stroke="#999483" stroke-width="2" stroke-linejoin="miter" stroke-linecap="round" stroke-miterlimit="4" fill="none" d="
M 331.62294006347656 42.57473449707031
L 331.62294006347656 52.89967041015625"/>

<path id="Layer1_36_1_STROKES" stroke="#999483" stroke-width="2" stroke-linejoin="miter" stroke-linecap="round" stroke-miterlimit="4" fill="none" d="
M 337.5229034423828 29.674807739257812
L 337.5229034423828 65.8120834350586"/>

<path id="Layer1_37_1_STROKES" stroke="#999483" stroke-width="2" stroke-linejoin="miter" stroke-linecap="round" stroke-miterlimit="4" fill="none" d="
M 201.82374572753906 38.52475280761719
L 201.82374572753906 56.96213836669922"/>

<path id="Layer1_38_1_STROKES" stroke="#999483" stroke-width="2" stroke-linejoin="miter" stroke-linecap="round" stroke-miterlimit="4" fill="none" d="
M 195.9237823486328 31.849798583984374
L 195.9237823486328 63.56210174560547"/>

<path id="Layer1_39_1_STROKES" stroke="#999483" stroke-width="2" stroke-linejoin="miter" stroke-linecap="round" stroke-miterlimit="4" fill="none" d="
M 302.1231231689453 39.224752807617186
L 302.1231231689453 56.187147521972655"/>

<path id="Layer1_40_1_STROKES" stroke="#999483" stroke-width="2" stroke-linejoin="miter" stroke-linecap="round" stroke-miterlimit="4" fill="none" d="
M 266.7233428955078 42.57473449707031
L 266.7233428955078 52.89967041015625"/>

<path id="Layer1_41_1_STROKES" stroke="#999483" stroke-width="2" stroke-linejoin="miter" stroke-linecap="round" stroke-miterlimit="4" fill="none" d="
M 272.62330627441406 40.69974365234375
L 272.62330627441406 54.71215667724609"/>

<path id="Layer1_42_1_STROKES" stroke="#999483" stroke-width="2" stroke-linejoin="miter" stroke-linecap="round" stroke-miterlimit="4" fill="none" d="
M 278.5232696533203 44.774716186523435
L 278.5232696533203 50.674679565429685"/>

<path id="Layer1_43_1_STROKES" stroke="#999483" stroke-width="2" stroke-linejoin="miter" stroke-linecap="round" stroke-miterlimit="4" fill="none" d="
M 284.42323303222656 34.0497802734375
L 284.42323303222656 61.337110900878905"/>

<path id="Layer1_44_1_STROKES" stroke="#999483" stroke-width="2" stroke-linejoin="miter" stroke-linecap="round" stroke-miterlimit="4" fill="none" d="
M 290.3231964111328 41.474734497070315
L 290.3231964111328 54.0121566772461"/>

<path id="Layer1_45_1_STROKES" stroke="#999483" stroke-width="2" stroke-linejoin="miter" stroke-linecap="round" stroke-miterlimit="4" fill="none" d="
M 296.22315979003906 31.499798583984376
L 296.22315979003906 63.94959716796875"/>

<path id="Layer1_46_1_STROKES" stroke="#999483" stroke-width="2" stroke-linejoin="miter" stroke-linecap="round" stroke-miterlimit="4" fill="none" d="
M 254.9234161376953 38.52475280761719
L 254.9234161376953 56.96213836669922"/>

<path id="Layer1_47_1_STROKES" stroke="#999483" stroke-width="2" stroke-linejoin="miter" stroke-linecap="round" stroke-miterlimit="4" fill="none" d="
M 260.82337951660156 31.849798583984374
L 260.82337951660156 63.56210174560547"/>
</defs>

<g transform="matrix( 1.4749908447265625, 0, 0, 1.4749908447265625, -0.25,-0.25) ">
<use xlink:href="#Layer1_0_FILL"/>
</g>

<g transform="matrix( 1.4749908447265625, 0, 0, 1.4749908447265625, -0.25,-0.25) ">
<use xlink:href="#Layer1_1_FILL"/>
</g>

<g transform="matrix( 1.4749908447265625, 0, 0, 1.4749908447265625, -0.25,-0.25) ">
<use xlink:href="#Layer1_2_1_STROKES" transform="matrix( 0.6779632568359375, 0, 0, 0.6779632568359375, 0.15,0.15) "/>
</g>

<g transform="matrix( 1.4749908447265625, 0, 0, 1.4749908447265625, -0.25,-0.6) ">
<use xlink:href="#Layer1_3_1_STROKES" transform="matrix( 0.6779632568359375, 0, 0, 0.6779632568359375, 0.15,0.4) "/>
</g>

<g transform="matrix( 1.4749908447265625, 0, 0, 1.4749908447265625, -0.25,-1.35) ">
<use xlink:href="#Layer1_4_1_STROKES" transform="matrix( 0.6779632568359375, 0, 0, 0.6779632568359375, 0.15,0.9) "/>
</g>

<g transform="matrix( 1.4749908447265625, 0, 0, 1.4749908447265625, -0.25,-1.3) ">
<use xlink:href="#Layer1_5_1_STROKES" transform="matrix( 0.6779632568359375, 0, 0, 0.6779632568359375, 0.15,0.85) "/>
</g>

<g transform="matrix( 1.4749908447265625, 0, 0, 1.4749908447265625, -0.25,-0.95) ">
<use xlink:href="#Layer1_6_1_STROKES" transform="matrix( 0.6779632568359375, 0, 0, 0.6779632568359375, 0.15,0.6) "/>
</g>

<g transform="matrix( 1.4749908447265625, 0, 0, 1.4749908447265625, -0.25,-0.2) ">
<use xlink:href="#Layer1_7_1_STROKES" transform="matrix( 0.6779632568359375, 0, 0, 0.6779632568359375, 0.15,0.1) "/>
</g>

<g transform="matrix( 1.4749908447265625, 0, 0, 1.4749908447265625, -0.25,-0.6) ">
<use xlink:href="#Layer1_8_1_STROKES" transform="matrix( 0.6779632568359375, 0, 0, 0.6779632568359375, 0.15,0.4) "/>
</g>

<g transform="matrix( 1.4749908447265625, 0, 0, 1.4749908447265625, -0.25,-0.2) ">
<use xlink:href="#Layer1_9_1_STROKES" transform="matrix( 0.6779632568359375, 0, 0, 0.6779632568359375, 0.15,0.1) "/>
</g>

<g transform="matrix( 1.4749908447265625, 0, 0, 1.4749908447265625, -0.25,-0.6) ">
<use xlink:href="#Layer1_10_1_STROKES" transform="matrix( 0.6779632568359375, 0, 0, 0.6779632568359375, 0.15,0.4) "/>
</g>

<g transform="matrix( 1.4749908447265625, 0, 0, 1.4749908447265625, -0.25,-0.6) ">
<use xlink:href="#Layer1_11_1_STROKES" transform="matrix( 0.6779632568359375, 0, 0, 0.6779632568359375, 0.15,0.4) "/>
</g>

<g transform="matrix( 1.4749908447265625, 0, 0, 1.4749908447265625, -0.25,-0.2) ">
<use xlink:href="#Layer1_12_1_STROKES" transform="matrix( 0.6779632568359375, 0, 0, 0.6779632568359375, 0.15,0.1) "/>
</g>

<g transform="matrix( 1.4749908447265625, 0, 0, 1.4749908447265625, -0.25,-0.6) ">
<use xlink:href="#Layer1_13_1_STROKES" transform="matrix( 0.6779632568359375, 0, 0, 0.6779632568359375, 0.15,0.4) "/>
</g>

<g transform="matrix( 1.4749908447265625, 0, 0, 1.4749908447265625, -0.25,-0.2) ">
<use xlink:href="#Layer1_14_1_STROKES" transform="matrix( 0.6779632568359375, 0, 0, 0.6779632568359375, 0.15,0.1) "/>
</g>

<g transform="matrix( 1.4749908447265625, 0, 0, 1.4749908447265625, -0.25,-0.6) ">
<use xlink:href="#Layer1_15_1_STROKES" transform="matrix( 0.6779632568359375, 0, 0, 0.6779632568359375, 0.15,0.4) "/>
</g>

<g transform="matrix( 1.4749908447265625, 0, 0, 1.4749908447265625, -0.25,-0.95) ">
<use xlink:href="#Layer1_16_1_STROKES" transform="matrix( 0.6779632568359375, 0, 0, 0.6779632568359375, 0.15,0.6) "/>
</g>

<g transform="matrix( 1.4749908447265625, 0, 0, 1.4749908447265625, -0.25,-1.35) ">
<use xlink:href="#Layer1_17_1_STROKES" transform="matrix( 0.6779632568359375, 0, 0, 0.6779632568359375, 0.15,0.9) "/>
</g>

<g transform="matrix( 1.4749908447265625, 0, 0, 1.4749908447265625, -0.25,-1.3) ">
<use xlink:href="#Layer1_18_1_STROKES" transform="matrix( 0.6779632568359375, 0, 0, 0.6779632568359375, 0.15,0.85) "/>
</g>

<g transform="matrix( 1.4749908447265625, 0, 0, 1.4749908447265625, -0.25,-0.95) ">
<use xlink:href="#Layer1_19_1_STROKES" transform="matrix( 0.6779632568359375, 0, 0, 0.6779632568359375, 0.15,0.6) "/>
</g>

<g transform="matrix( 1.4749908447265625, 0, 0, 1.4749908447265625, -0.25,-0.2) ">
<use xlink:href="#Layer1_20_1_STROKES" transform="matrix( 0.6779632568359375, 0, 0, 0.6779632568359375, 0.15,0.1) "/>
</g>

<g transform="matrix( 1.4749908447265625, 0, 0, 1.4749908447265625, -0.25,-0.6) ">
<use xlink:href="#Layer1_21_1_STROKES" transform="matrix( 0.6779632568359375, 0, 0, 0.6779632568359375, 0.15,0.4) "/>
</g>

<g transform="matrix( 1.4749908447265625, 0, 0, 1.4749908447265625, -0.25,-0.2) ">
<use xlink:href="#Layer1_22_1_STROKES" transform="matrix( 0.6779632568359375, 0, 0, 0.6779632568359375, 0.15,0.1) "/>
</g>

<g transform="matrix( 1.4749908447265625, 0, 0, 1.4749908447265625, -0.25,-0.6) ">
<use xlink:href="#Layer1_23_1_STROKES" transform="matrix( 0.6779632568359375, 0, 0, 0.6779632568359375, 0.15,0.4) "/>
</g>

<g transform="matrix( 1.4749908447265625, 0, 0, 1.4749908447265625, -0.25,-1.35) ">
<use xlink:href="#Layer1_24_1_STROKES" transform="matrix( 0.6779632568359375, 0, 0, 0.6779632568359375, 0.15,0.9) "/>
</g>

<g transform="matrix( 1.4749908447265625, 0, 0, 1.4749908447265625, -0.25,-0.6) ">
<use xlink:href="#Layer1_25_1_STROKES" transform="matrix( 0.6779632568359375, 0, 0, 0.6779632568359375, 0.15,0.4) "/>
</g>

<g transform="matrix( 1.4749908447265625, 0, 0, 1.4749908447265625, -0.25,-0.95) ">
<use xlink:href="#Layer1_26_1_STROKES" transform="matrix( 0.6779632568359375, 0, 0, 0.6779632568359375, 0.15,0.6) "/>
</g>

<g transform="matrix( 1.4749908447265625, 0, 0, 1.4749908447265625, -0.25,-0.2) ">
<use xlink:href="#Layer1_27_1_STROKES" transform="matrix( 0.6779632568359375, 0, 0, 0.6779632568359375, 0.15,0.1) "/>
</g>

<g transform="matrix( 1.4749908447265625, 0, 0, 1.4749908447265625, -0.25,-0.2) ">
<use xlink:href="#Layer1_28_1_STROKES" transform="matrix( 0.6779632568359375, 0, 0, 0.6779632568359375, 0.15,0.1) "/>
</g>

<g transform="matrix( 1.4749908447265625, 0, 0, 1.4749908447265625, -0.25,-1.3) ">
<use xlink:href="#Layer1_29_1_STROKES" transform="matrix( 0.6779632568359375, 0, 0, 0.6779632568359375, 0.15,0.85) "/>
</g>

<g transform="matrix( 1.4749908447265625, 0, 0, 1.4749908447265625, -0.25,-0.2) ">
<use xlink:href="#Layer1_30_1_STROKES" transform="matrix( 0.6779632568359375, 0, 0, 0.6779632568359375, 0.15,0.1) "/>
</g>

<g transform="matrix( 1.4749908447265625, 0, 0, 1.4749908447265625, -0.25,-1.35) ">
<use xlink:href="#Layer1_31_1_STROKES" transform="matrix( 0.6779632568359375, 0, 0, 0.6779632568359375, 0.15,0.9) "/>
</g>

<g transform="matrix( 1.4749908447265625, 0, 0, 1.4749908447265625, -0.25,-0.6) ">
<use xlink:href="#Layer1_32_1_STROKES" transform="matrix( 0.6779632568359375, 0, 0, 0.6779632568359375, 0.15,0.4) "/>
</g>

<g transform="matrix( 1.4749908447265625, 0, 0, 1.4749908447265625, -0.25,-0.95) ">
<use xlink:href="#Layer1_33_1_STROKES" transform="matrix( 0.6779632568359375, 0, 0, 0.6779632568359375, 0.15,0.6) "/>
</g>

<g transform="matrix( 1.4749908447265625, 0, 0, 1.4749908447265625, -0.25,-0.2) ">
<use xlink:href="#Layer1_34_1_STROKES" transform="matrix( 0.6779632568359375, 0, 0, 0.6779632568359375, 0.15,0.1) "/>
</g>

<g transform="matrix( 1.4749908447265625, 0, 0, 1.4749908447265625, -0.25,-0.2) ">
<use xlink:href="#Layer1_35_1_STROKES" transform="matrix( 0.6779632568359375, 0, 0, 0.6779632568359375, 0.15,0.1) "/>
</g>

<g transform="matrix( 1.4749908447265625, 0, 0, 1.4749908447265625, -0.25,-1.3) ">
<use xlink:href="#Layer1_36_1_STROKES" transform="matrix( 0.6779632568359375, 0, 0, 0.6779632568359375, 0.15,0.85) "/>
</g>

<g transform="matrix( 1.4749908447265625, 0, 0, 1.4749908447265625, -0.25,-1.3) ">
<use xlink:href="#Layer1_37_1_STROKES" transform="matrix( 0.6779632568359375, 0, 0, 0.6779632568359375, 0.15,0.85) "/>
</g>

<g transform="matrix( 1.4749908447265625, 0, 0, 1.4749908447265625, -0.25,-0.6) ">
<use xlink:href="#Layer1_38_1_STROKES" transform="matrix( 0.6779632568359375, 0, 0, 0.6779632568359375, 0.15,0.4) "/>
</g>

<g transform="matrix( 1.4749908447265625, 0, 0, 1.4749908447265625, -0.25,-0.6) ">
<use xlink:href="#Layer1_39_1_STROKES" transform="matrix( 0.6779632568359375, 0, 0, 0.6779632568359375, 0.15,0.4) "/>
</g>

<g transform="matrix( 1.4749908447265625, 0, 0, 1.4749908447265625, -0.25,-0.2) ">
<use xlink:href="#Layer1_40_1_STROKES" transform="matrix( 0.6779632568359375, 0, 0, 0.6779632568359375, 0.15,0.1) "/>
</g>

<g transform="matrix( 1.4749908447265625, 0, 0, 1.4749908447265625, -0.25,-0.6) ">
<use xlink:href="#Layer1_41_1_STROKES" transform="matrix( 0.6779632568359375, 0, 0, 0.6779632568359375, 0.15,0.4) "/>
</g>

<g transform="matrix( 1.4749908447265625, 0, 0, 1.4749908447265625, -0.25,-0.95) ">
<use xlink:href="#Layer1_42_1_STROKES" transform="matrix( 0.6779632568359375, 0, 0, 0.6779632568359375, 0.15,0.6) "/>
</g>

<g transform="matrix( 1.4749908447265625, 0, 0, 1.4749908447265625, -0.25,-1.35) ">
<use xlink:href="#Layer1_43_1_STROKES" transform="matrix( 0.6779632568359375, 0, 0, 0.6779632568359375, 0.15,0.9) "/>
</g>

<g transform="matrix( 1.4749908447265625, 0, 0, 1.4749908447265625, -0.25,-1.3) ">
<use xlink:href="#Layer1_44_1_STROKES" transform="matrix( 0.6779632568359375, 0, 0, 0.6779632568359375, 0.15,0.85) "/>
</g>

<g transform="matrix( 1.4749908447265625, 0, 0, 1.4749908447265625, -0.25,-0.95) ">
<use xlink:href="#Layer1_45_1_STROKES" transform="matrix( 0.6779632568359375, 0, 0, 0.6779632568359375, 0.15,0.6) "/>
</g>

<g transform="matrix( 1.4749908447265625, 0, 0, 1.4749908447265625, -0.25,-1.3) ">
<use xlink:href="#Layer1_46_1_STROKES" transform="matrix( 0.6779632568359375, 0, 0, 0.6779632568359375, 0.15,0.85) "/>
</g>

<g transform="matrix( 1.4749908447265625, 0, 0, 1.4749908447265625, -0.25,-0.6) ">
<use xlink:href="#Layer1_47_1_STROKES" transform="matrix( 0.6779632568359375, 0, 0, 0.6779632568359375, 0.15,0.4) "/>
</g>

<g transform="matrix( 1.01556396484375, 0, 0, 1.4749908447265625, 14.05,-1) ">
<use xlink:href="#Layer1_48_FILL"/>
</g>
</svg>
