
<svg xmlns="http://www.w3.org/2000/svg" version="1.1" xmlns:xlink="http://www.w3.org/1999/xlink" preserveAspectRatio="none" x="0px" y="0px" width="387px" height="97px" viewBox="0 0 387 97">
<defs>
<g id="Layer1_0_FILL">
<path fill="#FCF5DB" stroke="none" d="
M 260.5 45
L 260.5 0.5 20 0.5
Q 11.9 0.5 6.2 6.2 0.5 11.95 0.5 20
L 0.5 45
Q 0.5 53.1 6.2 58.8 11.9 64.5 20 64.5
L 241 64.5
Q 249.05 64.5 254.8 58.8 260.5 53.1 260.5 45 Z"/>
</g>

<g id="Layer1_1_FILL">
<path fill="#727272" fill-opacity="0.2" stroke="none" d="
M 260.5 45
L 260.5 0.5 20 0.5
Q 11.9 0.5 6.2 6.2 0.5 11.95 0.5 20
L 0.5 45
Q 0.5 53.1 6.2 58.8 11.9 64.5 20 64.5
L 241 64.5
Q 249.05 64.5 254.8 58.8 260.5 53.1 260.5 45 Z"/>
</g>

<g id="Layer0_0_FILL">
<path fill="#565348" stroke="none" d="
M 51.5 38.6
L 49.05 38.6 49.05 57 51.5 57 51.5 38.6
M 43.65 38.6
L 41.3 38.6 41.3 57 43.65 57 43.65 38.6 Z"/>
</g>

<path id="Layer1_2_1_STROKES" stroke="#CAC4AF" stroke-width="1" stroke-linejoin="miter" stroke-linecap="butt" stroke-miterlimit="4" fill="none" d="
M 385.23114013671875 1.28748779296875
L 30.49951171875 1.28748779296875
Q 18.55220947265625 1.28748779296875 10.1448486328125 9.694848632812501 1.73748779296875 18.175958251953126 1.73748779296875 30.04951171875
L 1.73748779296875 66.9239013671875
Q 1.73748779296875 78.87120361328125 10.1448486328125 87.278564453125 18.55220947265625 95.68592529296875 30.49951171875 95.68592529296875
L 356.4691162109375 95.68592529296875
Q 368.34266967773436 95.68592529296875 376.823779296875 87.278564453125 385.23114013671875 78.87120361328125 385.23114013671875 66.9239013671875
L 385.23114013671875 1.28748779296875 Z"/>

<path id="Layer1_3_1_STROKES" stroke="#999483" stroke-width="2" stroke-linejoin="miter" stroke-linecap="round" stroke-miterlimit="4" fill="none" d="
M 232.5711669921875 40.0243408203125
L 232.5711669921875 56.98656005859375"/>

<path id="Layer1_4_1_STROKES" stroke="#999483" stroke-width="2" stroke-linejoin="miter" stroke-linecap="round" stroke-miterlimit="4" fill="none" d="
M 250.2708740234375 34.8494140625
L 250.2708740234375 62.13646240234375"/>

<path id="Layer1_5_1_STROKES" stroke="#999483" stroke-width="2" stroke-linejoin="miter" stroke-linecap="round" stroke-miterlimit="4" fill="none" d="
M 244.3709716796875 42.2742919921875
L 244.3709716796875 54.81158447265625"/>

<path id="Layer1_6_1_STROKES" stroke="#999483" stroke-width="2" stroke-linejoin="miter" stroke-linecap="round" stroke-miterlimit="4" fill="none" d="
M 238.4710693359375 32.299462890625
L 238.4710693359375 64.74892578125"/>

<path id="Layer1_7_1_STROKES" stroke="#999483" stroke-width="2" stroke-linejoin="miter" stroke-linecap="round" stroke-miterlimit="4" fill="none" d="
M 226.6712646484375 35.9994140625
L 226.6712646484375 61.0739990234375"/>

<path id="Layer1_8_1_STROKES" stroke="#999483" stroke-width="2" stroke-linejoin="miter" stroke-linecap="round" stroke-miterlimit="4" fill="none" d="
M 220.7713623046875 32.649462890625
L 220.7713623046875 64.36143798828125"/>

<path id="Layer1_9_1_STROKES" stroke="#999483" stroke-width="2" stroke-linejoin="miter" stroke-linecap="round" stroke-miterlimit="4" fill="none" d="
M 214.8714599609375 34.5244384765625
L 214.8714599609375 62.548974609375"/>

<path id="Layer1_10_1_STROKES" stroke="#999483" stroke-width="2" stroke-linejoin="miter" stroke-linecap="round" stroke-miterlimit="4" fill="none" d="
M 208.9715576171875 40.0243408203125
L 208.9715576171875 56.98656005859375"/>

<path id="Layer1_11_1_STROKES" stroke="#999483" stroke-width="2" stroke-linejoin="miter" stroke-linecap="round" stroke-miterlimit="4" fill="none" d="
M 149.9725341796875 40.0243408203125
L 149.9725341796875 56.98656005859375"/>

<path id="Layer1_12_1_STROKES" stroke="#999483" stroke-width="2" stroke-linejoin="miter" stroke-linecap="round" stroke-miterlimit="4" fill="none" d="
M 85.0736083984375 40.4243408203125
L 85.0736083984375 56.649072265625"/>

<path id="Layer1_13_1_STROKES" stroke="#999483" stroke-width="2" stroke-linejoin="miter" stroke-linecap="round" stroke-miterlimit="4" fill="none" d="
M 191.2718505859375 25.2745849609375
L 191.2718505859375 71.73631591796875"/>

<path id="Layer1_14_1_STROKES" stroke="#999483" stroke-width="2" stroke-linejoin="miter" stroke-linecap="round" stroke-miterlimit="4" fill="none" d="
M 185.3719482421875 43.3742919921875
L 185.3719482421875 53.69912109375"/>

<path id="Layer1_15_1_STROKES" stroke="#999483" stroke-width="2" stroke-linejoin="miter" stroke-linecap="round" stroke-miterlimit="4" fill="none" d="
M 179.4720458984375 41.49931640625
L 179.4720458984375 55.51158447265625"/>

<path id="Layer1_16_1_STROKES" stroke="#999483" stroke-width="2" stroke-linejoin="miter" stroke-linecap="round" stroke-miterlimit="4" fill="none" d="
M 173.5721435546875 45.5742431640625
L 173.5721435546875 51.4741455078125"/>

<path id="Layer1_17_1_STROKES" stroke="#999483" stroke-width="2" stroke-linejoin="miter" stroke-linecap="round" stroke-miterlimit="4" fill="none" d="
M 167.6722412109375 34.8494140625
L 167.6722412109375 62.13646240234375"/>

<path id="Layer1_18_1_STROKES" stroke="#999483" stroke-width="2" stroke-linejoin="miter" stroke-linecap="round" stroke-miterlimit="4" fill="none" d="
M 161.7723388671875 42.2742919921875
L 161.7723388671875 54.81158447265625"/>

<path id="Layer1_19_1_STROKES" stroke="#999483" stroke-width="2" stroke-linejoin="miter" stroke-linecap="round" stroke-miterlimit="4" fill="none" d="
M 155.8724365234375 32.299462890625
L 155.8724365234375 64.74892578125"/>

<path id="Layer1_20_1_STROKES" stroke="#999483" stroke-width="2" stroke-linejoin="miter" stroke-linecap="round" stroke-miterlimit="4" fill="none" d="
M 144.0726318359375 35.9994140625
L 144.0726318359375 61.0739990234375"/>

<path id="Layer1_21_1_STROKES" stroke="#999483" stroke-width="2" stroke-linejoin="miter" stroke-linecap="round" stroke-miterlimit="4" fill="none" d="
M 138.1727294921875 32.649462890625
L 138.1727294921875 64.36143798828125"/>

<path id="Layer1_22_1_STROKES" stroke="#999483" stroke-width="2" stroke-linejoin="miter" stroke-linecap="round" stroke-miterlimit="4" fill="none" d="
M 132.2728271484375 34.5244384765625
L 132.2728271484375 62.548974609375"/>

<path id="Layer1_23_1_STROKES" stroke="#999483" stroke-width="2" stroke-linejoin="miter" stroke-linecap="round" stroke-miterlimit="4" fill="none" d="
M 126.3729248046875 40.0243408203125
L 126.3729248046875 56.98656005859375"/>

<path id="Layer1_24_1_STROKES" stroke="#999483" stroke-width="2" stroke-linejoin="miter" stroke-linecap="round" stroke-miterlimit="4" fill="none" d="
M 120.4730224609375 37.799365234375
L 120.4730224609375 59.18651123046875"/>

<path id="Layer1_25_1_STROKES" stroke="#999483" stroke-width="2" stroke-linejoin="miter" stroke-linecap="round" stroke-miterlimit="4" fill="none" d="
M 114.5731201171875 34.1244384765625
L 114.5731201171875 62.88646240234375"/>

<path id="Layer1_26_1_STROKES" stroke="#999483" stroke-width="2" stroke-linejoin="miter" stroke-linecap="round" stroke-miterlimit="4" fill="none" d="
M 108.6732177734375 42.6242919921875
L 108.6732177734375 54.4240966796875"/>

<path id="Layer1_27_1_STROKES" stroke="#999483" stroke-width="2" stroke-linejoin="miter" stroke-linecap="round" stroke-miterlimit="4" fill="none" d="
M 102.7733154296875 28.6245361328125
L 102.7733154296875 68.448876953125"/>

<path id="Layer1_28_1_STROKES" stroke="#999483" stroke-width="2" stroke-linejoin="miter" stroke-linecap="round" stroke-miterlimit="4" fill="none" d="
M 96.8734130859375 43.3742919921875
L 96.8734130859375 53.69912109375"/>

<path id="Layer1_29_1_STROKES" stroke="#999483" stroke-width="2" stroke-linejoin="miter" stroke-linecap="round" stroke-miterlimit="4" fill="none" d="
M 90.9735107421875 30.4744873046875
L 90.9735107421875 66.61138916015625"/>

<path id="Layer1_30_1_STROKES" stroke="#999483" stroke-width="2" stroke-linejoin="miter" stroke-linecap="round" stroke-miterlimit="4" fill="none" d="
M 344.6693115234375 40.4243408203125
L 344.6693115234375 56.649072265625"/>

<path id="Layer1_31_1_STROKES" stroke="#999483" stroke-width="2" stroke-linejoin="miter" stroke-linecap="round" stroke-miterlimit="4" fill="none" d="
M 309.2698974609375 37.799365234375
L 309.2698974609375 59.18651123046875"/>

<path id="Layer1_32_1_STROKES" stroke="#999483" stroke-width="2" stroke-linejoin="miter" stroke-linecap="round" stroke-miterlimit="4" fill="none" d="
M 315.1697998046875 34.1244384765625
L 315.1697998046875 62.88646240234375"/>

<path id="Layer1_33_1_STROKES" stroke="#999483" stroke-width="2" stroke-linejoin="miter" stroke-linecap="round" stroke-miterlimit="4" fill="none" d="
M 321.0697021484375 42.6242919921875
L 321.0697021484375 54.4240966796875"/>

<path id="Layer1_34_1_STROKES" stroke="#999483" stroke-width="2" stroke-linejoin="miter" stroke-linecap="round" stroke-miterlimit="4" fill="none" d="
M 326.9696044921875 28.6245361328125
L 326.9696044921875 68.448876953125"/>

<path id="Layer1_35_1_STROKES" stroke="#999483" stroke-width="2" stroke-linejoin="miter" stroke-linecap="round" stroke-miterlimit="4" fill="none" d="
M 332.8695068359375 43.3742919921875
L 332.8695068359375 53.69912109375"/>

<path id="Layer1_36_1_STROKES" stroke="#999483" stroke-width="2" stroke-linejoin="miter" stroke-linecap="round" stroke-miterlimit="4" fill="none" d="
M 338.7694091796875 30.4744873046875
L 338.7694091796875 66.61138916015625"/>

<path id="Layer1_37_1_STROKES" stroke="#999483" stroke-width="2" stroke-linejoin="miter" stroke-linecap="round" stroke-miterlimit="4" fill="none" d="
M 203.0716552734375 39.3243408203125
L 203.0716552734375 57.76153564453125"/>

<path id="Layer1_38_1_STROKES" stroke="#999483" stroke-width="2" stroke-linejoin="miter" stroke-linecap="round" stroke-miterlimit="4" fill="none" d="
M 197.1717529296875 32.649462890625
L 197.1717529296875 64.36143798828125"/>

<path id="Layer1_39_1_STROKES" stroke="#999483" stroke-width="2" stroke-linejoin="miter" stroke-linecap="round" stroke-miterlimit="4" fill="none" d="
M 303.3699951171875 40.0243408203125
L 303.3699951171875 56.98656005859375"/>

<path id="Layer1_40_1_STROKES" stroke="#999483" stroke-width="2" stroke-linejoin="miter" stroke-linecap="round" stroke-miterlimit="4" fill="none" d="
M 267.9705810546875 43.3742919921875
L 267.9705810546875 53.69912109375"/>

<path id="Layer1_41_1_STROKES" stroke="#999483" stroke-width="2" stroke-linejoin="miter" stroke-linecap="round" stroke-miterlimit="4" fill="none" d="
M 273.8704833984375 41.49931640625
L 273.8704833984375 55.51158447265625"/>

<path id="Layer1_42_1_STROKES" stroke="#999483" stroke-width="2" stroke-linejoin="miter" stroke-linecap="round" stroke-miterlimit="4" fill="none" d="
M 279.7703857421875 45.5742431640625
L 279.7703857421875 51.4741455078125"/>

<path id="Layer1_43_1_STROKES" stroke="#999483" stroke-width="2" stroke-linejoin="miter" stroke-linecap="round" stroke-miterlimit="4" fill="none" d="
M 285.6702880859375 34.8494140625
L 285.6702880859375 62.13646240234375"/>

<path id="Layer1_44_1_STROKES" stroke="#999483" stroke-width="2" stroke-linejoin="miter" stroke-linecap="round" stroke-miterlimit="4" fill="none" d="
M 291.5701904296875 42.2742919921875
L 291.5701904296875 54.81158447265625"/>

<path id="Layer1_45_1_STROKES" stroke="#999483" stroke-width="2" stroke-linejoin="miter" stroke-linecap="round" stroke-miterlimit="4" fill="none" d="
M 297.4700927734375 32.299462890625
L 297.4700927734375 64.74892578125"/>

<path id="Layer1_46_1_STROKES" stroke="#999483" stroke-width="2" stroke-linejoin="miter" stroke-linecap="round" stroke-miterlimit="4" fill="none" d="
M 256.1707763671875 39.3243408203125
L 256.1707763671875 57.76153564453125"/>

<path id="Layer1_47_1_STROKES" stroke="#999483" stroke-width="2" stroke-linejoin="miter" stroke-linecap="round" stroke-miterlimit="4" fill="none" d="
M 262.0706787109375 32.649462890625
L 262.0706787109375 64.36143798828125"/>

<path id="Layer0_0_1_STROKES" stroke="#565348" stroke-width="3" stroke-linejoin="round" stroke-linecap="round" fill="none" d="
M 41.3 38.6
L 43.65 38.6 43.65 57 41.3 57 41.3 38.6 Z
M 49.05 38.6
L 51.5 38.6 51.5 57 49.05 57 49.05 38.6 Z"/>
</defs>

<g transform="matrix( 1.4749755859375, 0, 0, 1.4749755859375, 1,0.55) ">
<use xlink:href="#Layer1_0_FILL"/>
</g>

<g transform="matrix( 1.4749755859375, 0, 0, 1.4749755859375, 1,0.55) ">
<use xlink:href="#Layer1_1_FILL"/>
</g>

<g transform="matrix( 1.4749755859375, 0, 0, 1.4749755859375, 1,0.55) ">
<use xlink:href="#Layer1_2_1_STROKES" transform="matrix( 0.6779632568359375, 0, 0, 0.6779632568359375, -0.65,-0.35) "/>
</g>

<g transform="matrix( 1.4749755859375, 0, 0, 1.4749755859375, 1,0.2) ">
<use xlink:href="#Layer1_3_1_STROKES" transform="matrix( 0.6779632568359375, 0, 0, 0.6779632568359375, -0.65,-0.1) "/>
</g>

<g transform="matrix( 1.4749755859375, 0, 0, 1.4749755859375, 1,-0.55) ">
<use xlink:href="#Layer1_4_1_STROKES" transform="matrix( 0.6779632568359375, 0, 0, 0.6779632568359375, -0.65,0.35) "/>
</g>

<g transform="matrix( 1.4749755859375, 0, 0, 1.4749755859375, 1,-0.5) ">
<use xlink:href="#Layer1_5_1_STROKES" transform="matrix( 0.6779632568359375, 0, 0, 0.6779632568359375, -0.65,0.3) "/>
</g>

<g transform="matrix( 1.4749755859375, 0, 0, 1.4749755859375, 1,-0.15) ">
<use xlink:href="#Layer1_6_1_STROKES" transform="matrix( 0.6779632568359375, 0, 0, 0.6779632568359375, -0.65,0.1) "/>
</g>

<g transform="matrix( 1.4749755859375, 0, 0, 1.4749755859375, 1,0.6) ">
<use xlink:href="#Layer1_7_1_STROKES" transform="matrix( 0.6779632568359375, 0, 0, 0.6779632568359375, -0.65,-0.4) "/>
</g>

<g transform="matrix( 1.4749755859375, 0, 0, 1.4749755859375, 1,0.2) ">
<use xlink:href="#Layer1_8_1_STROKES" transform="matrix( 0.6779632568359375, 0, 0, 0.6779632568359375, -0.65,-0.1) "/>
</g>

<g transform="matrix( 1.4749755859375, 0, 0, 1.4749755859375, 1,0.6) ">
<use xlink:href="#Layer1_9_1_STROKES" transform="matrix( 0.6779632568359375, 0, 0, 0.6779632568359375, -0.65,-0.4) "/>
</g>

<g transform="matrix( 1.4749755859375, 0, 0, 1.4749755859375, 1,0.2) ">
<use xlink:href="#Layer1_10_1_STROKES" transform="matrix( 0.6779632568359375, 0, 0, 0.6779632568359375, -0.65,-0.1) "/>
</g>

<g transform="matrix( 1.4749755859375, 0, 0, 1.4749755859375, 1,0.2) ">
<use xlink:href="#Layer1_11_1_STROKES" transform="matrix( 0.6779632568359375, 0, 0, 0.6779632568359375, -0.65,-0.1) "/>
</g>

<g transform="matrix( 1.4749755859375, 0, 0, 1.4749755859375, 1,0.6) ">
<use xlink:href="#Layer1_12_1_STROKES" transform="matrix( 0.6779632568359375, 0, 0, 0.6779632568359375, -0.65,-0.4) "/>
</g>

<g transform="matrix( 1.4749755859375, 0, 0, 1.4749755859375, 1,0.2) ">
<use xlink:href="#Layer1_13_1_STROKES" transform="matrix( 0.6779632568359375, 0, 0, 0.6779632568359375, -0.65,-0.1) "/>
</g>

<g transform="matrix( 1.4749755859375, 0, 0, 1.4749755859375, 1,0.6) ">
<use xlink:href="#Layer1_14_1_STROKES" transform="matrix( 0.6779632568359375, 0, 0, 0.6779632568359375, -0.65,-0.4) "/>
</g>

<g transform="matrix( 1.4749755859375, 0, 0, 1.4749755859375, 1,0.2) ">
<use xlink:href="#Layer1_15_1_STROKES" transform="matrix( 0.6779632568359375, 0, 0, 0.6779632568359375, -0.65,-0.1) "/>
</g>

<g transform="matrix( 1.4749755859375, 0, 0, 1.4749755859375, 1,-0.15) ">
<use xlink:href="#Layer1_16_1_STROKES" transform="matrix( 0.6779632568359375, 0, 0, 0.6779632568359375, -0.65,0.1) "/>
</g>

<g transform="matrix( 1.4749755859375, 0, 0, 1.4749755859375, 1,-0.55) ">
<use xlink:href="#Layer1_17_1_STROKES" transform="matrix( 0.6779632568359375, 0, 0, 0.6779632568359375, -0.65,0.35) "/>
</g>

<g transform="matrix( 1.4749755859375, 0, 0, 1.4749755859375, 1,-0.5) ">
<use xlink:href="#Layer1_18_1_STROKES" transform="matrix( 0.6779632568359375, 0, 0, 0.6779632568359375, -0.65,0.3) "/>
</g>

<g transform="matrix( 1.4749755859375, 0, 0, 1.4749755859375, 1,-0.15) ">
<use xlink:href="#Layer1_19_1_STROKES" transform="matrix( 0.6779632568359375, 0, 0, 0.6779632568359375, -0.65,0.1) "/>
</g>

<g transform="matrix( 1.4749755859375, 0, 0, 1.4749755859375, 1,0.6) ">
<use xlink:href="#Layer1_20_1_STROKES" transform="matrix( 0.6779632568359375, 0, 0, 0.6779632568359375, -0.65,-0.4) "/>
</g>

<g transform="matrix( 1.4749755859375, 0, 0, 1.4749755859375, 1,0.2) ">
<use xlink:href="#Layer1_21_1_STROKES" transform="matrix( 0.6779632568359375, 0, 0, 0.6779632568359375, -0.65,-0.1) "/>
</g>

<g transform="matrix( 1.4749755859375, 0, 0, 1.4749755859375, 1,0.6) ">
<use xlink:href="#Layer1_22_1_STROKES" transform="matrix( 0.6779632568359375, 0, 0, 0.6779632568359375, -0.65,-0.4) "/>
</g>

<g transform="matrix( 1.4749755859375, 0, 0, 1.4749755859375, 1,0.2) ">
<use xlink:href="#Layer1_23_1_STROKES" transform="matrix( 0.6779632568359375, 0, 0, 0.6779632568359375, -0.65,-0.1) "/>
</g>

<g transform="matrix( 1.4749755859375, 0, 0, 1.4749755859375, 1,-0.55) ">
<use xlink:href="#Layer1_24_1_STROKES" transform="matrix( 0.6779632568359375, 0, 0, 0.6779632568359375, -0.65,0.35) "/>
</g>

<g transform="matrix( 1.4749755859375, 0, 0, 1.4749755859375, 1,0.2) ">
<use xlink:href="#Layer1_25_1_STROKES" transform="matrix( 0.6779632568359375, 0, 0, 0.6779632568359375, -0.65,-0.1) "/>
</g>

<g transform="matrix( 1.4749755859375, 0, 0, 1.4749755859375, 1,-0.15) ">
<use xlink:href="#Layer1_26_1_STROKES" transform="matrix( 0.6779632568359375, 0, 0, 0.6779632568359375, -0.65,0.1) "/>
</g>

<g transform="matrix( 1.4749755859375, 0, 0, 1.4749755859375, 1,0.6) ">
<use xlink:href="#Layer1_27_1_STROKES" transform="matrix( 0.6779632568359375, 0, 0, 0.6779632568359375, -0.65,-0.4) "/>
</g>

<g transform="matrix( 1.4749755859375, 0, 0, 1.4749755859375, 1,0.6) ">
<use xlink:href="#Layer1_28_1_STROKES" transform="matrix( 0.6779632568359375, 0, 0, 0.6779632568359375, -0.65,-0.4) "/>
</g>

<g transform="matrix( 1.4749755859375, 0, 0, 1.4749755859375, 1,-0.5) ">
<use xlink:href="#Layer1_29_1_STROKES" transform="matrix( 0.6779632568359375, 0, 0, 0.6779632568359375, -0.65,0.3) "/>
</g>

<g transform="matrix( 1.4749755859375, 0, 0, 1.4749755859375, 1,0.6) ">
<use xlink:href="#Layer1_30_1_STROKES" transform="matrix( 0.6779632568359375, 0, 0, 0.6779632568359375, -0.65,-0.4) "/>
</g>

<g transform="matrix( 1.4749755859375, 0, 0, 1.4749755859375, 1,-0.55) ">
<use xlink:href="#Layer1_31_1_STROKES" transform="matrix( 0.6779632568359375, 0, 0, 0.6779632568359375, -0.65,0.35) "/>
</g>

<g transform="matrix( 1.4749755859375, 0, 0, 1.4749755859375, 1,0.2) ">
<use xlink:href="#Layer1_32_1_STROKES" transform="matrix( 0.6779632568359375, 0, 0, 0.6779632568359375, -0.65,-0.1) "/>
</g>

<g transform="matrix( 1.4749755859375, 0, 0, 1.4749755859375, 1,-0.15) ">
<use xlink:href="#Layer1_33_1_STROKES" transform="matrix( 0.6779632568359375, 0, 0, 0.6779632568359375, -0.65,0.1) "/>
</g>

<g transform="matrix( 1.4749755859375, 0, 0, 1.4749755859375, 1,0.6) ">
<use xlink:href="#Layer1_34_1_STROKES" transform="matrix( 0.6779632568359375, 0, 0, 0.6779632568359375, -0.65,-0.4) "/>
</g>

<g transform="matrix( 1.4749755859375, 0, 0, 1.4749755859375, 1,0.6) ">
<use xlink:href="#Layer1_35_1_STROKES" transform="matrix( 0.6779632568359375, 0, 0, 0.6779632568359375, -0.65,-0.4) "/>
</g>

<g transform="matrix( 1.4749755859375, 0, 0, 1.4749755859375, 1,-0.5) ">
<use xlink:href="#Layer1_36_1_STROKES" transform="matrix( 0.6779632568359375, 0, 0, 0.6779632568359375, -0.65,0.3) "/>
</g>

<g transform="matrix( 1.4749755859375, 0, 0, 1.4749755859375, 1,-0.5) ">
<use xlink:href="#Layer1_37_1_STROKES" transform="matrix( 0.6779632568359375, 0, 0, 0.6779632568359375, -0.65,0.3) "/>
</g>

<g transform="matrix( 1.4749755859375, 0, 0, 1.4749755859375, 1,0.2) ">
<use xlink:href="#Layer1_38_1_STROKES" transform="matrix( 0.6779632568359375, 0, 0, 0.6779632568359375, -0.65,-0.1) "/>
</g>

<g transform="matrix( 1.4749755859375, 0, 0, 1.4749755859375, 1,0.2) ">
<use xlink:href="#Layer1_39_1_STROKES" transform="matrix( 0.6779632568359375, 0, 0, 0.6779632568359375, -0.65,-0.1) "/>
</g>

<g transform="matrix( 1.4749755859375, 0, 0, 1.4749755859375, 1,0.6) ">
<use xlink:href="#Layer1_40_1_STROKES" transform="matrix( 0.6779632568359375, 0, 0, 0.6779632568359375, -0.65,-0.4) "/>
</g>

<g transform="matrix( 1.4749755859375, 0, 0, 1.4749755859375, 1,0.2) ">
<use xlink:href="#Layer1_41_1_STROKES" transform="matrix( 0.6779632568359375, 0, 0, 0.6779632568359375, -0.65,-0.1) "/>
</g>

<g transform="matrix( 1.4749755859375, 0, 0, 1.4749755859375, 1,-0.15) ">
<use xlink:href="#Layer1_42_1_STROKES" transform="matrix( 0.6779632568359375, 0, 0, 0.6779632568359375, -0.65,0.1) "/>
</g>

<g transform="matrix( 1.4749755859375, 0, 0, 1.4749755859375, 1,-0.55) ">
<use xlink:href="#Layer1_43_1_STROKES" transform="matrix( 0.6779632568359375, 0, 0, 0.6779632568359375, -0.65,0.35) "/>
</g>

<g transform="matrix( 1.4749755859375, 0, 0, 1.4749755859375, 1,-0.5) ">
<use xlink:href="#Layer1_44_1_STROKES" transform="matrix( 0.6779632568359375, 0, 0, 0.6779632568359375, -0.65,0.3) "/>
</g>

<g transform="matrix( 1.4749755859375, 0, 0, 1.4749755859375, 1,-0.15) ">
<use xlink:href="#Layer1_45_1_STROKES" transform="matrix( 0.6779632568359375, 0, 0, 0.6779632568359375, -0.65,0.1) "/>
</g>

<g transform="matrix( 1.4749755859375, 0, 0, 1.4749755859375, 1,-0.5) ">
<use xlink:href="#Layer1_46_1_STROKES" transform="matrix( 0.6779632568359375, 0, 0, 0.6779632568359375, -0.65,0.3) "/>
</g>

<g transform="matrix( 1.4749755859375, 0, 0, 1.4749755859375, 1,0.2) ">
<use xlink:href="#Layer1_47_1_STROKES" transform="matrix( 0.6779632568359375, 0, 0, 0.6779632568359375, -0.65,-0.1) "/>
</g>

<g transform="matrix( 1, 0, 0, 1, 0,0) ">
<use xlink:href="#Layer0_0_FILL"/>

<use xlink:href="#Layer0_0_1_STROKES"/>
</g>
</svg>
